<svg width="14" height="14" viewBox="0 0 14 14" fill="none" xmlns="http://www.w3.org/2000/svg">
<path d="M8.04208 6.99998L13.7842 1.25786C14.0719 0.970099 14.0719 0.503561 13.7842 0.215824C13.4964 -0.0719412 13.0299 -0.0719412 12.7421 0.215824L6.99998 5.95794L1.25786 0.215824C0.970099 -0.0719412 0.503561 -0.0719412 0.215824 0.215824C-0.0719139 0.503589 -0.0719412 0.970126 0.215824 1.25786L5.95794 6.99998L0.215824 12.7421C-0.0719412 13.0299 -0.0719412 13.4964 0.215824 13.7841C0.503589 14.0719 0.970126 14.0719 1.25786 13.7841L6.99998 8.04202L12.7421 13.7841C13.0298 14.0719 13.4964 14.0719 13.7841 13.7841C14.0719 13.4964 14.0719 13.0298 13.7841 12.7421L8.04208 6.99998Z" fill="black"/>
</svg>
