<svg width="24" height="24" viewBox="0 0 24 24" fill="none" xmlns="http://www.w3.org/2000/svg">
<g clip-path="url(#clip0)">
<path d="M20.5 6.98242H3.50002C1.56998 6.98242 0 8.55241 0 10.4824V20.4824C0 22.4124 1.56998 23.9824 3.50002 23.9824H20.5C22.43 23.9824 24 22.4114 24 20.4824V10.4824C24 8.55241 22.43 6.98242 20.5 6.98242ZM23 20.4824C23 21.8604 21.879 22.9824 20.5 22.9824H3.50002C2.121 22.9824 1.00003 21.8604 1.00003 20.4824V10.4824C1.00003 9.10445 2.12105 7.98245 3.50002 7.98245H20.5C21.879 7.98245 23 9.10445 23 10.4824V20.4824Z" fill="black"/>
<path d="M19.5 13.9824C18.673 13.9824 18 14.6554 18 15.4824C18 16.3094 18.673 16.9824 19.5 16.9824C20.327 16.9824 21 16.3094 21 15.4824C21 14.6555 20.327 13.9824 19.5 13.9824ZM19.5 15.9824C19.225 15.9824 19 15.7584 19 15.4824C19 15.2064 19.225 14.9824 19.5 14.9824C19.775 14.9824 20 15.2064 20 15.4824C20 15.7584 19.775 15.9824 19.5 15.9824Z" fill="black"/>
<path d="M23.5 11.9824H19.5C17.57 11.9824 16 13.5524 16 15.4824C16 17.4124 17.57 18.9825 19.5 18.9825H23.5C23.776 18.9825 24 18.7584 24 18.4824V12.4824C24 12.2064 23.776 11.9824 23.5 11.9824ZM23 17.9824H19.5C18.121 17.9824 17 16.8604 17 15.4824C17 14.1045 18.121 12.9825 19.5 12.9825H23V17.9824Z" fill="black"/>
<path d="M19.351 0.477658C18.279 -0.154357 16.968 -0.130357 15.806 0.519658L3.072 5.85966C1.206 6.64266 0 8.45667 0 10.4806C0 10.7576 0.224016 10.9807 0.500016 10.9807C0.776016 10.9807 1.00003 10.7566 1.00003 10.4806C1.00003 8.85966 1.96505 7.40864 3.45905 6.78263L16.243 1.41764C17.135 0.920627 18.084 0.891658 18.845 1.33866C19.568 1.76466 20 2.55867 20 3.46364V7.48163C20 7.75763 20.224 7.98061 20.5 7.98061C20.776 7.98061 21 7.7566 21 7.4806V3.46364C21 2.20167 20.384 1.08567 19.351 0.477658Z" fill="black"/>
<path d="M17.9681 4.30447C17.8712 4.04647 17.5811 3.91545 17.3241 4.01248L9.32411 7.01248C9.06513 7.10947 8.9351 7.3985 9.03213 7.65748C9.10713 7.8575 9.29814 7.98148 9.50013 7.98148C9.55914 7.98148 9.61811 7.97047 9.67614 7.94848L17.6762 4.94848C17.9351 4.85145 18.0662 4.56345 17.9681 4.30447Z" fill="black"/>
</g>
<defs>
<clipPath id="clip0">
<rect width="24" height="24" fill="white"/>
</clipPath>
</defs>
</svg>
