<svg width="25" height="25" viewBox="0 0 25 25" fill="none" xmlns="http://www.w3.org/2000/svg">
<path d="M1.6665 1.66602V23.3327H23.3332V1.66602H1.6665ZM22.0636 2.93555V6.74414H2.93604V2.93555H22.0636ZM2.93604 22.0632V8.01367H22.0636V22.0632H2.93604Z" fill="black"/>
<path d="M4.24788 4.20508H8.05648V5.47461H4.24788V4.20508Z" fill="black"/>
<path d="M14.4041 4.20508H15.6737V5.47461H14.4041V4.20508Z" fill="black"/>
<path d="M19.4823 4.20508H20.7518V5.47461H19.4823V4.20508Z" fill="black"/>
<path d="M16.9432 4.20508H18.2127V5.47461H16.9432V4.20508Z" fill="black"/>
<path d="M6.15218 11.6439L5.33145 10.8233L4.43385 11.7209L6.15218 13.4394L9.14004 10.4514L8.24244 9.55381L6.15218 11.6439Z" fill="black"/>
<path d="M6.15218 15.4525L5.33145 14.6319L4.43385 15.5295L6.15218 17.248L9.14004 14.26L8.24244 13.3624L6.15218 15.4525Z" fill="black"/>
<path d="M6.15218 19.2611L5.33145 18.4405L4.43385 19.3381L6.15218 21.0566L9.14004 18.0686L8.24244 17.171L6.15218 19.2611Z" fill="black"/>
<path d="M10.5955 10.6374H20.7518V11.9069H10.5955V10.6374Z" fill="black"/>
<path d="M10.5955 14.446H20.7518V15.7155H10.5955V14.446Z" fill="black"/>
<path d="M10.5955 18.2546H20.7518V19.5241H10.5955V18.2546Z" fill="black"/>
</svg>
