<svg width="24" height="24" viewBox="0 0 24 24" fill="none" xmlns="http://www.w3.org/2000/svg">
<path d="M20.4853 3.51469C18.2188 1.24819 15.2053 0 12 0C8.79469 0 5.78119 1.24819 3.51469 3.51469C1.24823 5.78119 0 8.79469 0 12C0 15.2053 1.24823 18.2188 3.51469 20.4853C5.78119 22.7518 8.79469 24 12 24C15.2053 24 18.2188 22.7518 20.4853 20.4853C22.7518 18.2188 24 15.2053 24 12C24 8.79469 22.7518 5.78119 20.4853 3.51469ZM12 22.5938C6.15858 22.5938 1.40625 17.8414 1.40625 12C1.40625 6.15858 6.15858 1.40625 12 1.40625C17.8414 1.40625 22.5938 6.15858 22.5938 12C22.5938 17.8414 17.8414 22.5938 12 22.5938Z" fill="black"/>
<path d="M12.7534 11.2957H11.2471C10.389 11.2957 9.69087 10.5975 9.69087 9.73945C9.69087 8.88131 10.389 8.1832 11.2471 8.1832H14.2596C14.648 8.1832 14.9628 7.86839 14.9628 7.48008C14.9628 7.09177 14.648 6.77695 14.2596 6.77695H12.7034V5.2207C12.7034 4.83239 12.3886 4.51758 12.0003 4.51758C11.612 4.51758 11.2971 4.83239 11.2971 5.2207V6.77695H11.2472C9.61362 6.77695 8.28467 8.10595 8.28467 9.73945C8.28467 11.373 9.61367 12.7019 11.2472 12.7019H12.7535C13.6116 12.7019 14.3097 13.4001 14.3097 14.2582C14.3097 15.1163 13.6116 15.8144 12.7535 15.8144H9.74094C9.35262 15.8144 9.03781 16.1292 9.03781 16.5175C9.03781 16.9058 9.35262 17.2207 9.74094 17.2207H11.2971V18.777C11.2971 19.1653 11.612 19.4801 12.0003 19.4801C12.3886 19.4801 12.7034 19.1653 12.7034 18.777V17.2207H12.7534C14.3869 17.2207 15.7159 15.8917 15.7159 14.2582C15.7159 12.6247 14.3869 11.2957 12.7534 11.2957Z" fill="black"/>
</svg>
