<svg width="22" height="22" viewBox="0 0 22 22" fill="none" xmlns="http://www.w3.org/2000/svg">
<g clip-path="url(#clip0)">
<path d="M21.973 16.0975C21.952 16.0731 21.921 16.0586 21.8885 16.0586H0.111667C0.0791359 16.0586 0.0484124 16.0728 0.0271771 16.0975C0.00594183 16.1218 -0.00354628 16.1546 0.00119778 16.1869C0.00436048 16.2072 0.33283 18.2237 2.8822 18.2237H19.1179C21.6671 18.2237 21.9956 16.2072 21.9989 16.1869C22.0035 16.1546 21.994 16.1218 21.973 16.0975ZM12.6378 17.5175H9.36213V16.7643H12.6378V17.5175Z" fill="black"/>
<path d="M2.37369 15.2754H19.6262C19.8756 15.2754 20.0781 15.073 20.0781 14.8236V4.22721C20.0781 3.9778 19.8756 3.77539 19.6262 3.77539H2.37369C2.12429 3.77539 1.92188 3.9778 1.92188 4.22721V14.8236C1.92187 15.073 2.12429 15.2754 2.37369 15.2754ZM3.50323 5.35674H18.4967V13.6941H3.50323V5.35674Z" fill="black"/>
</g>
<defs>
<clipPath id="clip0">
<rect width="22" height="22" fill="white"/>
</clipPath>
</defs>
</svg>
