<svg width="186" height="186" viewBox="0 0 186 186" fill="none" xmlns="http://www.w3.org/2000/svg">
<circle cx="93" cy="93" r="73" stroke="url(#paint0_linear)" stroke-width="40"/>
<path d="M31.8466 118.133C31.8509 118.133 31.8553 118.133 31.8581 118.133C31.8625 118.133 31.8668 118.131 31.8711 118.131C31.8755 118.13 31.8798 118.13 31.8841 118.13C31.8885 118.13 31.8928 118.128 31.8971 118.128C31.9015 118.127 31.9058 118.127 31.9087 118.127C31.913 118.125 31.9174 118.124 31.9217 118.124C31.9246 118.123 31.9304 118.123 31.9332 118.121C31.9376 118.12 31.9419 118.12 31.9448 118.118C31.9491 118.117 31.9535 118.115 31.9578 118.115C31.9607 118.114 31.965 118.112 31.9679 118.111C31.9722 118.11 31.9766 118.108 31.9809 118.107C31.9852 118.105 31.9881 118.104 31.991 118.102C31.9953 118.101 31.9997 118.099 32.004 118.098C32.0069 118.097 32.0112 118.095 32.0141 118.094C32.0185 118.092 32.0213 118.089 32.0257 118.088C32.03 118.086 32.0329 118.084 32.0372 118.084C32.0401 118.081 32.0444 118.079 32.0473 118.079C32.0517 118.076 32.0546 118.075 32.0589 118.074C32.0632 118.072 32.0661 118.069 32.069 118.069C32.0733 118.066 32.0762 118.065 32.0805 118.063C32.0834 118.061 32.0863 118.059 32.0907 118.058C32.095 118.055 32.0979 118.053 32.1022 118.052C32.1051 118.049 32.1065 118.046 32.1109 118.046C32.1152 118.043 32.1195 118.04 32.1224 118.037C32.1253 118.036 32.1282 118.035 32.1297 118.032C32.134 118.027 32.1383 118.026 32.1426 118.021C32.1441 118.019 32.1455 118.017 32.1484 118.017C32.1528 118.013 32.1571 118.01 32.1629 118.006C32.1643 118.004 32.1657 118.003 32.1672 118.001C32.1715 117.996 32.1759 117.993 32.1816 117.987C32.1816 117.985 32.1831 117.985 32.1845 117.984C32.1903 117.98 32.1946 117.972 32.199 117.968L32.2004 117.967C32.2062 117.961 32.2105 117.955 32.2149 117.949C32.2149 117.949 32.2149 117.949 32.2149 117.948C32.2856 117.863 32.3289 117.751 32.3289 117.63V111.5C32.3289 111.224 32.1051 111 31.8293 111H20.4507C20.1749 111 19.9511 111.224 19.9511 111.5V117.63C19.9511 117.776 20.0146 117.909 20.1157 118C20.1157 118 20.1157 118 20.1171 118.001C20.1215 118.006 20.1272 118.01 20.133 118.016C20.133 118.017 20.1345 118.017 20.1345 118.019C20.1402 118.023 20.146 118.027 20.1518 118.032C20.1532 118.032 20.1532 118.033 20.1561 118.035C20.1605 118.039 20.1662 118.042 20.172 118.046C20.1735 118.048 20.1764 118.049 20.1778 118.05C20.1821 118.053 20.1879 118.056 20.1937 118.059C20.1951 118.062 20.198 118.062 20.1995 118.063C20.2038 118.068 20.2096 118.069 20.2139 118.072C20.2153 118.073 20.2182 118.075 20.2211 118.076C20.2255 118.079 20.2312 118.081 20.2356 118.084C20.2385 118.085 20.2413 118.086 20.2442 118.088C20.2486 118.091 20.2529 118.092 20.2572 118.094C20.2601 118.095 20.263 118.097 20.2673 118.098C20.2717 118.099 20.276 118.102 20.2803 118.102C20.2847 118.104 20.2875 118.105 20.2904 118.107C20.2948 118.108 20.2991 118.11 20.3034 118.111C20.3063 118.112 20.3107 118.114 20.315 118.115C20.3193 118.117 20.3222 118.118 20.3265 118.12C20.3309 118.12 20.3352 118.121 20.3381 118.123C20.3424 118.123 20.3468 118.124 20.3511 118.125C20.3554 118.127 20.3598 118.127 20.3626 118.128C20.367 118.128 20.3713 118.13 20.3756 118.131C20.38 118.131 20.3843 118.131 20.3886 118.133H22.2805L22.2819 118.137L24.2503 121.43V118.137H31.8293C31.8379 118.133 31.8423 118.133 31.8466 118.133ZM23.6683 115.031C23.3188 115.031 23.0343 114.748 23.0343 114.397C23.0343 114.046 23.3174 113.763 23.6683 113.763C24.0193 113.763 24.3023 114.046 24.3023 114.397C24.3023 114.748 24.0178 115.031 23.6683 115.031ZM25.3565 115.031C25.0071 115.031 24.7226 114.748 24.7226 114.397C24.7226 114.046 25.0071 113.763 25.3565 113.763C25.706 113.763 25.9891 114.046 25.9891 114.397C25.9891 114.748 25.706 115.031 25.3565 115.031ZM27.0448 115.031C26.6953 115.031 26.4108 114.748 26.4108 114.397C26.4108 114.046 26.6953 113.763 27.0448 113.763C27.3943 113.763 27.6788 114.046 27.6788 114.397C27.6788 114.748 27.3943 115.031 27.0448 115.031ZM28.7344 115.031C28.3849 115.031 28.1005 114.748 28.1005 114.397C28.1005 114.046 28.3835 113.763 28.7344 113.763C29.0839 113.763 29.3684 114.046 29.3684 114.397C29.3684 114.748 29.0839 115.031 28.7344 115.031ZM22.2025 123.638H21.5844C22.1404 123.303 22.513 122.693 22.513 121.997C22.513 121.269 22.1072 120.637 21.5107 120.312C21.2392 120.165 20.9288 120.081 20.598 120.081C20.2673 120.081 19.9568 120.165 19.6853 120.312C19.0889 120.637 18.6831 121.269 18.6831 121.997C18.6831 122.693 19.0557 123.303 19.6117 123.638H18.9936C18.4448 123.638 18 124.084 18 124.631V129.053H23.1975V124.631C23.1961 124.084 22.7513 123.638 22.2025 123.638ZM35.005 123.638H34.3869C34.9429 123.303 35.3155 122.693 35.3155 121.997C35.3155 121.269 34.9097 120.637 34.3132 120.312C34.0417 120.165 33.7312 120.081 33.4005 120.081C33.0698 120.081 32.7579 120.165 32.4878 120.312C31.8899 120.637 31.4855 121.269 31.4855 121.997C31.4855 122.693 31.8582 123.303 32.4142 123.638H31.796C31.2473 123.638 30.8025 124.084 30.8025 124.631V129.053H36V124.631C35.9986 124.084 35.5538 123.638 35.005 123.638Z" fill="white"/>
<path d="M156.627 72H158.488V62.4253H156.627V72ZM153.527 72H155.386V63.7921H153.527V72ZM159.728 72H161.589V61.0567H159.728V72ZM165.929 72H167.79V58.3213H165.929V72ZM162.83 72H164.689V59.6881H162.83V72ZM168.226 54.1426L167.964 54.1322L167.679 54.1217L167.552 54.1165L164.573 54L164.43 54.7304L166.131 54.7965L153 60.5176L153.283 61.1645L166.414 55.4433L165.303 56.7337L165.934 57.1249L167.88 54.8625L167.962 54.7669L168.148 54.5513L168.32 54.3513L168.226 54.1426Z" fill="white"/>
<g clip-path="url(#clip0)">
<path d="M69 20.1133C66.3054 20.1133 64.1133 22.3054 64.1133 25C64.1133 27.6946 66.3054 29.8867 69 29.8867C71.6946 29.8867 73.8867 27.6946 73.8867 25C73.8867 22.3054 71.6946 20.1133 69 20.1133ZM69 28.832C66.887 28.832 65.168 27.113 65.168 25C65.168 22.887 66.887 21.168 69 21.168C71.113 21.168 72.832 22.887 72.832 25C72.832 27.113 71.113 28.832 69 28.832Z" fill="white"/>
<path d="M69 18.8703C69.2912 18.8703 69.5273 18.6342 69.5273 18.3429V16.5273C69.5273 16.2361 69.2912 16 69 16C68.7088 16 68.4727 16.2361 68.4727 16.5273V18.3429C68.4727 18.6342 68.7088 18.8703 69 18.8703Z" fill="white"/>
<path d="M77.4727 24.4727H75.6572C75.3659 24.4727 75.1298 24.7088 75.1298 25C75.1298 25.2912 75.3659 25.5273 75.6572 25.5273H77.4727C77.764 25.5273 78.0001 25.2912 78.0001 25C78.0001 24.7088 77.764 24.4727 77.4727 24.4727Z" fill="white"/>
<path d="M69 31.1293C68.7088 31.1293 68.4727 31.3654 68.4727 31.6567V33.4723C68.4727 33.7635 68.7088 33.9996 69 33.9996C69.2912 33.9996 69.5273 33.7635 69.5273 33.4723V31.6567C69.5273 31.3654 69.2912 31.1293 69 31.1293V31.1293Z" fill="white"/>
<path d="M62.8703 25C62.8703 24.7088 62.6342 24.4727 62.3429 24.4727H60.5273C60.2361 24.4727 60 24.7088 60 25C60 25.2912 60.2361 25.5273 60.5273 25.5273H62.3429C62.6342 25.5273 62.8703 25.2912 62.8703 25Z" fill="white"/>
<path d="M73.7073 20.8206C73.8423 20.8206 73.9772 20.7692 74.0802 20.6661L75.3639 19.3823C75.5699 19.1764 75.5699 18.8425 75.3639 18.6366C75.158 18.4306 74.8241 18.4306 74.6182 18.6366L73.3344 19.9204C73.1284 20.1263 73.1284 20.4602 73.3344 20.6661C73.4374 20.7692 73.5724 20.8206 73.7073 20.8206V20.8206Z" fill="white"/>
<path d="M74.0802 29.3352C73.8742 29.1292 73.5403 29.1292 73.3344 29.3352C73.1284 29.5411 73.1284 29.875 73.3344 30.0809L74.6182 31.3647C74.7212 31.4677 74.8562 31.5192 74.9911 31.5192C75.126 31.5192 75.261 31.4677 75.3639 31.3647C75.5699 31.1587 75.5699 30.8249 75.3639 30.6189L74.0802 29.3352Z" fill="white"/>
<path d="M63.9199 29.3353L62.6361 30.6191C62.4301 30.8251 62.4301 31.1589 62.6361 31.3649C62.7391 31.4679 62.874 31.5194 63.009 31.5194C63.1439 31.5194 63.2789 31.4679 63.3818 31.3649L64.6656 30.0811C64.8716 29.8751 64.8716 29.5413 64.6656 29.3353C64.4598 29.1294 64.1258 29.1294 63.9199 29.3353V29.3353Z" fill="white"/>
<path d="M63.9199 20.6661C64.0229 20.7691 64.1579 20.8206 64.2928 20.8206C64.4277 20.8206 64.5627 20.7692 64.6657 20.6661C64.8716 20.4602 64.8716 20.1263 64.6657 19.9204L63.3819 18.6366C63.1759 18.4306 62.842 18.4306 62.6361 18.6366C62.4301 18.8425 62.4301 19.1764 62.6361 19.3823L63.9199 20.6661Z" fill="white"/>
<path d="M71.3525 19.3393C71.4187 19.3668 71.4872 19.3798 71.5547 19.3798C71.7614 19.3798 71.9576 19.2575 72.0418 19.0547L72.7385 17.3782C72.8503 17.1092 72.7229 16.8006 72.454 16.6888C72.1851 16.5771 71.8764 16.7044 71.7646 16.9734L71.0679 18.6499C70.9562 18.9189 71.0836 19.2276 71.3525 19.3393Z" fill="white"/>
<path d="M77.0264 27.764L75.3498 27.0673C75.0809 26.9556 74.7723 27.0829 74.6605 27.3519C74.5487 27.6209 74.6762 27.9295 74.9451 28.0413L76.6216 28.738C76.6878 28.7655 76.7563 28.7785 76.8238 28.7785C77.0305 28.7785 77.2267 28.6562 77.311 28.4534C77.4227 28.1844 77.2953 27.8758 77.0264 27.764V27.764Z" fill="white"/>
<path d="M66.6475 30.6598C66.3785 30.5481 66.0699 30.6754 65.9582 30.9444L65.2614 32.6209C65.1497 32.8899 65.2771 33.1985 65.546 33.3103C65.6122 33.3378 65.6807 33.3508 65.7482 33.3508C65.9549 33.3508 66.1511 33.2285 66.2354 33.0257L66.9321 31.3491C67.0438 31.0802 66.9164 30.7716 66.6475 30.6598V30.6598Z" fill="white"/>
<path d="M60.9736 22.2352L62.6502 22.9319C62.7164 22.9594 62.7849 22.9724 62.8523 22.9724C63.059 22.9724 63.2552 22.8501 63.3395 22.6473C63.4513 22.3783 63.3239 22.0697 63.0549 21.9579L61.3784 21.2612C61.1094 21.1496 60.8008 21.2769 60.689 21.5458C60.5773 21.8148 60.7047 22.1234 60.9736 22.2352V22.2352Z" fill="white"/>
<path d="M74.6656 22.6616C74.7496 22.865 74.9462 22.9878 75.1533 22.9878C75.2203 22.9878 75.2885 22.975 75.3543 22.9478L77.0325 22.255C77.3017 22.1438 77.4299 21.8355 77.3187 21.5663C77.2076 21.2971 76.8992 21.169 76.63 21.2801L74.9519 21.9729C74.6827 22.0841 74.5545 22.3924 74.6656 22.6616Z" fill="white"/>
<path d="M72.0276 30.9512C71.9165 30.6819 71.6081 30.5539 71.3389 30.665C71.0697 30.7761 70.9415 31.0844 71.0527 31.3536L71.7455 33.0318C71.8295 33.2352 72.026 33.3581 72.2331 33.3581C72.3002 33.3581 72.3684 33.3452 72.4342 33.318C72.7034 33.2069 72.8315 32.8986 72.7204 32.6294L72.0276 30.9512Z" fill="white"/>
<path d="M63.334 27.3395C63.2229 27.0703 62.9146 26.9421 62.6453 27.0533L60.9671 27.7461C60.698 27.8573 60.5698 28.1656 60.6809 28.4348C60.7649 28.6382 60.9614 28.7611 61.1686 28.7611C61.2356 28.7611 61.3038 28.7482 61.3696 28.721L63.0478 28.0282C63.317 27.917 63.4451 27.6087 63.334 27.3395V27.3395Z" fill="white"/>
<path d="M65.9721 19.0485C66.0561 19.2519 66.2526 19.3748 66.4598 19.3748C66.5268 19.3748 66.595 19.3619 66.6608 19.3347C66.93 19.2236 67.0582 18.9153 66.947 18.646L66.2542 16.9679C66.143 16.6986 65.8347 16.5705 65.5655 16.6816C65.2963 16.7928 65.1682 17.1011 65.2793 17.3703L65.9721 19.0485Z" fill="white"/>
<circle cx="68.8743" cy="24.6123" r="4.5" fill="white"/>
</g>
<path d="M78.999 159.166C78.9171 155.076 73.9257 152.061 70 155.494C66.0769 152.064 61.083 155.074 61.001 159.166C60.971 160.666 61.6064 162.109 62.8384 163.341C62.8418 163.344 65.3393 165.828 69.6279 170.093C69.8337 170.298 70.1663 170.298 70.3721 170.093L77.1616 163.341C78.3936 162.109 79.029 160.666 78.999 159.166ZM70 168.975L64.2071 163.214H66.0605C66.2459 163.214 66.4176 163.117 66.5129 162.958L66.9179 162.283L68.4293 164.658C68.6516 165.007 69.1735 164.975 69.3512 164.6L71.437 160.198L72.9121 162.937C73.0041 163.107 73.1825 163.214 73.3766 163.214H75.7929L70 168.975ZM76.8135 162.159H73.6918L71.8715 158.779C71.6674 158.4 71.1156 158.412 70.9301 158.804L68.8066 163.285L67.3498 160.997C67.1374 160.663 66.6522 160.676 66.4523 161.009L65.7619 162.159H63.1866C62.4245 161.243 62.0353 160.225 62.056 159.187C62.1219 155.898 66.3144 153.277 69.6269 156.589C69.8328 156.795 70.1671 156.795 70.3731 156.589C74.6025 152.361 80.4169 157.827 76.8135 162.159Z" fill="white"/>
<path d="M169.1 112.611H163.916C163.916 112.611 163.916 112.581 163.916 112.564V110.914C163.916 110.417 163.513 110.015 163.017 110.015H158.979C158.482 110.015 158.08 110.417 158.08 110.914V112.568C158.08 112.568 158.08 112.598 158.08 112.615H152.9C152.403 112.615 152 113.018 152 113.515V125.086C152 125.583 152.403 125.985 152.9 125.985H169.1C169.597 125.985 170 125.583 170 125.086V113.511C170 113.014 169.597 112.611 169.1 112.611ZM158.932 112.56L158.941 110.906C158.941 110.88 158.962 110.859 158.988 110.859H163.034C163.06 110.859 163.081 110.88 163.081 110.906V112.56C163.081 112.586 163.06 112.607 163.034 112.607H158.979C158.953 112.607 158.932 112.586 158.932 112.56ZM152.9 113.464H169.1C168.7 114.223 166.615 117.812 162.735 118.674V118.179C162.735 117.689 162.343 117.289 161.853 117.28H160.147C159.65 117.28 159.248 117.682 159.248 118.179V118.682C155.372 117.829 153.279 114.227 152.883 113.472L152.9 113.464ZM161.887 118.179V120.66C161.887 120.686 161.866 120.707 161.84 120.707H160.147C160.121 120.707 160.1 120.686 160.1 120.66V118.179C160.1 118.153 160.121 118.132 160.147 118.132H161.853C161.874 118.138 161.888 118.157 161.887 118.179ZM169.135 125.09C169.135 125.116 169.114 125.137 169.088 125.137H152.9C152.874 125.137 152.853 125.116 152.853 125.09V115.058C153.901 116.58 155.991 118.895 159.248 119.552V120.656C159.248 121.153 159.65 121.556 160.147 121.556H161.853C162.35 121.556 162.752 121.153 162.752 120.656V119.552C166.009 118.904 168.099 116.568 169.147 115.058L169.135 125.09Z" fill="white"/>
<path d="M127.334 162.668C127.334 164.509 128.826 166.001 130.667 166.001C132.508 166.001 134 164.509 134 162.668C134 160.827 132.508 159.335 130.667 159.335C128.827 159.337 127.336 160.828 127.334 162.668V162.668ZM130.667 160.001C132.14 160.001 133.333 161.195 133.333 162.668C133.333 164.141 132.14 165.334 130.667 165.334C129.194 165.334 128 164.141 128 162.668C128.002 161.196 129.195 160.003 130.667 160.001Z" fill="white" stroke="white" stroke-width="0.2"/>
<path d="M128.762 169.334H132.572V170.001H128.762V169.334Z" fill="white" stroke="white" stroke-width="0.2"/>
<path d="M127.334 168.001H134V168.668H127.334V168.001Z" fill="white" stroke="white" stroke-width="0.2"/>
<path d="M120 168.001H120.667V168.668H120V168.001Z" fill="white" stroke="white" stroke-width="0.2"/>
<path d="M120.034 166.125C121.774 163.094 122.866 159.734 123.241 156.259L126.341 159.341C126.403 159.402 126.486 159.437 126.574 159.438C126.592 159.438 126.61 159.436 126.628 159.433C126.733 159.416 126.824 159.349 126.872 159.253C127.5 157.999 127.254 156.483 126.261 155.492L125.989 155.22H128.333C128.518 155.22 128.667 155.071 128.667 154.887C128.667 154.85 128.661 154.815 128.65 154.781C128.207 153.449 126.961 152.552 125.558 152.553H125.125L126.79 150.879C126.92 150.748 126.919 150.537 126.789 150.407C126.763 150.382 126.734 150.361 126.703 150.345C125.448 149.716 123.931 149.962 122.94 150.956L122.621 151.274C122.517 151.379 122.421 151.49 122.332 151.607C122.245 151.49 122.149 151.379 122.046 151.274L121.728 150.956C120.737 149.963 119.221 149.717 117.967 150.345C117.802 150.428 117.735 150.628 117.818 150.792C117.834 150.824 117.855 150.853 117.88 150.879L119.546 152.553H119.109C117.706 152.552 116.46 153.449 116.017 154.781C115.959 154.955 116.053 155.144 116.228 155.202C116.262 155.214 116.298 155.22 116.334 155.22H118.676L118.403 155.492C117.41 156.483 117.164 157.999 117.793 159.253C117.84 159.349 117.931 159.416 118.037 159.433C118.055 159.436 118.073 159.438 118.091 159.438C118.179 159.438 118.264 159.403 118.326 159.341L121.213 156.471C120.855 159.665 119.652 162.706 117.728 165.28C117.28 165.162 116.825 165.07 116.367 165.003L116.159 164.982L116.092 165.645L116.286 165.664C116.62 165.712 116.951 165.78 117.28 165.856C117.214 165.939 117.147 166.024 117.078 166.107L117.589 166.534C120.151 163.489 121.678 159.708 121.95 155.738L122.334 155.356L122.621 155.642C122.27 159.888 120.813 163.968 118.394 167.475L118.94 167.857C119.202 167.483 119.452 167.095 119.694 166.699C121.254 167.445 122.63 168.524 123.728 169.859L124.243 169.437C123.594 168.648 122.851 167.942 122.03 167.334H136V166.668H121.042C120.715 166.47 120.378 166.292 120.034 166.125V166.125ZM126.451 158.51L122.93 155.009C123.83 154.74 124.806 154.984 125.474 155.645L125.793 155.964C126.459 156.629 126.712 157.605 126.451 158.51ZM127.825 154.553H125.065C124.422 154.247 123.697 154.16 123 154.307C123.485 153.625 124.27 153.22 125.107 153.22H125.557C126.499 153.218 127.368 153.729 127.825 154.553ZM123.092 151.745L123.41 151.427C124.076 150.76 125.052 150.508 125.958 150.768L123.982 152.756C123.341 152.992 122.79 153.424 122.408 153.991C122.253 153.175 122.509 152.336 123.093 151.745H123.092ZM121.255 151.427L121.574 151.745C121.722 151.897 121.851 152.067 121.957 152.25C121.806 152.601 121.72 152.977 121.702 153.358C121.403 153.097 121.058 152.893 120.686 152.756L118.709 150.768C119.615 150.508 120.59 150.76 121.256 151.427H121.255ZM119.108 153.22H119.558C120.395 153.219 121.181 153.624 121.667 154.306C120.971 154.161 120.246 154.247 119.603 154.553H116.842C117.299 153.729 118.167 153.219 119.109 153.22H119.108ZM118.216 158.51C117.955 157.605 118.208 156.629 118.875 155.964L119.193 155.645C119.673 155.167 120.323 154.899 121 154.901C121.25 154.901 121.499 154.937 121.739 155.007L118.216 158.51Z" fill="white" stroke="white" stroke-width="0.2"/>
<path d="M120.71 30.9032H119.29C118.899 30.9032 118.581 30.5849 118.581 30.1935C118.581 29.8022 118.899 29.4839 119.29 29.4839H120.71C121.101 29.4839 121.419 29.8022 121.419 30.1935H122.129C122.129 29.4108 121.492 28.7742 120.71 28.7742H120.355V28.0645H119.645V28.7742H119.29C118.508 28.7742 117.871 29.4108 117.871 30.1935C117.871 30.9763 118.508 31.6129 119.29 31.6129H120.71C121.101 31.6129 121.419 31.9312 121.419 32.3226C121.419 32.714 121.101 33.0323 120.71 33.0323H119.29C118.899 33.0323 118.581 32.714 118.581 32.3226H117.871C117.871 33.1054 118.508 33.7419 119.29 33.7419H119.645V34.4516H120.355V33.7419H120.71C121.492 33.7419 122.129 33.1054 122.129 32.3226C122.129 31.5398 121.492 30.9032 120.71 30.9032Z" fill="white"/>
<path d="M124.968 16.7097C122.98 16.7097 121.118 17.7018 119.998 19.3252C118.909 17.7472 117.09 16.7097 115.032 16.7097C111.706 16.7097 109 19.4157 109 22.7419C109 25.8957 111.434 28.4878 114.522 28.7483C114.17 29.5137 113.968 30.3617 113.968 31.258C113.968 34.5843 116.674 37.2903 120 37.2903C121.26 37.2903 122.471 36.901 123.501 36.1644L123.089 35.5871C122.179 36.2371 121.111 36.5806 120 36.5806C117.065 36.5806 114.677 34.1929 114.677 31.258C114.677 28.3232 117.065 25.9355 120 25.9355C122.935 25.9355 125.323 28.3232 125.323 31.258C125.323 32.5209 124.869 33.7469 124.046 34.7103L124.586 35.1712C125.518 34.0794 126.032 32.6895 126.032 31.258C126.032 30.3628 125.831 29.5158 125.48 28.7511C126.554 28.6603 127.579 28.2845 128.469 27.6483L128.056 27.0709C127.185 27.694 126.167 28.0318 125.105 28.0592C124.123 26.4979 122.45 25.4167 120.515 25.252C120.874 24.4678 121.065 23.6113 121.065 22.7419C121.065 21.7572 120.823 20.83 120.402 20.0082C121.362 18.4097 123.102 17.4193 124.968 17.4193C127.903 17.4193 130.29 19.807 130.29 22.7419C130.29 24.0048 129.837 25.2308 129.014 26.1941L129.554 26.6551C130.486 25.5632 131 24.1733 131 22.7419C131 19.4157 128.294 16.7097 124.968 16.7097ZM119.73 25.2396C117.694 25.3301 115.919 26.4315 114.896 28.0578C112.024 27.9843 109.71 25.6307 109.71 22.7419C109.71 19.807 112.097 17.4193 115.032 17.4193C117.967 17.4193 120.355 19.807 120.355 22.7419C120.355 23.6155 120.138 24.4739 119.73 25.2396Z" fill="white"/>
<path d="M124.968 25.2258C124.381 25.2258 123.903 24.7482 123.903 24.1613V23.8065H124.613V23.0968H123.903V22.3871H124.613V21.6774H123.903V21.3226C123.903 20.7357 124.381 20.2581 124.968 20.2581C125.555 20.2581 126.032 20.7357 126.032 21.3226H126.742C126.742 20.3443 125.946 19.5484 124.968 19.5484C123.989 19.5484 123.194 20.3443 123.194 21.3226V21.6774H122.484V22.3871H123.194V23.0968H122.484V23.8065H123.194V24.1613C123.194 25.1396 123.989 25.9355 124.968 25.9355C125.946 25.9355 126.742 25.1396 126.742 24.1613H126.032C126.032 24.7482 125.555 25.2258 124.968 25.2258Z" fill="white"/>
<path d="M115.387 22.1635L117.431 19.7794L116.892 19.3174L115.032 21.4869L113.173 19.3174L112.634 19.7794L114.677 22.1635V23.0968H113.968V23.8065H114.677V24.5161H113.968V25.2258H114.677V25.5807H115.387V25.2258H116.097V24.5161H115.387V23.8065H116.097V23.0968H115.387V22.1635Z" fill="white"/>
<g clip-path="url(#clip1)">
<path d="M33.4099 60.1948C32.6613 59.8205 31.2577 59.8162 31.1983 59.8162C31.0203 59.8162 30.876 59.9605 30.876 60.1384C30.876 60.3164 31.0203 60.4607 31.1983 60.4607C31.5605 60.4607 32.6121 60.5165 33.1216 60.7713C33.1679 60.7944 33.2171 60.8053 33.2655 60.8053C33.3837 60.8053 33.4975 60.74 33.554 60.6272C33.6336 60.468 33.5691 60.2744 33.4099 60.1948Z" fill="white" stroke="white" stroke-width="0.2"/>
<path d="M35.0165 64.783L33.6856 64.4027C33.6281 64.3863 33.588 64.3331 33.588 64.2733V63.8291C33.6963 63.754 33.7996 63.6701 33.8961 63.5764C34.3641 63.1223 34.6217 62.5132 34.6217 61.8613V61.2482L34.7504 60.9909C34.8917 60.7084 34.9663 60.3921 34.9663 60.0763V58.4155C34.9663 58.2376 34.822 58.0933 34.644 58.0933H31.5429C30.4152 58.0933 29.4977 59.0107 29.4977 60.1384V60.1576C29.4977 60.4202 29.5598 60.6832 29.6772 60.9181L29.8423 61.2482V61.7746C29.8423 62.6088 30.2534 63.3572 30.876 63.8076L30.8761 64.2732C30.8761 64.345 30.8761 64.3748 30.61 64.4508L29.9606 64.6364L28.0819 63.9533C28.0887 63.8646 28.0588 63.7745 27.9941 63.7065L27.3938 63.0758V62.0171C27.4573 61.9648 27.5198 61.9111 27.5804 61.8543C28.3378 61.1444 28.7721 60.1422 28.7721 59.1047V58.2591C29.0008 57.7615 29.1167 57.2349 29.1167 56.6926V53.2469C29.1167 53.069 28.9724 52.9247 28.7944 52.9247H23.9703C22.2726 52.9247 20.8915 54.3059 20.8915 56.0035V56.6927C20.8915 57.235 21.0074 57.7616 21.2361 58.2592V58.9867C21.2361 60.1914 21.7717 61.2767 22.6144 61.9922V63.0759L22.0141 63.7066C21.9494 63.7745 21.9195 63.8646 21.9262 63.9533L19.9434 64.6743C19.7998 64.7265 19.6662 64.7973 19.545 64.883L19.2337 64.7273C20.1605 64.3239 20.4541 63.7565 20.4682 63.7283C20.5136 63.6376 20.5136 63.5308 20.4682 63.4401C20.2359 62.9754 20.2077 62.1237 20.1851 61.4394C20.1776 61.2116 20.1705 60.9964 20.1569 60.8047C20.047 59.259 18.8719 58.0933 17.4234 58.0933C15.9749 58.0933 14.7998 59.2589 14.6899 60.8047C14.6763 60.9964 14.6692 61.2116 14.6617 61.4395C14.6391 62.1238 14.6109 62.9754 14.3786 63.44C14.3332 63.5307 14.3332 63.6376 14.3786 63.7283C14.3927 63.7565 14.6857 64.3227 15.6144 64.7266L14.7495 65.159C14.2872 65.3903 14 65.855 14 66.3719V68.7528C14 68.9307 14.1443 69.075 14.3223 69.075C14.5002 69.075 14.6445 68.9307 14.6445 68.7528V66.3719C14.6445 66.1007 14.7952 65.8569 15.0378 65.7356L16.1147 65.1971L16.4893 65.5531C16.7512 65.802 17.0873 65.9264 17.4234 65.9264C17.7595 65.9264 18.0957 65.8019 18.3575 65.5531L18.7321 65.1972L19.0832 65.3727C18.9179 65.6373 18.824 65.9475 18.824 66.2725V68.7529C18.824 68.9308 18.9683 69.0751 19.1463 69.0751C19.3243 69.0751 19.4685 68.9308 19.4685 68.7529V66.2725C19.4685 65.8301 19.7479 65.4312 20.1637 65.28L22.2542 64.5199L23.1245 65.8253C23.2357 65.9922 23.414 66.0992 23.6136 66.119C23.6358 66.1212 23.658 66.1223 23.68 66.1223C23.8561 66.1223 24.0248 66.053 24.1509 65.9269L24.6818 65.396V68.7529C24.6818 68.9309 24.8261 69.0752 25.004 69.0752C25.182 69.0752 25.3263 68.9309 25.3263 68.7529V65.396L25.8572 65.9269C25.9833 66.053 26.1519 66.1223 26.328 66.1223C26.3501 66.1223 26.3723 66.1212 26.3945 66.119C26.5941 66.0993 26.7724 65.9922 26.8836 65.8254L27.7539 64.52L29.8444 65.2801C30.2601 65.4313 30.5395 65.8302 30.5395 66.2726V68.7529C30.5395 68.9309 30.6838 69.0752 30.8618 69.0752C31.0398 69.0752 31.1841 68.9309 31.1841 68.7529V66.2726C31.1841 65.8245 31.006 65.4043 30.7074 65.0935L30.787 65.0707C30.8673 65.0478 30.9769 65.0164 31.0869 64.9625L31.9097 65.7853V68.7529C31.9097 68.9309 32.054 69.0752 32.232 69.0752C32.41 69.0752 32.5543 68.9309 32.5543 68.7529V65.7853L33.3713 64.9682C33.4148 64.9903 33.4604 65.0089 33.5085 65.0226L34.8395 65.4029C35.1432 65.4897 35.3555 65.771 35.3555 66.087V68.7529C35.3555 68.9309 35.4998 69.0752 35.6777 69.0752C35.8557 69.0752 36 68.9309 36 68.7529V66.087C36 65.4847 35.5956 64.9484 35.0165 64.783ZM16.0674 64.2138C15.4646 63.9969 15.1623 63.7077 15.0332 63.5498C15.1212 63.3197 15.1782 63.0562 15.2169 62.7781C15.3946 63.2042 15.6922 63.568 16.0674 63.8275V64.2138ZM17.9136 65.086C17.6387 65.3471 17.2081 65.3471 16.9333 65.0859L16.6336 64.8011C16.6842 64.7064 16.712 64.5989 16.712 64.4864V64.1429C16.9368 64.2132 17.1758 64.2511 17.4235 64.2511C17.6709 64.2511 17.9097 64.213 18.1349 64.1431L18.1349 64.4864C18.1349 64.5989 18.1626 64.7064 18.2133 64.8012L17.9136 65.086ZM17.4236 63.6065C16.4613 63.6065 15.6784 62.8236 15.6784 61.8614C15.6784 61.6834 15.5341 61.5391 15.3561 61.5391C15.3381 61.5391 15.3205 61.5409 15.3032 61.5438C15.3042 61.5161 15.3051 61.4883 15.306 61.4609C15.3132 61.2393 15.3201 61.03 15.3329 60.8505C15.3741 60.2714 15.6054 59.7378 15.9844 59.3479C16.3668 58.9545 16.8779 58.7379 17.4235 58.7379C17.9691 58.7379 18.4801 58.9545 18.8626 59.3479C19.2415 59.7378 19.4729 60.2714 19.5141 60.8505C19.5268 61.03 19.5338 61.2392 19.5411 61.4608C19.5417 61.4798 19.5424 61.4991 19.543 61.5183C19.1924 60.9781 18.6509 60.5799 17.9512 60.3551C17.3049 60.1475 16.7489 60.1603 16.7255 60.1609C16.6411 60.1633 16.561 60.1986 16.5024 60.2594L15.921 60.8624C15.7974 60.9905 15.8011 61.1945 15.9293 61.3181C16.0574 61.4416 16.2614 61.4379 16.3849 61.3098L16.8688 60.808C17.2854 60.8284 18.6259 60.9843 19.1473 62.1323C19.0161 62.9782 18.289 63.6065 17.4236 63.6065ZM18.7794 64.2148L18.7794 63.8305C19.1543 63.5724 19.4524 63.2093 19.6302 62.7799C19.6689 63.0574 19.7259 63.3203 19.8137 63.5499C19.6854 63.7063 19.3816 63.998 18.7794 64.2148ZM21.8806 58.9867V58.1871C21.8806 58.1386 21.8696 58.0907 21.8485 58.047C21.6412 57.6176 21.536 57.1619 21.536 56.6927V56.0036C21.536 54.6613 22.6281 53.5693 23.9703 53.5693H28.4721V56.6927C28.4721 57.162 28.367 57.6176 28.1596 58.047C28.1385 58.0907 28.1276 58.1386 28.1276 58.1871V59.1047C28.1276 59.9775 27.7767 60.787 27.1397 61.3841C27.0601 61.4586 26.9776 61.5285 26.8923 61.5936C26.8904 61.5949 26.8886 61.5963 26.8867 61.5976C26.2899 62.0507 25.5589 62.2709 24.7956 62.2215C23.161 62.1157 21.8806 60.6948 21.8806 58.9867ZM23.6951 65.4711C23.6929 65.4734 23.6877 65.4786 23.6772 65.4775C23.6667 65.4765 23.6626 65.4703 23.6608 65.4677L22.6585 63.9643L22.9811 63.6254L24.5015 64.6647L23.6951 65.4711ZM25.0041 64.2275L23.2589 63.0346V62.433C23.7105 62.6771 24.2161 62.8298 24.7538 62.8646C24.8388 62.8701 24.9232 62.8728 25.0074 62.8728C25.6236 62.8728 26.2167 62.7255 26.7493 62.4459V63.0346L25.0041 64.2275ZM26.3474 65.4678C26.3456 65.4704 26.3415 65.4766 26.331 65.4776C26.3205 65.4789 26.3153 65.4734 26.313 65.4712L25.5066 64.6648L27.0271 63.6255L27.3497 63.9644L26.3474 65.4678ZM32.232 65.1959L31.5007 64.4646C31.5134 64.4066 31.5206 64.3431 31.5206 64.2732L31.5206 64.1372C31.7235 64.2038 31.9374 64.2433 32.1587 64.2499C32.1836 64.2507 32.2082 64.251 32.2329 64.251C32.4775 64.251 32.7162 64.2141 32.9435 64.1436V64.2733C32.9435 64.3376 32.9515 64.4006 32.9667 64.4611L32.232 65.1959ZM33.4473 63.1139C33.1057 63.4453 32.6545 63.6204 32.1781 63.6057C31.2455 63.5777 30.4868 62.7563 30.4868 61.7747V61.1722C30.4868 61.1221 30.4752 61.0728 30.4528 61.0281L30.2537 60.6299C30.1808 60.484 30.1422 60.3208 30.1422 60.1577V60.1384C30.1422 59.3661 30.7706 58.7378 31.5429 58.7378H34.3218V60.0763C34.3218 60.2926 34.2706 60.5092 34.1739 60.7027L34.0112 61.0281C33.9888 61.0728 33.9772 61.1221 33.9772 61.1722V61.8613C33.9772 62.3374 33.789 62.7822 33.4473 63.1139Z" fill="white" stroke="white" stroke-width="0.2"/>
<path d="M34.2993 66.3631C34.1214 66.3631 33.9771 66.5074 33.9771 66.6854V68.7528C33.9771 68.9308 34.1214 69.0751 34.2993 69.0751C34.4773 69.0751 34.6216 68.9308 34.6216 68.7528V66.6854C34.6216 66.5074 34.4773 66.3631 34.2993 66.3631Z" fill="white"/>
<path d="M15.7004 66.7891C15.5225 66.7891 15.3782 66.9334 15.3782 67.1113V68.7528C15.3782 68.9308 15.5225 69.075 15.7004 69.075C15.8784 69.075 16.0227 68.9308 16.0227 68.7528V67.1113C16.0227 66.9334 15.8784 66.7891 15.7004 66.7891Z" fill="white"/>
<path d="M27.644 56.8095C26.4252 55.5906 23.875 55.8237 22.8351 55.9804C22.5075 56.0298 22.2698 56.307 22.2698 56.6395V57.3819C22.2698 57.5599 22.4141 57.7042 22.5921 57.7042C22.77 57.7042 22.9143 57.5599 22.9143 57.3819V56.6395C22.9143 56.6285 22.9216 56.6191 22.9312 56.6177C23.3466 56.5551 24.1708 56.4585 25.0248 56.5154C26.0298 56.5823 26.7577 56.8346 27.1883 57.2652C27.3141 57.3911 27.5182 57.3911 27.644 57.2652C27.7699 57.1394 27.7699 56.9353 27.644 56.8095Z" fill="white" stroke="white" stroke-width="0.2"/>
<path d="M21.2137 67.0522C21.0358 67.0522 20.8915 67.1965 20.8915 67.3745V68.7528C20.8915 68.9308 21.0358 69.0751 21.2137 69.0751C21.3917 69.0751 21.536 68.9308 21.536 68.7528V67.3745C21.536 67.1966 21.3917 67.0522 21.2137 67.0522Z" fill="white"/>
<path d="M28.7945 67.0522C28.6165 67.0522 28.4722 67.1965 28.4722 67.3745V68.7528C28.4722 68.9308 28.6165 69.0751 28.7945 69.0751C28.9725 69.0751 29.1168 68.9308 29.1168 68.7528V67.3745C29.1168 67.1966 28.9725 67.0522 28.7945 67.0522Z" fill="white"/>
</g>
<defs>
<linearGradient id="paint0_linear" x1="1.62587" y1="167.078" x2="129.603" y2="39.6081" gradientUnits="userSpaceOnUse">
<stop offset="0.0105" stop-color="#E400E8"/>
<stop offset="1" stop-color="#44097C"/>
</linearGradient>
<clipPath id="clip0">
<rect width="18" height="18" fill="white" transform="translate(60 16)"/>
</clipPath>
<clipPath id="clip1">
<rect width="22" height="22" fill="white" transform="translate(14 50)"/>
</clipPath>
</defs>
</svg>
