<svg width="24" height="24" viewBox="0 0 24 24" fill="none" xmlns="http://www.w3.org/2000/svg">
<g clip-path="url(#clip0)">
<path d="M21.7285 7.96734C21.7285 6.75575 20.743 5.77007 19.5313 5.77007H18.7226C19.977 4.95559 20.883 3.81622 21.3928 2.3912L20.0135 1.89795C19.6783 2.83511 19.1347 3.60645 18.3891 4.20852C18.3909 3.71871 18.2525 3.23829 17.9818 2.81612C17.2161 1.62192 15.6214 1.27345 14.4271 2.03917C13.5653 2.59192 12.8415 3.73325 12.3535 4.6783C11.8655 3.73325 11.1417 2.59192 10.28 2.03917C9.08566 1.27333 7.49092 1.62192 6.7252 2.81612C6.45649 3.23508 6.31836 3.71173 6.3179 4.19788C5.63332 3.6457 5.0523 2.9008 4.69353 1.89795L3.31429 2.3912C3.82401 3.81599 4.73003 4.95559 5.98442 5.77007H5.17578C3.96408 5.77007 2.97852 6.75575 2.97852 7.96734V10.7505H4.44336V18.1846C4.44336 19.3962 5.42893 20.3819 6.64063 20.3819H18.0664C19.2781 20.3819 20.2637 19.3962 20.2637 18.1846V10.7505H21.7285V7.96734ZM15.2179 3.27228C15.7323 2.94246 16.419 3.0926 16.7487 3.6069C16.9085 3.85604 16.9618 4.15244 16.8987 4.44175C16.8355 4.73083 16.6634 4.97802 16.4141 5.13778C16.166 5.29708 15.8627 5.41622 15.5339 5.50445C14.9921 5.62473 14.4731 5.68916 14.021 5.7212C13.8362 5.73036 13.6563 5.73436 13.4863 5.73436C13.4805 5.73436 13.4746 5.73436 13.4687 5.73425C13.8969 4.84367 14.5587 3.69502 15.2179 3.27228ZM8.2927 5.13778C8.04367 4.97802 7.87155 4.73083 7.80838 4.44175C7.7451 4.15244 7.79854 3.85604 7.9583 3.6069C8.16956 3.27731 8.52753 3.0973 8.89271 3.0973C9.09744 3.0973 9.30435 3.15383 9.48918 3.27228C10.1549 3.69914 10.8119 4.83829 11.2405 5.73425C11.2338 5.73425 11.2273 5.73425 11.2208 5.73425C11.0614 5.73425 10.8931 5.73082 10.7203 5.7228C10.2414 5.68973 9.6843 5.62004 9.10214 5.48488C8.8007 5.39871 8.52307 5.28541 8.2927 5.13778ZM4.44336 7.96734C4.44336 7.56359 4.77192 7.23491 5.17578 7.23491H11.6211V9.2857H4.44336V7.96734ZM5.9082 18.1846V10.7505H11.6211V18.9171H6.64063C6.23676 18.9171 5.9082 18.5885 5.9082 18.1846ZM18.7988 18.1846C18.7988 18.5885 18.4703 18.9171 18.0664 18.9171H13.0859V10.7505H18.7988V18.1846ZM20.2637 9.2857H13.0859V7.23491H19.5313C19.9351 7.23491 20.2637 7.56359 20.2637 7.96734V9.2857Z" fill="black"/>
</g>
<defs>
<clipPath id="clip0">
<rect x="2.36328" y="1" width="20" height="20" fill="white"/>
</clipPath>
</defs>
</svg>
