<svg width="22" height="22" viewBox="0 0 22 22" fill="none" xmlns="http://www.w3.org/2000/svg">
<g clip-path="url(#clip0)">
<path d="M12.625 15.2812H7.85938V16.8438H12.625V15.2812Z" fill="#A603BE"/>
<path d="M16.9219 12.1562H7.85938V13.7188H16.9219V12.1562Z" fill="#A603BE"/>
<path d="M18.4844 5.125H17.7031V4.34375C17.7031 3.05141 16.6517 2 15.3594 2H3.17188C1.87953 2 0.828125 3.05141 0.828125 4.34375V16.5312C0.828125 17.8236 1.87953 18.875 3.17188 18.875H3.95312V19.6562C3.95312 20.9486 5.00453 22 6.29688 22H15.2745L20.8281 16.4197V7.46875C20.8281 6.17641 19.7767 5.125 18.4844 5.125ZM3.95312 7.46875V17.3125H3.17188C2.74109 17.3125 2.39062 16.962 2.39062 16.5312V4.34375C2.39062 3.91297 2.74109 3.5625 3.17188 3.5625H15.3594C15.7902 3.5625 16.1406 3.91297 16.1406 4.34375V5.125H6.29688C5.00453 5.125 3.95312 6.17641 3.95312 7.46875ZM15.7457 19.3116V17.6597C15.7457 17.2289 16.0961 16.8785 16.5269 16.8785H18.1671L15.7457 19.3116ZM19.2656 15.316H16.5269C15.2346 15.316 14.1832 16.3674 14.1832 17.6597V20.4375H6.29688C5.86609 20.4375 5.51562 20.087 5.51562 19.6562V7.46875C5.51562 7.03797 5.86609 6.6875 6.29688 6.6875H18.4844C18.9152 6.6875 19.2656 7.03797 19.2656 7.46875V15.316Z" fill="#A603BE"/>
<path d="M16.9219 9.03125H7.85938V10.5938H16.9219V9.03125Z" fill="#A603BE"/>
</g>
<defs>
<clipPath id="clip0">
<rect x="0.828125" y="2" width="20" height="20" fill="white"/>
</clipPath>
</defs>
</svg>
