<svg width="24" height="24" viewBox="0 0 24 24" fill="none" xmlns="http://www.w3.org/2000/svg">
<path d="M18.7309 14.4926C17.8475 13.7163 16.5207 12.8371 14.713 12.3683C15.8707 11.5269 16.625 10.1625 16.625 8.625C16.625 6.0748 14.5502 4 12 4C9.4498 4 7.375 6.0748 7.375 8.625C7.375 10.1625 8.1293 11.5269 9.28711 12.3683C7.4793 12.8371 6.15254 13.7163 5.26914 14.4926C4.4627 15.2012 4 16.2262 4 17.3047V20H20V17.3047C20 16.2262 19.5373 15.2012 18.7309 14.4926ZM8.625 8.625C8.625 6.76406 10.1391 5.25 12 5.25C13.8609 5.25 15.375 6.76406 15.375 8.625C15.375 10.4859 13.8609 12 12 12C10.1391 12 8.625 10.4859 8.625 8.625ZM18.75 18.75H5.25V17.3047C5.25 16.5857 5.55771 15.9029 6.09424 15.4315C7.21074 14.4506 9.1416 13.2812 12 13.2812C14.8584 13.2812 16.7893 14.4506 17.9058 15.4315C18.4423 15.9029 18.75 16.5857 18.75 17.3047V18.75Z" fill="#A603BE" stroke="#A603BE" stroke-width="0.5"/>
</svg>
