<svg width="22" height="22" viewBox="0 0 22 22" fill="none" xmlns="http://www.w3.org/2000/svg">
<g clip-path="url(#clip0)">
<path d="M14.7676 9.59375C14.7676 9.16227 14.4178 8.8125 13.9863 8.8125H5.93945C5.50797 8.8125 5.1582 9.16227 5.1582 9.59375C5.1582 10.0252 5.50797 10.375 5.93945 10.375H13.9863C14.4178 10.375 14.7676 10.0252 14.7676 9.59375Z" fill="#A603BE"/>
<path d="M5.93945 11.9375C5.50797 11.9375 5.1582 12.2873 5.1582 12.7188C5.1582 13.1502 5.50797 13.5 5.93945 13.5H10.8266C11.2581 13.5 11.6078 13.1502 11.6078 12.7188C11.6078 12.2873 11.2581 11.9375 10.8266 11.9375H5.93945Z" fill="#A603BE"/>
<path d="M7.77594 19.4375H5.16309C4.30152 19.4375 3.60059 18.7366 3.60059 17.875V4.125C3.60059 3.26344 4.30152 2.5625 5.16309 2.5625H14.7681C15.6297 2.5625 16.3306 3.26344 16.3306 4.125V8.92969C16.3306 9.36117 16.6804 9.71094 17.1119 9.71094C17.5434 9.71094 17.8931 9.36117 17.8931 8.92969V4.125C17.8931 2.40188 16.4913 1 14.7681 1H5.16309C3.43996 1 2.03809 2.40188 2.03809 4.125V17.875C2.03809 19.5981 3.43996 21 5.16309 21H7.77594C8.20742 21 8.55719 20.6502 8.55719 20.2188C8.55719 19.7873 8.20742 19.4375 7.77594 19.4375Z" fill="#A603BE"/>
<path d="M19.2764 12.3124C18.3626 11.3986 16.8757 11.3986 15.9625 12.3118L11.6733 16.5915C11.5822 16.6824 11.515 16.7943 11.4776 16.9175L10.5435 19.9926C10.4607 20.2653 10.5329 20.5614 10.7318 20.7653C10.8809 20.9181 11.0834 21.001 11.2911 21.001C11.3606 21.001 11.4307 20.9917 11.4996 20.9726L14.6529 20.0991C14.7827 20.0632 14.901 19.9943 14.9963 19.8992L19.2765 15.627C20.1903 14.7132 20.1903 13.2263 19.2764 12.3124ZM14.0379 18.6482L12.4514 19.0876L12.9157 17.5592L15.8098 14.6715L16.9149 15.7766L14.0379 18.6482ZM18.1722 14.5217L18.0208 14.6728L16.9159 13.5679L17.0668 13.4173C17.3714 13.1127 17.867 13.1127 18.1716 13.4173C18.4762 13.7219 18.4762 14.2176 18.1722 14.5217Z" fill="#A603BE"/>
<path d="M13.9863 5.6875H5.93945C5.50797 5.6875 5.1582 6.03727 5.1582 6.46875C5.1582 6.90023 5.50797 7.25 5.93945 7.25H13.9863C14.4178 7.25 14.7676 6.90023 14.7676 6.46875C14.7676 6.03727 14.4178 5.6875 13.9863 5.6875Z" fill="#A603BE"/>
</g>
<defs>
<clipPath id="clip0">
<rect x="1" y="1" width="20" height="20" fill="white"/>
</clipPath>
</defs>
</svg>
