<svg width="22" height="22" viewBox="0 0 22 22" fill="none" xmlns="http://www.w3.org/2000/svg">
<g clip-path="url(#clip0)">
<g clip-path="url(#clip1)">
<path d="M18.5639 19.8067C20.158 18.7978 20.9959 17.1772 20.9959 15.0821C20.9959 13.8336 20.697 12.7482 20.1072 11.856C19.6273 11.1298 18.9637 10.5432 18.1312 10.1079C18.1663 9.79299 18.1846 9.46851 18.1846 9.13434C18.1846 7.91831 17.9514 6.82483 17.4915 5.88412C17.0524 4.9858 16.4071 4.22505 15.5737 3.62283C14.1043 2.56114 12.0366 2 9.59423 2C7.15185 2 5.08419 2.56114 3.61478 3.62283C2.78132 4.22505 2.13607 4.9858 1.69695 5.88412C1.23709 6.8248 1.00391 7.91831 1.00391 9.13434C1.00391 11.7362 2.06469 13.7352 4.08065 14.9538C3.8097 15.8701 3.4755 16.4184 3.47284 16.4227L2.72513 17.6188H4.13715C4.14184 17.6188 4.14668 17.6188 4.15183 17.6188C4.48947 17.6188 5.83569 17.5558 7.11315 16.6314C7.42822 17.9451 8.16738 19.0107 9.28549 19.7473C10.4678 20.5261 12.0869 20.9378 13.9675 20.9378C14.501 20.9378 14.9856 20.9107 15.4368 20.8553C16.5753 21.93 17.9233 21.9988 18.337 21.9921L18.3384 21.9921L19.8129 22L18.9886 20.783C18.9701 20.7534 18.7552 20.4034 18.5639 19.8067ZM5.45553 15.7829C5.56127 15.4731 5.6642 15.1202 5.75069 14.7296L5.88321 14.1314L5.33374 13.8604C3.49709 12.9545 2.56582 11.3644 2.56582 9.13434C2.56578 4.28581 6.9693 3.56188 9.59423 3.56188C12.2192 3.56188 16.6227 4.28581 16.6227 9.13434C16.6227 13.9685 12.2192 14.6903 9.59423 14.6903C8.79092 14.6903 8.11619 14.642 7.53166 14.5427L7.09683 14.4689L6.80909 14.8031C6.38063 15.3007 5.89559 15.6015 5.45553 15.7829ZM17.3069 18.7229L16.7574 18.9939L16.8899 19.5921C16.929 19.7686 16.972 19.9348 17.0172 20.0904C16.7783 19.9571 16.5351 19.772 16.314 19.5152L16.0263 19.181L15.5915 19.2548C15.1114 19.3363 14.5802 19.376 13.9675 19.376C12.3932 19.376 11.0713 19.0533 10.1448 18.4429C9.34976 17.9192 8.83953 17.1757 8.62212 16.2271C8.92852 16.2437 9.25148 16.2521 9.59427 16.2521C12.0382 16.2521 14.1054 15.6941 15.5725 14.6384C16.4064 14.0383 17.052 13.2793 17.4913 12.3825C17.5976 12.1655 17.6912 11.94 17.7732 11.707C18.876 12.431 19.4341 13.5629 19.4341 15.0821C19.4341 16.8016 18.7184 18.0266 17.3069 18.7229ZM8.77425 7.2711H7.21237C7.21237 6.6082 7.49706 5.97318 7.99343 5.52883C8.49174 5.08276 9.1598 4.86917 9.82582 4.94324C10.9012 5.06257 11.7672 5.92656 11.885 6.99762C11.9925 7.97555 11.431 8.66523 10.9993 9.09893C10.8935 9.20518 10.7966 9.2976 10.7111 9.37917C10.3362 9.7366 10.3362 9.75074 10.3362 9.92337V10.431H8.77433V9.92337C8.77433 9.06789 9.21091 8.65157 9.63312 8.24888C9.71559 8.17024 9.80087 8.0889 9.89228 7.9971C10.3139 7.57356 10.3514 7.34053 10.3324 7.16833C10.2939 6.81788 10.0084 6.53491 9.65355 6.49559C9.42493 6.47017 9.20533 6.54022 9.03512 6.69254C8.86691 6.84315 8.77425 7.04865 8.77425 7.2711ZM8.77425 11.5666H10.3361V13.1285H8.77425V11.5666Z" fill="#A603BE"/>
</g>
</g>
<defs>
<clipPath id="clip0">
<rect x="0.828125" y="2" width="20" height="20" fill="white"/>
</clipPath>
<clipPath id="clip1">
<rect x="0.828125" y="2" width="20" height="20" fill="white"/>
</clipPath>
</defs>
</svg>
