<svg width="22" height="22" viewBox="0 0 22 22" fill="none" xmlns="http://www.w3.org/2000/svg">
<g clip-path="url(#clip0)">
<g clip-path="url(#clip1)">
<path d="M3.95312 12.6641H8.52344V8.01562H3.95312V12.6641ZM5.51562 9.57812H6.96094V11.1016H5.51562V9.57812Z" fill="#A603BE"/>
<path d="M14.5781 17.3125H10.0859V18.875H14.5781V17.3125Z" fill="#A603BE"/>
<path d="M8.52344 14.2266H3.95312V15.7891H8.52344V14.2266Z" fill="#A603BE"/>
<path d="M8.52344 17.3125H3.95312V18.875H8.52344V17.3125Z" fill="#A603BE"/>
<path d="M14.5781 7.97656H10.0859V9.53906H14.5781V7.97656Z" fill="#A603BE"/>
<path d="M14.5781 14.2266H10.0859V15.7891H14.5781V14.2266Z" fill="#A603BE"/>
<path d="M14.5781 5.125H3.95312V6.6875H14.5781V5.125Z" fill="#A603BE"/>
<path d="M19.2656 9.03125V19.6562C19.2656 20.087 18.9152 20.4375 18.4844 20.4375C18.0536 20.4375 17.7031 20.087 17.7031 19.6562V2H0.828125V19.6562C0.828125 20.9486 1.87953 22 3.17188 22H18.4844C19.7767 22 20.8281 20.9486 20.8281 19.6562V9.03125H19.2656ZM3.17188 20.4375C2.74109 20.4375 2.39062 20.087 2.39062 19.6562V3.5625H16.1406V19.6562C16.1406 19.93 16.1878 20.193 16.2745 20.4375H3.17188Z" fill="#A603BE"/>
<path d="M14.5781 11.1016H10.0859V12.6641H14.5781V11.1016Z" fill="#A603BE"/>
</g>
</g>
<defs>
<clipPath id="clip0">
<rect x="0.828125" y="2" width="20" height="20" fill="white"/>
</clipPath>
<clipPath id="clip1">
<rect x="0.828125" y="2" width="20" height="20" fill="white"/>
</clipPath>
</defs>
</svg>
