<svg width="20" height="23" viewBox="0 0 20 23" fill="none" xmlns="http://www.w3.org/2000/svg">
<path d="M5 8V6C5 4.67392 5.52678 3.40215 6.46447 2.46447C7.40215 1.52678 8.67392 1 10 1C11.3261 1 12.5979 1.52678 13.5355 2.46447C14.4732 3.40215 15 4.67392 15 6V8H18C18.2652 8 18.5196 8.10536 18.7071 8.29289C18.8946 8.48043 19 8.73478 19 9V21C19 21.2652 18.8946 21.5196 18.7071 21.7071C18.5196 21.8946 18.2652 22 18 22H2C1.73478 22 1.48043 21.8946 1.29289 21.7071C1.10536 21.5196 1 21.2652 1 21V9C1 8.73478 1.10536 8.48043 1.29289 8.29289C1.48043 8.10536 1.73478 8 2 8H5ZM5 10H3V20H17V10H15V12H13V10H7V12H5V10ZM7 8H13V6C13 5.20435 12.6839 4.44129 12.1213 3.87868C11.5587 3.31607 10.7956 3 10 3C9.20435 3 8.44129 3.31607 7.87868 3.87868C7.31607 4.44129 7 5.20435 7 6V8Z" fill="black" stroke="white" stroke-width="0.4"/>
</svg>
