<svg width="24" height="24" viewBox="0 0 24 24" fill="none" xmlns="http://www.w3.org/2000/svg">
<g clip-path="url(#clip0)">
<path d="M16.1445 6.78125C16.1445 3.59354 13.551 1 10.3633 1C7.17557 1 4.58203 3.59354 4.58203 6.78125C4.58203 8.75574 5.57736 10.502 7.09225 11.5455C5.67776 12.0335 4.38138 12.8398 3.29221 13.9289C1.40347 15.8177 0.363281 18.3289 0.363281 21H1.92578C1.92578 16.3476 5.71088 12.5625 10.3633 12.5625C13.551 12.5625 16.1445 9.96896 16.1445 6.78125ZM10.3633 11C8.03708 11 6.14453 9.10745 6.14453 6.78125C6.14453 4.45505 8.03708 2.5625 10.3633 2.5625C12.6895 2.5625 14.582 4.45505 14.582 6.78125C14.582 9.10745 12.6895 11 10.3633 11ZM12.9414 16.3117H20.3633V17.8742H12.9414V16.3117ZM20.3633 13.1875V14.75H12.9414V13.1875H20.3633ZM12.9414 19.4375H20.3633V21H12.9414V19.4375Z" fill="black"/>
</g>
<defs>
<clipPath id="clip0">
<rect x="0.363281" y="1" width="20" height="20" fill="white"/>
</clipPath>
</defs>
</svg>
