<svg width="24" height="24" viewBox="0 0 24 24" fill="none" xmlns="http://www.w3.org/2000/svg">
<path d="M18.9775 17.1583C19.5424 16.5686 19.8906 15.7698 19.8906 14.8906C19.8906 13.3345 18.8014 12.0289 17.3457 11.6937C17.1092 9.86996 15.9577 8.32953 14.3682 7.54891C14.933 6.95922 15.2812 6.16039 15.2812 5.28125C15.2812 3.47195 13.8093 2 12 2C10.1907 2 8.71875 3.47195 8.71875 5.28125C8.71875 6.16039 9.06695 6.95922 9.63184 7.54891C8.04234 8.32953 6.89082 9.86996 6.65438 11.6937C5.19855 12.0289 4.10938 13.3345 4.10938 14.8906C4.10938 15.7698 4.45758 16.5686 5.02246 17.1583C3.23406 18.0366 2 19.8768 2 22H3.5625C3.5625 19.8892 5.27977 18.1719 7.39062 18.1719C9.50148 18.1719 11.2188 19.8892 11.2188 22H12.7812C12.7812 19.8892 14.4985 18.1719 16.6094 18.1719C18.7202 18.1719 20.4375 19.8892 20.4375 22H22C22 19.8768 20.7659 18.0366 18.9775 17.1583ZM12 3.5625C12.9477 3.5625 13.7188 4.33352 13.7188 5.28125C13.7188 6.22898 12.9477 7 12 7C11.0523 7 10.2812 6.22898 10.2812 5.28125C10.2812 4.33352 11.0523 3.5625 12 3.5625ZM7.39062 16.6094C6.44289 16.6094 5.67188 15.8384 5.67188 14.8906C5.67188 13.9429 6.44289 13.1719 7.39062 13.1719C8.33836 13.1719 9.10938 13.9429 9.10938 14.8906C9.10938 15.8384 8.33836 16.6094 7.39062 16.6094ZM14.2412 17.1583C13.3133 17.614 12.5345 18.3285 12 19.2073C11.4655 18.3285 10.6867 17.614 9.75879 17.1583C10.3237 16.5686 10.6719 15.7698 10.6719 14.8906C10.6719 13.3718 9.63434 12.0911 8.23094 11.7189C8.54937 9.92723 10.1183 8.5625 12 8.5625C13.8817 8.5625 15.4506 9.92723 15.7691 11.7189C14.3657 12.0911 13.3281 13.3718 13.3281 14.8906C13.3281 15.7698 13.6763 16.5686 14.2412 17.1583ZM16.6094 16.6094C15.6616 16.6094 14.8906 15.8384 14.8906 14.8906C14.8906 13.9429 15.6616 13.1719 16.6094 13.1719C17.5571 13.1719 18.3281 13.9429 18.3281 14.8906C18.3281 15.8384 17.5571 16.6094 16.6094 16.6094Z" fill="#A603BE"/>
</svg>
