<svg width="24" height="24" viewBox="0 0 24 24" fill="none" xmlns="http://www.w3.org/2000/svg">
<g clip-path="url(#clip0)">
<path d="M20.8008 11.7578V6.40625H4.70703C4.27625 6.40625 3.92578 6.05578 3.92578 5.625C3.92578 5.19422 4.27625 4.84375 4.70703 4.84375H19.2383V3.28125H4.70703C3.41469 3.28125 2.36328 4.33266 2.36328 5.625V19.375C2.36328 20.6673 3.41469 21.7188 4.70703 21.7188H20.8008V16.4453H22.3633V11.7578H20.8008ZM19.2383 20.1562H4.70703C4.27625 20.1562 3.92578 19.8058 3.92578 19.375V7.83437C4.17031 7.92109 4.43316 7.96875 4.70703 7.96875H19.2383V11.7578H17.4414C16.1491 11.7578 15.0977 12.8092 15.0977 14.1016C15.0977 15.3939 16.1491 16.4453 17.4414 16.4453H19.2383V20.1562ZM20.8008 14.8828H17.4414C17.0106 14.8828 16.6602 14.5323 16.6602 14.1016C16.6602 13.6708 17.0106 13.3203 17.4414 13.3203H20.8008V14.8828Z" fill="black"/>
</g>
<defs>
<clipPath id="clip0">
<rect x="2.36328" y="2.5" width="20" height="20" fill="white"/>
</clipPath>
</defs>
</svg>
