<svg width="23" height="16" viewBox="0 0 23 16" fill="none" xmlns="http://www.w3.org/2000/svg">
<path d="M9.03244 1.96099C9.50034 1.50484 9.50034 0.786708 9.03244 0.330556C8.56454 -0.110186 7.82791 -0.110186 7.36 0.330556L0.350928 7.16257C0.133837 7.3742 3.64202e-07 7.66803 3.49966e-07 7.99371C3.3573e-07 8.31938 0.133837 8.61321 0.350928 8.82588L7.36 15.6579C7.8279 16.114 8.56454 16.114 9.03244 15.6579C9.50034 15.2017 9.50034 14.4836 9.03244 14.0274L4.01407 9.15155L21.8292 9.15155C22.4815 9.15258 23 8.63068 23 7.99473C23 7.35879 22.4815 6.85333 21.8292 6.85333L4.01512 6.85333L9.03244 1.96099Z" fill="url(#paint0_linear)"/>
<defs>
<linearGradient id="paint0_linear" x1="1.32115" y1="16" x2="6.22202" y2="1.74712" gradientUnits="userSpaceOnUse">
<stop offset="0.0105" stop-color="#A603BE"/>
<stop offset="1" stop-color="#44097C"/>
</linearGradient>
</defs>
</svg>
