<svg width="23" height="16" viewBox="0 0 23 16" fill="none" xmlns="http://www.w3.org/2000/svg">
<path d="M13.9676 1.96099C13.4997 1.50484 13.4997 0.786708 13.9676 0.330556C14.4355 -0.110186 15.1721 -0.110186 15.64 0.330556L22.6491 7.16257C22.8662 7.3742 23 7.66803 23 7.99371C23 8.31938 22.8662 8.61321 22.6491 8.82588L15.64 15.6579C15.1721 16.114 14.4355 16.114 13.9676 15.6579C13.4997 15.2017 13.4997 14.4836 13.9676 14.0274L18.9859 9.15155L1.17081 9.15155C0.518488 9.15258 -3.22123e-07 8.63068 -3.49921e-07 7.99473C-3.77719e-07 7.35879 0.518487 6.85333 1.17081 6.85333L18.9849 6.85333L13.9676 1.96099Z" fill="url(#paint0_linear)"/>
<defs>
<linearGradient id="paint0_linear" x1="21.6789" y1="16" x2="16.778" y2="1.74712" gradientUnits="userSpaceOnUse">
<stop offset="0.0105" stop-color="#A603BE"/>
<stop offset="1" stop-color="#44097C"/>
</linearGradient>
</defs>
</svg>
