<svg width="131" height="146" viewBox="0 0 131 146" fill="none" xmlns="http://www.w3.org/2000/svg">
<path d="M53.0468 28.2055C50.1517 29.4215 38.9476 34.0826 32.6941 46.1553C31.3623 48.732 25.1088 60.8047 29.7121 71.4588C35.8208 85.587 54.4076 82.1418 62.9482 95.4305C70.2729 106.866 55.0734 118.099 61.6164 131.706C65.0327 138.8 72.9074 144.735 80.1742 145.285C102.901 146.993 143.722 98.0361 127.133 59.6177C115.032 31.7086 76.4685 18.4489 53.0468 28.2055Z" fill="url(#paint0_linear)"/>
<path d="M99.3688 50.15L57.5341 34.6321C56.2603 34.1689 54.8706 34.8058 54.4074 36.0797L26.1509 112.135C25.6877 113.409 26.3246 114.798 27.5985 115.262L69.4331 130.779C70.707 131.243 72.0967 130.606 72.5599 129.332L100.816 53.2478C101.28 52.0029 100.643 50.6132 99.3688 50.15Z" fill="url(#paint1_linear)"/>
<path opacity="0.09" d="M74.2969 89.1189C73.2546 89.1189 72.1834 89.09 71.0833 89.0321C54.8416 88.1346 41.5819 80.8968 35.6179 69.6926C26.0929 51.8007 35.4442 26.8736 49.7751 19.0278C57.0129 15.0325 63.2954 15.1483 67.2906 15.959C74.1232 17.3197 79.1607 20.4754 81.4768 24.8181C83.9666 29.4792 82.6348 33.8509 81.2162 38.4541C79.9424 42.5942 78.6396 46.85 80.2029 51.4533C81.5926 55.5644 85.2115 56.8382 89.062 58.1989C92.9705 59.5886 97.0237 61.0072 99.195 65.4947C101.482 70.2427 101.193 76.7278 98.5581 80.6362C94.9681 85.8474 85.4721 89.1189 74.2969 89.1189ZM62.7742 15.8432C59.2132 15.8432 54.7837 16.6538 49.9488 19.3173C35.7627 27.1052 26.4982 51.8296 35.9364 69.5479C41.8424 80.6652 55.0153 87.8161 71.1412 88.7136C83.5323 89.4084 94.447 86.079 98.2975 80.4625C100.874 76.6699 101.164 70.3006 98.9055 65.6684C96.792 61.2967 92.8257 59.9071 88.9752 58.5464C85.0668 57.1567 81.361 55.8539 79.9134 51.598C78.3211 46.879 79.6529 42.5652 80.9267 38.3673C82.3164 33.8219 83.6481 29.5082 81.2162 24.9628C78.958 20.707 73.9784 17.6092 67.2617 16.2774C65.9589 16.0169 64.4534 15.8432 62.7742 15.8432Z" fill="#AAAAD5"/>
<path opacity="0.2" d="M89.2357 46.3863L84.6035 49.4841L44.1585 76.6404L37.7603 80.9542L46.5615 57.1852L52.9886 52.8714L67.4933 43.1148L72.1255 40.017L89.2357 46.3863Z" fill="#EEEDF3"/>
<path opacity="0.2" d="M98.4423 49.8026L93.8101 52.9004L39.4106 89.4369L32.9834 93.7217L36.1101 85.3548L42.5084 81.07V81.041L87.7882 50.6711L92.4204 47.5444L98.4423 49.8026Z" fill="#EEEDF3"/>
<path d="M99.3688 50.15L98.4424 49.8026L92.4205 47.5734L89.2358 46.3864L72.1256 40.046L57.5342 34.6321C56.2892 34.1689 54.8706 34.8058 54.4074 36.0797L46.5616 57.2141L37.7315 80.9832L36.0812 85.4127L32.9834 93.7797L26.1509 112.193C26.0641 112.424 26.0351 112.656 26.0062 112.888C25.9193 113.93 26.5563 114.943 27.5985 115.319L35.3575 118.215L41.2056 120.386L56.6656 126.118L62.3111 128.203L69.4331 130.837C70.6781 131.301 72.0967 130.664 72.5599 129.419L100.295 54.7243L100.816 53.3347C101.28 52.0029 100.643 50.6132 99.3688 50.15ZM95.4025 54.8691L94.8234 56.4614L70.9386 120.82C70.678 121.486 69.9253 121.862 69.2305 121.602L63.9903 119.662L57.65 117.317L44.564 112.453L38.571 110.224L33.7941 108.458C33.273 108.255 32.9545 107.792 32.9545 107.271C32.9545 107.097 32.9545 106.924 33.0413 106.75L39.4685 89.4659L42.5663 81.099L44.2166 76.6694L53.0467 52.9004L57.5342 40.8277C57.7947 40.1618 58.5475 39.7855 59.2133 40.046L67.5513 43.1438L84.6615 49.4841L87.8462 50.6711L93.868 52.9004L94.6497 53.1899C95.3156 53.4505 95.663 54.2032 95.4025 54.8691Z" fill="#EEEDF3"/>
<path d="M47.3432 119.894C46.1562 119.46 45.5482 118.128 45.9825 116.941C46.4168 115.754 47.7485 115.146 48.9355 115.58C50.1225 116.014 50.7305 117.346 50.2962 118.533C49.833 119.749 48.5013 120.328 47.3432 119.894Z" fill="#C9C7D9"/>
<path opacity="0.1" d="M75.3102 5.27613L16.9153 24.6156C15.4967 25.0788 14.744 26.6132 15.2072 28.0029L20.8817 45.0842C21.3449 46.5028 22.8793 47.2555 24.269 46.7923L30.0303 44.8815L32.8386 43.9551C33.5624 44.4183 35.3573 45.6343 36.0811 46.0685C36.747 46.4449 37.6155 46.1554 37.934 45.4606C38.2814 44.6789 39.0052 42.6523 39.2947 41.8416L53.4809 37.1226L82.6638 27.4528C84.0824 26.9896 84.8351 25.4552 84.3719 24.0655L78.6975 6.98426C78.2342 5.56564 76.7288 4.81291 75.3102 5.27613Z" fill="#3F3F3F"/>
<path d="M75.3101 0.759261L12.6594 21.5174C11.154 22.0095 10.3433 23.6598 10.8355 25.1652L16.9153 43.4914C17.4074 44.9969 19.0577 45.8075 20.5631 45.3153L26.7298 43.2598L29.7407 42.2754C30.4934 42.7966 32.4332 44.0704 33.2149 44.5336C33.9097 44.939 34.8651 44.6205 35.2125 43.8678C35.5599 43.0282 36.3706 40.8279 36.6601 39.9883L51.8885 34.9508L83.2138 24.5572C84.7193 24.0651 85.5299 22.4148 85.0377 20.9094L78.9579 2.58319C78.4658 1.07773 76.8445 0.267089 75.3101 0.759261Z" fill="url(#paint2_linear)"/>
<path d="M28.5249 30.1168C28.9591 29.364 29.0749 28.4376 28.7854 27.5401L28.2933 26.0636C27.7432 24.4133 26.0061 23.4001 24.3269 23.8922C22.5898 24.4133 21.6634 26.2373 22.2135 27.9454L22.7346 29.5667C23.0241 30.4642 23.69 31.1301 24.4717 31.4775C22.6767 32.8382 21.6345 35.0095 21.7792 37.2967C21.8371 38.1942 22.7346 38.7442 23.5742 38.4837L33.3597 35.2411C34.1993 34.9516 34.5757 33.9673 34.1125 33.2145C32.8965 31.2459 30.7831 30.1168 28.5249 30.1168Z" fill="white"/>
<path d="M52.0912 14.6565L39.6132 18.7965C38.5999 19.144 38.0499 20.2441 38.3683 21.2574L40.3949 27.3951C40.7423 28.4084 41.8425 28.9585 42.8558 28.64L44.0717 28.2347C44.0717 28.2347 46.3878 29.798 47.1695 30.2613C47.7486 30.5797 48.5302 30.3481 48.7908 29.7112C49.1672 28.8716 50.0936 26.237 50.0936 26.237L55.3338 24.4999C56.3471 24.1525 56.8972 23.0524 56.5787 22.0391L54.5521 15.9014C54.2047 14.8592 53.1045 14.3091 52.0912 14.6565Z" fill="white"/>
<path d="M41.7846 21.6342C41.3793 21.7211 40.945 21.5184 40.8292 21.1131C40.6845 20.6788 40.9161 20.2156 41.3503 20.0998L51.4833 16.7414C51.8886 16.5967 52.3808 16.8283 52.4966 17.2626C52.6414 17.6968 52.4097 18.1601 51.9755 18.2759L41.8425 21.6342C41.8136 21.6342 41.8136 21.6342 41.7846 21.6342Z" fill="#E2E1E1"/>
<path d="M42.653 24.2977C42.2477 24.3846 41.8134 24.1819 41.6976 23.7766C41.5529 23.3423 41.7845 22.8791 42.2187 22.7633L52.3517 19.405C52.757 19.2602 53.2492 19.4918 53.365 19.9261C53.5098 20.3604 53.2782 20.8236 52.8439 20.9394L42.7109 24.2977C42.7109 24.2688 42.682 24.2977 42.653 24.2977Z" fill="#E2E1E1"/>
<path d="M43.5505 26.9323C43.1452 27.0191 42.7109 26.8165 42.5951 26.4112C42.4503 25.9769 42.6819 25.5137 43.1162 25.3979L47.6905 23.8924C48.0958 23.7476 48.5591 23.9792 48.7038 24.4135C48.8486 24.8478 48.617 25.311 48.1827 25.4268L43.6084 26.9323C43.5794 26.9323 43.5794 26.9323 43.5505 26.9323Z" fill="#E2E1E1"/>
<path d="M78.0893 17.5522C77.684 16.3073 76.8733 15.2651 75.889 14.5702L75.4547 13.2385C74.702 11.0092 72.5017 9.7064 70.2435 10.0249L70.1277 9.6485C69.9829 9.21423 69.5197 8.98262 69.0854 9.12737C68.6512 9.27213 68.4195 9.73535 68.5643 10.1696L68.6801 10.546C66.6825 11.6172 65.6981 13.9912 66.4219 16.2204L66.8562 17.5522C66.4798 18.7103 66.4509 20.0131 66.8562 21.258L67.0588 21.837C67.1457 22.1265 67.4642 22.3002 67.7537 22.1844L69.9829 21.4317C70.0119 21.6054 70.0987 21.7791 70.3014 21.837C71.2278 22.1555 72.2701 22.1555 73.2834 21.837C74.2967 21.5185 75.1073 20.8816 75.6863 20.071C75.8021 19.8973 75.8021 19.6946 75.7153 19.5498L77.9445 18.7971C78.2341 18.7103 78.4078 18.3918 78.2919 18.1023L78.0893 17.5522Z" fill="white"/>
<path opacity="0.1" d="M37.0947 99.8883C36.4867 97.9486 34.4312 96.8774 32.4914 97.4854L8.86716 104.955C6.92742 105.563 5.85622 107.618 6.4642 109.558L11.328 124.931C11.936 126.871 13.9915 127.942 15.9313 127.334L18.2474 126.61C18.2474 126.61 22.5611 129.592 24.0666 130.49C25.1378 131.127 26.6143 130.664 27.1354 129.506C27.8592 127.913 29.6542 122.991 29.6542 122.991L39.5556 119.865C41.4953 119.257 42.5665 117.201 41.9585 115.261L37.0947 99.8883Z" fill="#3F3F3F"/>
<path d="M28.4092 93.9822L3.07678 102.002C0.992286 102.668 -0.136815 104.868 0.500114 106.952L5.71135 123.455C6.37723 125.539 8.57753 126.668 10.662 126.031L13.1229 125.25C13.1229 125.25 17.7551 128.463 19.3474 129.419C20.5055 130.113 22.0978 129.592 22.6479 128.376C23.4296 126.668 25.3403 121.37 25.3403 121.37L35.9655 118.012C38.05 117.346 39.1791 115.146 38.5421 113.061L33.3309 96.5589C32.7229 94.4744 30.4937 93.3163 28.4092 93.9822Z" fill="url(#paint3_linear)"/>
<path d="M28.4961 102.522L7.94064 109.036C7.27476 109.239 6.55098 108.891 6.34832 108.197C6.14566 107.531 6.52203 106.807 7.18791 106.604L27.7433 100.09C28.4092 99.8876 29.133 100.235 29.3357 100.93C29.5383 101.596 29.162 102.32 28.4961 102.522Z" fill="#EDB7D5"/>
<path d="M30.32 108.341L9.76462 114.855C9.09874 115.058 8.37495 114.711 8.17229 114.016C7.96963 113.35 8.346 112.626 9.01188 112.424L29.5673 105.91C30.2332 105.707 30.957 106.054 31.1596 106.749C31.3623 107.386 30.9859 108.11 30.32 108.341Z" fill="#EDB7D5"/>
<path d="M20.8818 117.694L11.6174 120.618C10.9515 120.821 10.2277 120.444 10.0251 119.778C9.82242 119.112 10.1988 118.389 10.8647 118.186L20.1291 115.262C20.795 115.059 21.5187 115.436 21.7214 116.101C21.9241 116.767 21.5477 117.491 20.8818 117.694Z" fill="#EDB7D5"/>
<path d="M95.0621 97.6593L60.8977 103.101L63.9717 122.399L98.136 116.957L95.0621 97.6593Z" fill="url(#paint4_linear)"/>
<path d="M79.5083 110.051L95.0551 97.6884L60.8926 103.131L79.5083 110.051Z" fill="url(#paint5_linear)"/>
<path d="M102.003 130.808H121.545C122.124 130.808 122.617 130.316 122.617 129.737C122.617 129.158 122.124 128.666 121.545 128.666H102.003C101.424 128.666 100.932 129.158 100.932 129.737C100.932 130.345 101.395 130.808 102.003 130.808Z" fill="#E2E2E1"/>
<path d="M108.459 126.263L107.533 120.617L110.081 119.835L110.486 125.857L108.459 126.263Z" fill="#D7DDE9"/>
<path d="M110.573 125.249C110.746 125.278 110.891 125.336 111.036 125.452C111.933 126.204 114.684 127.536 116.074 127.739C117.579 127.97 117.666 128.694 115.523 128.694C113.41 128.694 111.847 128.491 110.92 128.52C109.965 128.549 110.225 128.694 107.909 128.694C106.114 128.694 106.693 126.407 107.33 125.365C107.533 125.046 107.793 124.872 108.17 124.901L110.573 125.249Z" fill="#ED9558"/>
<path d="M100.266 120.994L103.798 116.506L106.085 117.867L101.945 122.21L100.266 120.994Z" fill="#D7DDE9"/>
<path d="M102.466 121.863C102.553 122.007 102.64 122.152 102.64 122.326C102.698 123.484 103.595 126.495 104.667 127.45C105.738 128.435 105.043 128.666 103.306 127.856C101.395 126.958 100.961 125.018 100.295 124.353C99.6291 123.687 99.687 123.947 98.1237 122.239C96.9077 120.936 98.9633 119.807 100.179 119.547C100.556 119.46 100.845 119.547 101.077 119.865L102.466 121.863Z" fill="#ED9558"/>
<path d="M98.6739 25.5695C98.6739 25.5695 97.979 30.2017 99.3108 32.3441C100.643 34.4865 100.845 34.805 100.845 34.805" fill="#ED8C61"/>
<path d="M102.09 36.861C101.714 37.0926 101.279 37.2084 100.874 37.2084C100.063 37.2084 99.2528 36.8031 98.8185 36.0214C98.7896 35.9925 98.558 35.5872 97.3131 33.6185C96.4445 32.2288 96.155 30.347 96.1261 28.6968C96.0682 27.0755 96.2419 25.6858 96.3287 25.2226C96.5314 23.9198 97.7474 22.9933 99.0791 23.196C100.382 23.3987 101.308 24.6146 101.106 25.9464C100.99 26.6412 100.961 27.4518 100.961 28.2046C100.961 28.9863 101.019 29.739 101.135 30.2891C101.193 30.6075 101.279 30.8971 101.395 31.0708C102.756 33.2421 102.959 33.5895 102.959 33.5895C103.624 34.7186 103.248 36.1951 102.09 36.861Z" fill="#F6AD86"/>
<path d="M93.2021 63.3803C93.6943 56.461 91.3782 39.2929 90.1912 32.4603C90.0175 31.4181 90.7992 30.4627 91.8704 30.4627H106.085C106.838 30.4627 107.533 30.9838 107.736 31.7076C109.357 37.9032 110.399 63.3514 110.399 63.3514H93.2021V63.3803Z" fill="#E8E8E8"/>
<path d="M116.681 48.9914C116.45 47.6886 114.858 44.3592 113.091 40.885C111.21 37.2082 109.096 33.3287 108.112 31.5917C107.562 30.6073 106.317 30.2599 105.333 30.781C104.348 31.3311 104.001 32.576 104.522 33.5604C106.027 36.2818 107.562 39.148 108.923 41.7246C110.457 44.6777 111.933 46.4726 112.541 47.9202C111.441 48.8756 108.691 48.9625 106.52 48.8177C105.912 48.7598 103.595 48.5861 102.061 50.0047C101.453 50.5548 100.758 51.5681 100.816 53.1604C100.874 54.2605 101.019 54.6948 102.003 55.187C102.408 55.3896 102.93 55.4186 103.364 55.3896C104.493 55.2449 104.58 54.6369 104.58 53.3341C104.58 52.4077 105.072 51.4812 105.072 51.4812C105.072 51.4812 108.372 52.2919 111.123 52.6393C113.873 52.9867 115.002 52.4366 116.016 51.3075C116.595 50.6416 116.826 49.802 116.681 48.9914Z" fill="#F6AD86"/>
<path d="M93.9547 74.5555C93.9547 74.5555 91.8702 70.7339 93.2019 63.3803H110.37C110.37 63.3803 110.602 68.9679 110.225 74.5555H93.9547Z" fill="#3A63A9"/>
<path d="M113.062 40.8858L111.065 41.2912L108.922 41.7254C107.591 39.1488 106.027 36.2536 104.522 33.5612C103.972 32.5768 104.348 31.3319 105.332 30.7818C106.317 30.2318 107.562 30.6081 108.112 31.5925C109.067 33.3295 111.181 37.209 113.062 40.8858Z" fill="#ED8C61"/>
<path d="M93.752 32.0841C93.4915 30.984 92.3624 30.3181 91.2912 30.6076C86.3695 31.8235 82.9532 32.9237 80.5792 33.937C75.1074 36.2531 75.1653 37.9612 75.1653 38.8298C75.1943 39.8141 75.3969 41.7538 87.1801 46.0386C87.1801 46.3861 86.8037 47.7178 86.5721 48.1521C86.022 49.1364 86.6011 50.0918 87.1801 51.0472C87.3828 51.3657 87.846 51.771 88.3961 51.771C89.1198 51.771 90.0173 50.8446 90.1331 50.0918C90.5674 47.3414 90.5095 45.7202 90.3647 45.4017C90.3647 45.3728 90.3358 45.3438 90.3358 45.3149C90.2779 45.228 90.2489 45.1412 90.191 45.0543C90.1621 44.9964 90.1042 44.9674 90.0752 44.9095C90.0173 44.8516 89.9884 44.7937 89.9305 44.7648C89.8436 44.6779 89.7568 44.62 89.6699 44.5621C89.641 44.5621 89.641 44.5332 89.612 44.5332C89.4673 44.4463 89.3225 44.3595 89.1777 44.3016C85.1825 42.6513 81.4477 39.9878 79.7975 38.8298C80.3765 38.5113 81.1872 38.106 82.2005 37.7296C84.7192 36.7163 88.425 35.5293 92.2176 34.6029C93.3467 34.2844 94.0126 33.1843 93.752 32.0841Z" fill="#F6AD86"/>
<path d="M113.381 39.9881L110.631 40.5092L108.488 40.9145L106.664 41.2619C104.319 36.6587 103.769 35.6164 103.682 34.0531C103.595 32.287 104.059 31.3895 105.217 30.7526C106.375 30.1157 107.822 30.521 108.459 31.679C108.517 31.7659 111.007 35.3269 113.381 39.9881Z" fill="#E8E8E8"/>
<path d="M120.851 97.2537C120.59 98.9328 119.693 100.757 118.419 102.986C116.277 106.692 113.005 110.832 110.052 114.277C107.996 116.68 106.115 118.764 104.928 120.183C104.406 120.791 104.001 121.283 103.77 121.602L101.338 118.475C102.235 117.201 103.075 115.493 104.117 113.901C104.146 113.872 104.175 113.814 104.204 113.785C106.173 110.803 108.286 107.445 109.965 104.376C110.023 104.26 110.081 104.173 110.139 104.057C111.934 100.815 113.266 97.9485 113.526 96.2693C113.989 93.2873 109.502 83.965 105.072 75.7428C104.58 74.7874 104.059 73.861 103.567 72.9635C103.393 72.645 103.306 72.3266 103.277 71.9792C103.162 70.4737 104.262 68.7366 105.622 67.9839C107.273 67.0574 109.415 66.5942 110.342 68.2444C112.223 71.6607 121.98 89.929 120.851 97.2537Z" fill="#3A63A9"/>
<path d="M110.052 114.277C107.996 116.68 106.114 118.764 104.927 120.183C104.724 118.504 104.522 116.68 104.319 114.827C104.29 114.479 104.232 114.103 104.203 113.756C106.172 110.774 108.286 107.415 109.965 104.346C110.08 107.386 110.08 110.947 110.052 114.277Z" fill="#2D548D"/>
<path d="M109.618 98.1796C108.778 91.3182 103.017 72.8762 102.119 70.8496C101.366 69.1125 97.1975 68.7362 95.4604 69.5178C93.7233 70.2706 92.9416 72.2972 93.6944 74.0342C96.0105 79.3034 102.582 93.4027 103.248 98.3823C103.625 101.364 104.146 107.357 105.072 112.482C105.738 116.043 106.404 119.517 106.896 122.036C107.33 124.236 107.33 123.831 107.359 124.033L111.47 123.396C111.47 123.396 110.602 106.286 109.618 98.1796Z" fill="#3A63A9"/>
<path d="M92.2466 34.5446C88.454 35.4711 84.7482 36.6581 82.2295 37.6714L80.5503 33.9077C82.9243 32.9234 86.3406 31.7942 91.2623 30.5783C92.3624 30.3177 93.4626 30.9836 93.7231 32.0548C94.0127 33.1839 93.3468 34.2841 92.2466 34.5446Z" fill="#ED8C61"/>
<path d="M91.3206 30.5203C92.6234 30.3176 93.5788 30.9545 93.9262 32.2284C94.2736 33.5022 93.4051 34.4866 92.247 35.1525C90.8573 35.9631 90.3652 36.1368 84.488 38.1634L81.2166 33.647C88.7439 30.7229 89.1203 30.8387 91.3206 30.5203Z" fill="#E8E8E8"/>
<path d="M101.106 30.2891C100.99 30.2891 100.874 30.2891 100.787 30.2891C99.0212 30.2891 97.3999 29.7101 96.1261 28.6968C96.0682 27.0755 96.2419 25.6858 96.3287 25.2226C96.5314 23.9198 97.7474 22.9933 99.0791 23.196C100.382 23.3987 101.308 24.6146 101.106 25.9464C100.99 26.6412 100.961 27.4518 100.961 28.2046C100.903 28.9573 100.961 29.7101 101.106 30.2891Z" fill="#ED8C61"/>
<path d="M107.909 21.7195C106.954 26.1491 104.493 29.3916 100.237 29.3916C96.0102 29.3916 93.3467 26.178 92.565 21.7195C91.8702 17.5505 96.0102 13.4684 100.237 13.4684C104.522 13.4395 108.807 17.5795 107.909 21.7195Z" fill="#F6AD86"/>
<path d="M108.489 124.062L108.46 123.946C107.302 116.767 105.535 105.939 104.667 99.1062C104.03 94.1266 97.8634 79.3614 95.5473 74.0923C95.5183 74.0633 95.5183 74.0054 95.5183 73.9765C95.5183 73.9475 95.5183 73.9475 95.4894 73.9186C95.113 72.9053 93.9839 69.1416 95.0551 63.2066L95.4025 63.2645C94.3313 69.1127 95.4604 72.7895 95.8079 73.8028C95.8079 73.8317 95.8368 73.8607 95.8368 73.8896C95.8368 73.9186 95.8368 73.9475 95.8658 73.9765C98.1819 79.2456 104.348 94.0687 104.985 99.0773C105.883 105.881 107.62 116.738 108.778 123.918L108.807 124.033L108.489 124.062Z" fill="#658BC1"/>
<path d="M102.988 30.492C102.988 31.5343 102.582 33.2713 99.8608 33.2713C97.8921 33.2713 95.4023 32.4317 94.4758 30.8394L94.2732 30.492H102.988Z" fill="#C8D6DB"/>
<path d="M95.0837 30.492C95.8075 31.7659 97.9789 32.5765 99.8607 32.5765C101.743 32.5765 102.293 31.6501 102.293 30.492H95.0837Z" fill="#F6AD86"/>
<path d="M105.39 51.8876C105.39 51.8586 105.506 50.7006 104.29 49.0214L105.419 48.3555C106.838 50.469 106.693 51.9744 106.693 52.0613L105.39 51.8876Z" fill="#82AACE"/>
<path d="M104.522 48.3837C105.159 48.0942 105.999 48.2389 106.433 48.7021C106.838 49.1654 106.664 49.8023 105.999 50.0918C105.362 50.3813 104.522 50.2366 104.088 49.7733C103.682 49.2812 103.856 48.6732 104.522 48.3837Z" fill="#4E7DB0"/>
<path d="M107.736 16.0453C105.42 12.3106 99.7161 12.0211 98.616 12.079C98.0369 12.1079 96.7631 12.4553 96.213 13.3239C96.1841 12.7159 96.213 12.1658 96.213 12.1658C95.7208 12.7738 95.634 13.2949 95.7208 13.7002C95.3734 13.237 95.1418 12.7449 95.1418 12.7449C95.055 13.3818 95.2287 13.7581 95.4892 13.9608C93.9259 14.3372 91.9282 16.5375 92.6231 21.0539C92.9126 23.0226 97.3711 21.5171 98.616 19.5484C99.4556 20.9091 101.135 21.1986 101.135 21.1986C100.556 20.6196 100.035 19.7511 99.6293 18.8825C102.003 20.3301 105.159 21.8935 105.535 22.8489C105.535 22.8489 106.23 21.3144 105.709 20.3301C105.709 20.3301 107.591 20.7933 107.822 22.6752C107.794 22.6173 110.197 20.0406 107.736 16.0453Z" fill="#424344"/>
<path d="M102.192 63.1974L101.849 63.2528L103.723 74.8566L104.066 74.8012L102.192 63.1974Z" fill="#658BC1"/>
<path d="M103.538 72.6451L103.48 72.2977C103.48 72.2977 104.204 72.1819 104.58 71.6318C104.812 71.3133 104.87 70.908 104.812 70.4448L103.625 63.0912L103.972 63.0333L105.159 70.3869C105.246 70.9659 105.159 71.4581 104.87 71.8345C104.406 72.5293 103.567 72.6451 103.538 72.6451Z" fill="#658BC1"/>
<path d="M92.3335 21.2562C91.986 22.0089 92.0439 22.8196 92.3624 23.5144C92.7388 24.325 93.9258 24.2671 94.2732 23.4565L95.2575 21.2562C95.6339 20.4456 94.8812 19.5481 94.0126 19.7797C93.2888 20.0113 92.6519 20.5324 92.3335 21.2562Z" fill="#F6AD86"/>
<defs>
<linearGradient id="paint0_linear" x1="28.9458" y1="133.089" x2="110.68" y2="63.4252" gradientUnits="userSpaceOnUse">
<stop offset="0.0105" stop-color="#E400E8"/>
<stop offset="1" stop-color="#44097C"/>
</linearGradient>
<linearGradient id="paint1_linear" x1="26" y1="125.39" x2="91.072" y2="100.39" gradientUnits="userSpaceOnUse">
<stop offset="0.0105" stop-color="#A603BE"/>
<stop offset="1" stop-color="#44097C"/>
</linearGradient>
<linearGradient id="paint2_linear" x1="85.1816" y1="0.61541" x2="30.1432" y2="59.8321" gradientUnits="userSpaceOnUse">
<stop stop-color="#C09663"/>
<stop offset="0.197917" stop-color="#F2C283"/>
<stop offset="0.526042" stop-color="#FEE0B3"/>
<stop offset="0.770833" stop-color="#F7C786"/>
<stop offset="1" stop-color="#BD9361"/>
</linearGradient>
<linearGradient id="paint3_linear" x1="38.7195" y1="93.794" x2="-2.66865" y2="122.438" gradientUnits="userSpaceOnUse">
<stop stop-color="#C09663"/>
<stop offset="0.197917" stop-color="#F2C283"/>
<stop offset="0.526042" stop-color="#FEE0B3"/>
<stop offset="0.770833" stop-color="#F7C786"/>
<stop offset="1" stop-color="#BD9361"/>
</linearGradient>
<linearGradient id="paint4_linear" x1="95.0621" y1="97.6593" x2="75.8319" y2="128.386" gradientUnits="userSpaceOnUse">
<stop stop-color="#C09663"/>
<stop offset="0.197917" stop-color="#F2C283"/>
<stop offset="0.526042" stop-color="#FEE0B3"/>
<stop offset="0.770833" stop-color="#F7C786"/>
<stop offset="1" stop-color="#BD9361"/>
</linearGradient>
<linearGradient id="paint5_linear" x1="95.0551" y1="97.6884" x2="82.1001" y2="120.877" gradientUnits="userSpaceOnUse">
<stop stop-color="#C09663"/>
<stop offset="0.197917" stop-color="#F2C283"/>
<stop offset="0.526042" stop-color="#FEE0B3"/>
<stop offset="0.770833" stop-color="#F7C786"/>
<stop offset="1" stop-color="#BD9361"/>
</linearGradient>
</defs>
</svg>
