<svg width="32" height="34" viewBox="0 0 32 34" fill="none" xmlns="http://www.w3.org/2000/svg">
<path d="M17.0681 0C23.3632 0 28.8922 3.40279 31.8522 8.499C32.1553 9.02088 31.9762 9.68867 31.4523 9.99054C30.9282 10.2924 30.2578 10.114 29.9547 9.59217C27.38 5.15938 22.568 2.18328 17.0681 2.18328C8.86527 2.18328 2.1918 8.82999 2.1918 17C2.1918 25.1701 8.86527 31.8168 17.0681 31.8168C22.5713 31.8168 27.3819 28.8378 29.9548 24.4077C30.2579 23.8858 30.9283 23.7076 31.4523 24.0093C31.9763 24.3112 32.1554 24.979 31.8522 25.5009C28.8916 30.5986 23.3616 34 17.0681 34C7.63436 34.0001 -0.000244011 26.3967 -0.000244011 17C-0.000244011 7.604 7.63356 0 17.0681 0Z" fill="white"/>
<line x1="8.0144" y1="14.1382" x2="24.7199" y2="14.1382" stroke="white" stroke-width="2" stroke-linecap="round"/>
<line x1="8.0144" y1="19.959" x2="24.7199" y2="19.959" stroke="white" stroke-width="2" stroke-linecap="round"/>
</svg>
