<svg width="32" height="34" viewBox="0 0 32 34" fill="none" xmlns="http://www.w3.org/2000/svg">
<path d="M17.0683 0C23.3635 0 28.8925 3.40279 31.8524 8.499C32.1555 9.02088 31.9765 9.68867 31.4525 9.99054C30.9285 10.2924 30.2581 10.114 29.955 9.59217C27.3803 5.15938 22.5682 2.18328 17.0683 2.18328C8.86551 2.18328 2.19205 8.82999 2.19205 17C2.19205 25.1701 8.86551 31.8168 17.0683 31.8168C22.5716 31.8168 27.3821 28.8378 29.9551 24.4077C30.2581 23.8858 30.9285 23.7076 31.4526 24.0093C31.9766 24.3112 32.1556 24.979 31.8525 25.5009C28.8918 30.5986 23.3619 34 17.0683 34C7.63461 34.0001 1.29952e-07 26.3967 1.29952e-07 17C1.29952e-07 7.604 7.6338 0 17.0683 0Z" fill="black"/>
<line x1="1" y1="-1" x2="17.6681" y2="-1" transform="matrix(0.708522 -0.705689 0.708522 0.705689 10.7256 25.0227)" stroke="black" stroke-width="2" stroke-linecap="round"/>
<line x1="1" y1="-1" x2="17.6681" y2="-1" transform="matrix(0.708522 0.705689 -0.708522 0.705689 9.31104 12.054)" stroke="black" stroke-width="2" stroke-linecap="round"/>
</svg>
