<svg width="32" height="35" viewBox="0 0 32 35" fill="none" xmlns="http://www.w3.org/2000/svg">
<path d="M17.0683 0C23.3635 0 28.8925 3.41645 31.8524 8.53312C32.1555 9.05709 31.9765 9.72756 31.4525 10.0306C30.9285 10.3337 30.2581 10.1546 29.955 9.63067C27.3803 5.18009 22.5682 2.19204 17.0683 2.19204C8.86551 2.19204 2.19205 8.86543 2.19205 17.0683C2.19205 25.2711 8.86551 31.9445 17.0683 31.9445C22.5716 31.9445 27.3821 28.9535 29.9551 24.5057C30.2581 23.9817 30.9285 23.8027 31.4526 24.1057C31.9766 24.4088 32.1556 25.0792 31.8525 25.6032C28.8918 30.7214 23.3619 34.1365 17.0683 34.1365C7.63461 34.1366 0 26.5027 0 17.0683C0 7.63452 7.6338 0 17.0683 0Z" fill="black"/>
<line x1="8.01465" y1="14.1989" x2="24.7201" y2="14.1989" stroke="black" stroke-width="2" stroke-linecap="round"/>
<line x1="8.01465" y1="20.0432" x2="24.7201" y2="20.0432" stroke="black" stroke-width="2" stroke-linecap="round"/>
</svg>
