<svg width="32" height="30" viewBox="0 0 32 30" fill="none" xmlns="http://www.w3.org/2000/svg">
<path d="M22.2783 13.8313L18.8545 11.4175C18.2341 10.9802 17.3767 11.4255 17.3767 12.1838V13.6601H0.937499C0.41975 13.6601 0 14.0798 0 14.5976C0 15.1153 0.41975 15.5351 0.937499 15.5351H17.3767V17.0113C17.3767 17.7746 18.2387 18.2115 18.8544 17.7776L22.2782 15.3638C22.8072 14.991 22.8068 14.2046 22.2783 13.8313Z" fill="black"/>
<path d="M17.4005 0C12.0158 0 7.28647 2.92231 4.75466 7.29893C4.49541 7.74712 4.64853 8.32062 5.09672 8.57987C5.54497 8.83912 6.11841 8.68587 6.37766 8.23774C8.57997 4.43087 12.696 1.875 17.4005 1.875C24.4169 1.875 30.1251 7.58318 30.1251 14.5996C30.1251 21.616 24.4169 27.3242 17.4005 27.3242C12.6932 27.3242 8.57841 24.7659 6.3776 20.9613C6.11835 20.5131 5.54491 20.36 5.09666 20.6192C4.64847 20.8784 4.49528 21.4519 4.7546 21.9001C7.28704 26.278 12.0172 29.1992 17.4005 29.1992C25.4697 29.1992 32.0001 22.6695 32.0001 14.5996C32.0001 6.53031 25.4704 0 17.4005 0Z" fill="black"/>
</svg>
