<svg width="32" height="29" viewBox="0 0 32 29" fill="none" xmlns="http://www.w3.org/2000/svg">
<path d="M22.2783 13.737L18.8545 11.3397C18.2341 10.9054 17.3767 11.3476 17.3767 12.1007V13.567H0.937499C0.41975 13.567 0 13.9838 0 14.4981C0 15.0123 0.41975 15.4292 0.937499 15.4292H17.3767V16.8953C17.3767 17.6534 18.2387 18.0873 18.8544 17.6564L22.2782 15.2591C22.8072 14.8888 22.8068 14.1078 22.2783 13.737Z" fill="white"/>
<path d="M17.4004 0C12.0157 0 7.28635 2.90238 4.75454 7.24915C4.49529 7.69428 4.64841 8.26386 5.0966 8.52135C5.54485 8.77883 6.11829 8.62662 6.37754 8.18156C8.57985 4.40065 12.6959 1.86221 17.4004 1.86221C24.4167 1.86221 30.125 7.53146 30.125 14.5C30.125 21.4686 24.4167 27.1379 17.4004 27.1379C12.693 27.1379 8.57829 24.5969 6.37748 20.8183C6.11823 20.3732 5.54479 20.2212 5.09654 20.4785C4.64835 20.736 4.49516 21.3056 4.75447 21.7507C7.28691 26.0988 12.017 29 17.4004 29C25.4696 29.0001 32 22.5149 32 14.5C32 6.48577 25.4703 0 17.4004 0Z" fill="white"/>
</svg>
