<svg width="27" height="26" viewBox="0 0 27 26" fill="none" xmlns="http://www.w3.org/2000/svg">
<path fill-rule="evenodd" clip-rule="evenodd" d="M13.3335 26C20.5132 26 26.3335 20.1797 26.3335 13C26.3335 5.8203 20.5132 0 13.3335 0C6.15379 0 0.333496 5.8203 0.333496 13C0.333496 20.1797 6.15379 26 13.3335 26ZM16.9735 7.61755H15.6444C14.6022 7.61755 14.4008 8.12958 14.4002 8.8776V10.6606H16.7521L16.43 13.2486H14.4008V19.76H11.8081V13.248H9.69348V10.66H11.8081V8.62098C11.8081 6.40543 13.1209 5.19999 15.0372 5.19999C15.9556 5.19999 16.7442 5.27097 16.9735 5.30251V7.61755Z" fill="black"/>
</svg>
