<svg width="26" height="26" viewBox="0 0 26 26" fill="none" xmlns="http://www.w3.org/2000/svg">
<path d="M15.4883 13C15.4883 14.3743 14.3743 15.4883 13 15.4883C11.6257 15.4883 10.5117 14.3743 10.5117 13C10.5117 11.6257 11.6257 10.5117 13 10.5117C14.3743 10.5117 15.4883 11.6257 15.4883 13Z" fill="black"/>
<path d="M18.819 8.59749C18.6994 8.27336 18.5086 7.97998 18.2606 7.73917C18.0198 7.49121 17.7266 7.30038 17.4023 7.18077C17.1393 7.07861 16.7441 6.95702 16.0163 6.92389C15.229 6.88799 14.993 6.88025 12.9998 6.88025C11.0065 6.88025 10.7704 6.88779 9.98329 6.92369C9.25549 6.95702 8.86015 7.07861 8.59732 7.18077C8.27299 7.30038 7.97961 7.49121 7.739 7.73917C7.49104 7.97998 7.30022 8.27316 7.1804 8.59749C7.07825 8.86052 6.95665 9.25586 6.92352 9.98366C6.88762 10.7708 6.87988 11.0068 6.87988 13.0002C6.87988 14.9933 6.88762 15.2294 6.92352 16.0167C6.95665 16.7445 7.07825 17.1396 7.1804 17.4027C7.30022 17.727 7.49084 18.0202 7.7388 18.261C7.97961 18.509 8.2728 18.6998 8.59712 18.8194C8.86015 18.9218 9.25549 19.0434 9.98329 19.0765C10.7704 19.1124 11.0063 19.1199 12.9996 19.1199C14.9932 19.1199 15.2292 19.1124 16.0161 19.0765C16.7439 19.0434 17.1393 18.9218 17.4023 18.8194C18.0533 18.5683 18.5679 18.0537 18.819 17.4027C18.9212 17.1396 19.0428 16.7445 19.0761 16.0167C19.112 15.2294 19.1196 14.9933 19.1196 13.0002C19.1196 11.0068 19.112 10.7708 19.0761 9.98366C19.043 9.25586 18.9214 8.86052 18.819 8.59749V8.59749ZM12.9998 16.8332C10.8827 16.8332 9.16643 15.1171 9.16643 13C9.16643 10.8828 10.8827 9.16679 12.9998 9.16679C15.1168 9.16679 16.833 10.8828 16.833 13C16.833 15.1171 15.1168 16.8332 12.9998 16.8332ZM16.9846 9.91106C16.4898 9.91106 16.0887 9.50996 16.0887 9.01524C16.0887 8.52052 16.4898 8.11943 16.9846 8.11943C17.4793 8.11943 17.8804 8.52052 17.8804 9.01524C17.8802 9.50996 17.4793 9.91106 16.9846 9.91106Z" fill="black"/>
<path d="M13 0C5.8214 0 0 5.8214 0 13C0 20.1786 5.8214 26 13 26C20.1786 26 26 20.1786 26 13C26 5.8214 20.1786 0 13 0ZM20.4198 16.0776C20.3837 16.8723 20.2574 17.4148 20.0729 17.8897C19.6851 18.8924 18.8924 19.6851 17.8897 20.0729C17.415 20.2574 16.8723 20.3835 16.0778 20.4198C15.2818 20.4561 15.0275 20.4648 13.0002 20.4648C10.9727 20.4648 10.7186 20.4561 9.92238 20.4198C9.12793 20.3835 8.58521 20.2574 8.11052 20.0729C7.61223 19.8854 7.16115 19.5916 6.78822 19.2118C6.40855 18.8391 6.11478 18.3878 5.92732 17.8897C5.74284 17.415 5.61649 16.8723 5.58038 16.0778C5.54369 15.2816 5.53516 15.0273 5.53516 13C5.53516 10.9727 5.54369 10.7184 5.58018 9.92238C5.61629 9.12773 5.74245 8.58521 5.92693 8.11032C6.11438 7.61223 6.40836 7.16095 6.78822 6.78822C7.16095 6.40836 7.61223 6.11458 8.11032 5.92712C8.58521 5.74265 9.12773 5.61649 9.92238 5.58018C10.7184 5.54388 10.9727 5.53516 13 5.53516C15.0273 5.53516 15.2816 5.54388 16.0776 5.58038C16.8723 5.61649 17.4148 5.74265 17.8897 5.92693C18.3878 6.11438 18.8391 6.40836 19.212 6.78822C19.5916 7.16115 19.8856 7.61223 20.0729 8.11032C20.2576 8.58521 20.3837 9.12773 20.42 9.92238C20.4563 10.7184 20.4648 10.9727 20.4648 13C20.4648 15.0273 20.4563 15.2816 20.4198 16.0776V16.0776Z" fill="black"/>
</svg>
