<svg width="177" height="38" viewBox="0 0 177 38" fill="none" xmlns="http://www.w3.org/2000/svg">
<path fill-rule="evenodd" clip-rule="evenodd" d="M27.0683 19.0126L26.6448 18.1703C25.8817 16.6614 24.8556 15.331 23.6355 14.2206C21.1276 11.92 17.7342 10.5073 14.0008 10.5073C13.9829 10.5073 13.9654 10.5073 13.9475 10.5073C12.3066 10.513 10.7316 10.7919 9.26995 11.2994C6.04778 12.4172 3.37272 14.645 1.73812 17.5055C1.46075 17.9905 1.21341 18.4938 0.997882 19.013C0.354434 20.5669 0.000448083 22.2629 0.000896167 24.0394L0 26.333L0.000448083 34.3779C0.000448083 36.2016 1.5302 37.6792 3.41664 37.6792C5.30352 37.6792 6.83238 36.2011 6.83238 34.3774V27.0558V25.5907C6.79339 24.7284 6.86464 23.3113 6.98965 22.7289C7.24461 21.5366 7.79083 20.4548 8.55705 19.5674C8.72553 19.3729 8.90387 19.188 9.09206 19.0126C10.3386 17.8558 12.0167 17.1451 13.9121 17.1361C13.9242 17.1356 13.9358 17.1356 13.9475 17.1356C15.8635 17.1356 17.7002 17.8095 19.0601 19.0122C19.2331 19.1655 19.3993 19.3274 19.5562 19.4981L31.585 28.0003L27.0683 19.0126Z" fill="white"/>
<path fill-rule="evenodd" clip-rule="evenodd" d="M42.7695 10.4246C41.514 10.4246 40.4144 11.0733 39.8104 12.0425L39.5402 12.58L36.4273 19.0108L31.9519 28.2588L31.8354 28.4992L31.7986 28.4256L31.5845 27.999L19.5557 19.4967C19.9867 19.964 20.3528 20.4928 20.6378 21.0783L27.9514 35.7719L28.0934 36.0569C28.6276 37.0114 29.6236 37.6891 30.7923 37.81C31.5549 37.81 32.2929 37.81 33.0555 37.81C34.2721 37.6848 35.3013 36.9564 35.8171 35.9404C35.8247 35.9256 35.8318 35.9105 35.839 35.8962C36.4399 34.6888 37.0336 33.4783 37.6224 32.2661C39.7642 27.8556 41.842 23.42 43.9852 19.01C44.5475 17.8519 45.1152 16.6956 45.6888 15.5423C45.8035 15.311 45.9191 15.0793 46.0338 14.8485C46.1552 14.5068 46.2216 14.1417 46.2216 13.7606C46.222 11.9187 44.6761 10.4246 42.7695 10.4246Z" fill="url(#paint0_linear)"/>
<path d="M47.5221 6.79937C49.4647 6.79937 51.0395 5.27728 51.0395 3.39969C51.0395 1.52209 49.4647 0 47.5221 0C45.5795 0 44.0046 1.52209 44.0046 3.39969C44.0046 5.27728 45.5795 6.79937 47.5221 6.79937Z" fill="#44097C"/>
<path fill-rule="evenodd" clip-rule="evenodd" d="M70.4636 21.1874L77.848 31.995L77.8476 21.0848C77.8476 20.3763 78.0066 19.847 78.3198 19.4928C78.6335 19.1385 79.0574 18.9592 79.5919 18.9592C80.1395 18.9592 80.5768 19.1342 80.895 19.4885C81.2127 19.8427 81.3717 20.3763 81.3722 21.0848L81.3726 35.4994C81.3726 37.1088 80.6839 37.9113 79.3056 37.9113C78.961 37.9113 78.6519 37.8645 78.3736 37.7662C78.0998 37.6722 77.839 37.5185 77.6007 37.3136C77.3578 37.1044 77.1369 36.861 76.9294 36.5795C76.722 36.3019 76.5141 36.0161 76.3066 35.7259L69.1032 25.0548L69.1036 35.7857C69.1036 36.4856 68.9356 37.0152 68.6 37.3734C68.2599 37.732 67.8271 37.9113 67.3015 37.9113C66.7584 37.9113 66.3211 37.732 65.9944 37.3691C65.6633 37.0061 65.4997 36.4769 65.4997 35.7857L65.4993 21.6487C65.4993 21.0467 65.5701 20.5772 65.7067 20.2359C65.8703 19.8605 66.1441 19.553 66.5236 19.3139C66.9036 19.0792 67.314 18.9597 67.7513 18.9597C68.1004 18.9597 68.3961 19.0151 68.639 19.1221C68.8863 19.2329 69.1028 19.378 69.2883 19.5617C69.4738 19.7453 69.6638 19.98 69.8578 20.2745C70.0531 20.5642 70.2561 20.8674 70.4636 21.1874Z" fill="white"/>
<path fill-rule="evenodd" clip-rule="evenodd" d="M110.271 22.5684L114.785 34.4474C114.948 34.9043 115.111 35.3396 115.275 35.7449C115.438 36.1546 115.632 36.5175 115.849 36.8419C116.07 37.162 116.357 37.4179 116.714 37.6145C117.072 37.8107 117.509 37.909 118.03 37.909C118.547 37.909 118.984 37.8107 119.342 37.6102C119.7 37.4097 119.987 37.1537 120.199 36.8419C120.415 36.5258 120.605 36.1633 120.768 35.7531C120.931 35.3391 121.095 34.9039 121.263 34.447L125.851 22.4697C125.927 22.2519 126.006 22.0427 126.085 21.8378C126.16 21.633 126.226 21.4238 126.275 21.2146C126.328 21.0011 126.355 20.8006 126.355 20.6213C126.355 20.3524 126.275 20.0878 126.116 19.8275C125.957 19.5629 125.736 19.3537 125.458 19.1956C125.175 19.0375 124.87 18.9565 124.544 18.9565C124.098 18.9565 123.744 19.0592 123.484 19.264C123.228 19.4689 123.042 19.6949 122.928 19.9513C122.817 20.2029 122.649 20.6555 122.424 21.3086L118.119 33.683L113.826 21.3944C113.543 20.5451 113.265 19.9262 112.991 19.5377C112.722 19.1493 112.258 18.9574 111.604 18.9574C111.07 18.9574 110.624 19.1324 110.271 19.4823C109.917 19.8322 109.74 20.2207 109.74 20.6434C109.74 20.8097 109.767 21.0145 109.824 21.2579C109.882 21.497 109.948 21.7231 110.032 21.9322C110.111 22.1419 110.191 22.3549 110.271 22.5684Z" fill="white"/>
<path fill-rule="evenodd" clip-rule="evenodd" d="M135.179 22.4182L130.666 34.2976C130.587 34.5111 130.507 34.7246 130.428 34.9338C130.344 35.1429 130.278 35.369 130.221 35.6081C130.163 35.8515 130.137 36.0563 130.137 36.2226C130.137 36.6453 130.313 37.0338 130.667 37.3837C131.02 37.7336 131.466 37.9086 132 37.9086C132.654 37.9086 133.118 37.7167 133.387 37.3283C133.661 36.9398 133.939 36.3209 134.222 35.4716L138.514 23.1825L142.821 35.5565C143.046 36.2096 143.214 36.6622 143.324 36.9138C143.439 37.1697 143.624 37.3962 143.881 37.6011C144.141 37.8059 144.495 37.9086 144.94 37.9086C145.267 37.9086 145.572 37.8276 145.855 37.6695C146.133 37.5114 146.354 37.3023 146.513 37.0377C146.672 36.7774 146.751 36.5128 146.751 36.2438C146.751 36.0645 146.725 35.864 146.672 35.6505C146.623 35.4413 146.557 35.2321 146.482 35.0273C146.403 34.8225 146.323 34.6133 146.248 34.3954L141.659 22.4182C141.491 21.9613 141.328 21.526 141.164 21.112C141.001 20.7023 140.811 20.3394 140.595 20.0236C140.383 19.7123 140.095 19.4559 139.738 19.2554C139.38 19.0549 138.943 18.9565 138.426 18.9565C137.905 18.9565 137.468 19.0548 137.11 19.251C136.753 19.4472 136.465 19.7036 136.245 20.0236C136.028 20.348 135.834 20.711 135.671 21.1207C135.507 21.526 135.343 21.9613 135.179 22.4182Z" fill="white"/>
<path fill-rule="evenodd" clip-rule="evenodd" d="M166.767 22.5546L162.253 34.4335C162.09 34.8904 161.927 35.3257 161.763 35.7311C161.6 36.1407 161.406 36.5037 161.189 36.828C160.968 37.1481 160.681 37.404 160.323 37.6007C159.966 37.7968 159.529 37.8952 159.007 37.8952C158.491 37.8952 158.053 37.7969 157.696 37.5963C157.338 37.3958 157.051 37.1399 156.839 36.828C156.623 36.5119 156.433 36.1494 156.27 35.7393C156.106 35.3253 155.943 34.89 155.775 34.4331L151.187 22.4558C151.111 22.238 151.032 22.0288 150.953 21.824C150.877 21.6191 150.812 21.4099 150.763 21.2008C150.71 20.9873 150.683 20.7867 150.683 20.6075C150.683 20.3385 150.763 20.0739 150.922 19.8136C151.081 19.549 151.302 19.3398 151.58 19.1822C151.863 19.0241 152.167 18.9431 152.494 18.9431C152.94 18.9431 153.293 19.0453 153.554 19.2506C153.81 19.4555 153.996 19.6815 154.11 19.9379C154.221 20.19 154.389 20.6421 154.613 21.2952L158.919 33.6696L163.212 21.3805C163.495 20.5312 163.773 19.9124 164.047 19.5239C164.316 19.1354 164.78 18.9436 165.434 18.9436C165.968 18.9436 166.414 19.1185 166.768 19.4684C167.121 19.8184 167.298 20.2068 167.298 20.6295C167.298 20.7958 167.271 21.0007 167.214 21.2441C167.157 21.4831 167.09 21.7092 167.007 21.9184C166.926 22.1276 166.847 22.3411 166.767 22.5546Z" fill="url(#paint1_linear)"/>
<path fill-rule="evenodd" clip-rule="evenodd" d="M177 35.6592L177 21.219C177 20.4676 176.819 19.9041 176.461 19.5243C176.103 19.1445 175.648 18.9565 175.096 18.9565C174.522 18.9565 174.053 19.1445 173.696 19.52C173.338 19.8955 173.157 20.4589 173.157 21.219L173.158 35.6592C173.158 36.4188 173.339 36.9822 173.696 37.3538C174.054 37.7249 174.522 37.9086 175.097 37.9086C175.658 37.9086 176.117 37.7206 176.47 37.3451C176.823 36.9692 177 36.4101 177 35.6592Z" fill="url(#paint2_linear)"/>
<path fill-rule="evenodd" clip-rule="evenodd" d="M97.4984 23.2763C100.498 24.0199 102.305 26.9726 101.536 29.8717C100.767 32.7707 97.7117 34.5178 94.7122 33.7742C91.7127 33.0306 89.9051 30.0769 90.6745 27.1788C91.4439 24.2797 94.4989 22.5323 97.4984 23.2763ZM105.599 30.879C106.944 25.8115 103.784 20.6492 98.5406 19.3491C93.2976 18.0494 87.9569 21.1031 86.6117 26.171C85.2661 31.2385 88.4265 36.4008 93.6699 37.7005C98.913 39.0006 104.253 35.9469 105.599 30.879Z" fill="white"/>
<defs>
<linearGradient id="paint0_linear" x1="19.7888" y1="35.024" x2="38.6227" y2="16.7577" gradientUnits="userSpaceOnUse">
<stop offset="0.0105" stop-color="#E400E8"/>
<stop offset="1" stop-color="#44097C"/>
</linearGradient>
<linearGradient id="paint1_linear" x1="158.99" y1="19.2478" x2="158.99" y2="35.2502" gradientUnits="userSpaceOnUse">
<stop stop-color="#440A7C"/>
<stop offset="0.9986" stop-color="#A603BE"/>
</linearGradient>
<linearGradient id="paint2_linear" x1="175.079" y1="22.3583" x2="175.079" y2="30.826" gradientUnits="userSpaceOnUse">
<stop stop-color="#440A7C"/>
<stop offset="0.9959" stop-color="#A603BE"/>
</linearGradient>
</defs>
</svg>
