<svg width="52" height="38" viewBox="0 0 52 38" fill="none" xmlns="http://www.w3.org/2000/svg">
<path fill-rule="evenodd" clip-rule="evenodd" d="M27.0683 19.085L26.6449 18.2394C25.8818 16.7247 24.8557 15.3892 23.6355 14.2745C21.1276 11.965 17.7343 10.5469 14.0008 10.5469C13.9829 10.5469 13.9654 10.5469 13.9475 10.5469C12.3066 10.5525 10.7316 10.8325 9.26996 11.342C6.04779 12.4641 3.37273 14.7005 1.73812 17.5721C1.46075 18.059 1.21341 18.5642 0.997883 19.0855C0.354434 20.6454 0.000448084 22.3479 0.000896168 24.1312L0 26.4337L0.000448084 34.5097C0.000448084 36.3405 1.53021 37.8239 3.41664 37.8239C5.30352 37.8239 6.83238 36.34 6.83238 34.5093V27.1593V25.6885C6.7934 24.8229 6.86465 23.4004 6.98966 22.8157C7.24462 21.6188 7.79084 20.5328 8.55706 19.642C8.72554 19.4468 8.90388 19.2611 9.09207 19.085C10.3386 17.9238 12.0167 17.2104 13.9121 17.2012C13.9242 17.2008 13.9359 17.2008 13.9475 17.2008C15.8635 17.2008 17.7002 17.8773 19.0601 19.0846C19.2331 19.2385 19.3993 19.4011 19.5562 19.5724L31.585 28.1075L27.0683 19.085Z" fill="#44097C"/>
<path fill-rule="evenodd" clip-rule="evenodd" d="M42.7695 10.4653C41.514 10.4653 40.4144 11.1166 39.8104 12.0896L39.5402 12.6291L36.4274 19.0848L31.9519 28.3686L31.8354 28.6098L31.7987 28.5359L31.5845 28.1077L19.5557 19.5726C19.9867 20.0417 20.3528 20.5725 20.6378 21.1603L27.9514 35.9107L28.0935 36.1968C28.6276 37.155 29.6237 37.8353 30.7923 37.9566C31.5549 37.9566 32.2929 37.9566 33.0555 37.9566C34.2721 37.831 35.3013 37.0997 35.8171 36.0798C35.8247 36.065 35.8319 36.0498 35.839 36.0355C36.4399 34.8234 37.0336 33.6082 37.6224 32.3913C39.7642 27.9638 41.842 23.511 43.9852 19.0839C44.5475 17.9214 45.1153 16.7606 45.6888 15.6028C45.8035 15.3707 45.9191 15.1381 46.0338 14.9064C46.1553 14.5633 46.2216 14.1968 46.2216 13.8143C46.222 11.9652 44.6761 10.4653 42.7695 10.4653Z" fill="url(#paint0_linear)"/>
<path d="M47.5223 6.82566C49.465 6.82566 51.0398 5.29769 51.0398 3.41283C51.0398 1.52798 49.465 0 47.5223 0C45.5797 0 44.0049 1.52798 44.0049 3.41283C44.0049 5.29769 45.5797 6.82566 47.5223 6.82566Z" fill="#44097C"/>
<defs>
<linearGradient id="paint0_linear" x1="19.7888" y1="35.1599" x2="38.6931" y2="16.8959" gradientUnits="userSpaceOnUse">
<stop offset="0.0105" stop-color="#E400E8"/>
<stop offset="1" stop-color="#44097C"/>
</linearGradient>
</defs>
</svg>
