<svg width="177" height="39" viewBox="0 0 177 39" fill="none" xmlns="http://www.w3.org/2000/svg">
<path fill-rule="evenodd" clip-rule="evenodd" d="M27.0683 19.0852L26.6449 18.2396C25.8818 16.7249 24.8557 15.3893 23.6355 14.2746C21.1276 11.9652 17.7343 10.547 14.0008 10.547C13.9829 10.547 13.9654 10.547 13.9475 10.547C12.3066 10.5526 10.7316 10.8326 9.26996 11.3422C6.04779 12.4643 3.37273 14.7007 1.73812 17.5722C1.46075 18.0591 1.21341 18.5643 0.997883 19.0856C0.354434 20.6455 0.000448084 22.348 0.000896168 24.1314L0 26.4338L0.000448084 34.5098C0.000448084 36.3406 1.53021 37.824 3.41664 37.824C5.30352 37.824 6.83239 36.3402 6.83239 34.5094V27.1594V25.6887C6.7934 24.8231 6.86465 23.4005 6.98966 22.8158C7.24462 21.6189 7.79084 20.5329 8.55706 19.6421C8.72554 19.4469 8.90388 19.2612 9.09207 19.0852C10.3386 17.9239 12.0167 17.2105 13.9121 17.2014C13.9242 17.2009 13.9359 17.2009 13.9475 17.2009C15.8635 17.2009 17.7002 17.8774 19.0601 19.0847C19.2331 19.2386 19.3993 19.4012 19.5562 19.5725L31.585 28.1076L27.0683 19.0852Z" fill="#44097C"/>
<path fill-rule="evenodd" clip-rule="evenodd" d="M42.7695 10.4652C41.514 10.4652 40.4144 11.1165 39.8104 12.0895L39.5402 12.629L36.4274 19.0847L31.9519 28.3684L31.8354 28.6097L31.7987 28.5358L31.5845 28.1076L19.5557 19.5725C19.9867 20.0416 20.3528 20.5724 20.6378 21.1602L27.9514 35.9106L28.0935 36.1966C28.6276 37.1548 29.6237 37.8352 30.7923 37.9565C31.5549 37.9565 32.2929 37.9565 33.0555 37.9565C34.2721 37.8309 35.3013 37.0996 35.8171 36.0797C35.8247 36.0649 35.8319 36.0497 35.839 36.0353C36.4399 34.8232 37.0336 33.6081 37.6224 32.3912C39.7642 27.9637 41.842 23.5109 43.9852 19.0838C44.5475 17.9213 45.1153 16.7605 45.6888 15.6027C45.8035 15.3705 45.9191 15.138 46.0338 14.9062C46.1553 14.5632 46.2216 14.1967 46.2216 13.8141C46.222 11.9651 44.6761 10.4652 42.7695 10.4652Z" fill="url(#paint0_linear)"/>
<path d="M47.5223 6.82566C49.465 6.82566 51.0398 5.29769 51.0398 3.41283C51.0398 1.52798 49.465 0 47.5223 0C45.5797 0 44.0049 1.52798 44.0049 3.41283C44.0049 5.29769 45.5797 6.82566 47.5223 6.82566Z" fill="#44097C"/>
<path fill-rule="evenodd" clip-rule="evenodd" d="M70.4638 21.2689L77.8483 32.1182L77.8478 21.1659C77.8478 20.4546 78.0069 19.9234 78.3201 19.5677C78.6337 19.2121 79.0576 19.0321 79.5922 19.0321C80.1398 19.0321 80.5771 19.2078 80.8952 19.5634C81.2129 19.919 81.372 20.4546 81.3724 21.1659L81.3729 35.6363C81.3729 37.2518 80.6842 38.0574 79.3059 38.0574C78.9613 38.0574 78.6521 38.0105 78.3739 37.9118C78.1001 37.8174 77.8393 37.6631 77.6009 37.4575C77.3581 37.2475 77.1371 37.0032 76.9297 36.7206C76.7222 36.4419 76.5143 36.1549 76.3069 35.8637L69.1035 25.1513L69.1039 35.9237C69.1039 36.6262 68.9359 37.1579 68.6003 37.5175C68.2602 37.8774 67.8273 38.0574 67.3017 38.0574C66.7586 38.0574 66.3213 37.8774 65.9946 37.5131C65.6635 37.1488 65.5 36.6175 65.5 35.9237L65.4995 21.7319C65.4995 21.1276 65.5703 20.6563 65.707 20.3138C65.8705 19.9368 66.1443 19.6282 66.5238 19.3882C66.9038 19.1525 67.3143 19.0325 67.7516 19.0325C68.1006 19.0325 68.3964 19.0882 68.6392 19.1956C68.8866 19.3069 69.103 19.4525 69.2885 19.6369C69.474 19.8212 69.664 20.0568 69.858 20.3525C70.0534 20.6433 70.2564 20.9476 70.4638 21.2689Z" fill="#44097C"/>
<path fill-rule="evenodd" clip-rule="evenodd" d="M110.27 22.6559L114.784 34.5808C114.948 35.0395 115.111 35.4764 115.275 35.8833C115.438 36.2946 115.632 36.6589 115.849 36.9846C116.069 37.3058 116.357 37.5628 116.714 37.7602C117.072 37.9571 117.509 38.0558 118.03 38.0558C118.547 38.0558 118.984 37.9571 119.342 37.7558C119.699 37.5545 119.987 37.2976 120.199 36.9846C120.415 36.6672 120.605 36.3033 120.768 35.8916C120.931 35.476 121.095 35.039 121.263 34.5804L125.851 22.5568C125.926 22.3381 126.006 22.1281 126.085 21.9225C126.16 21.7168 126.226 21.5068 126.275 21.2968C126.328 21.0825 126.354 20.8812 126.354 20.7012C126.354 20.4312 126.275 20.1656 126.116 19.9043C125.957 19.6387 125.736 19.4287 125.458 19.27C125.175 19.1113 124.87 19.03 124.544 19.03C124.098 19.03 123.744 19.1331 123.484 19.3387C123.228 19.5443 123.042 19.7713 122.927 20.0287C122.817 20.2813 122.649 20.7356 122.424 21.3912L118.118 33.8134L113.825 21.4773C113.543 20.6247 113.264 20.0035 112.991 19.6135C112.721 19.2235 112.258 19.0309 111.604 19.0309C111.07 19.0309 110.623 19.2065 110.27 19.5578C109.917 19.9091 109.74 20.2991 109.74 20.7234C109.74 20.8904 109.767 21.096 109.824 21.3403C109.881 21.5803 109.948 21.8072 110.031 22.0172C110.111 22.2277 110.191 22.4416 110.27 22.6559Z" fill="#44097C"/>
<path fill-rule="evenodd" clip-rule="evenodd" d="M135.179 22.505L130.666 34.4304C130.587 34.6447 130.507 34.859 130.428 35.069C130.344 35.279 130.278 35.506 130.221 35.7459C130.163 35.9903 130.137 36.1959 130.137 36.3629C130.137 36.7872 130.313 37.1772 130.667 37.5284C131.02 37.8797 131.466 38.0554 132 38.0554C132.654 38.0554 133.118 37.8628 133.387 37.4728C133.661 37.0828 133.939 36.4615 134.222 35.609L138.514 23.2724L142.821 35.6942C143.046 36.3498 143.214 36.8041 143.324 37.0567C143.439 37.3137 143.624 37.541 143.881 37.7467C144.141 37.9523 144.495 38.0554 144.941 38.0554C145.267 38.0554 145.572 37.9741 145.855 37.8154C146.133 37.6567 146.354 37.4467 146.513 37.1811C146.672 36.9198 146.751 36.6541 146.751 36.3842C146.751 36.2042 146.725 36.0029 146.672 35.7885C146.623 35.5786 146.557 35.3686 146.482 35.1629C146.403 34.9573 146.323 34.7473 146.248 34.5286L141.659 22.505C141.491 22.0464 141.328 21.6094 141.165 21.1938C141.001 20.7825 140.811 20.4182 140.595 20.1013C140.383 19.7887 140.095 19.5313 139.738 19.33C139.38 19.1287 138.943 19.03 138.426 19.03C137.905 19.03 137.468 19.1287 137.11 19.3257C136.753 19.5226 136.465 19.78 136.245 20.1013C136.028 20.4269 135.834 20.7912 135.671 21.2025C135.507 21.6094 135.343 22.0464 135.179 22.505Z" fill="#44097C"/>
<path fill-rule="evenodd" clip-rule="evenodd" d="M166.768 22.6411L162.254 34.566C162.09 35.0246 161.927 35.4616 161.763 35.8685C161.6 36.2798 161.406 36.6441 161.189 36.9697C160.968 37.291 160.681 37.5479 160.324 37.7453C159.966 37.9423 159.529 38.041 159.008 38.041C158.491 38.041 158.054 37.9423 157.696 37.741C157.339 37.5397 157.051 37.2827 156.839 36.9697C156.623 36.6523 156.433 36.2885 156.27 35.8767C156.106 35.4611 155.943 35.0242 155.775 34.5655L151.187 22.5419C151.112 22.3233 151.032 22.1133 150.953 21.9076C150.878 21.702 150.812 21.492 150.763 21.282C150.71 21.0677 150.684 20.8664 150.684 20.6864C150.684 20.4164 150.763 20.1508 150.922 19.8895C151.081 19.6239 151.302 19.4139 151.58 19.2556C151.863 19.0969 152.168 19.0156 152.494 19.0156C152.94 19.0156 153.294 19.1182 153.554 19.3243C153.81 19.53 153.996 19.7569 154.111 20.0143C154.221 20.2673 154.389 20.7212 154.614 21.3768L158.919 33.799L163.212 21.4624C163.495 20.6099 163.773 19.9886 164.047 19.5986C164.317 19.2087 164.78 19.0161 165.434 19.0161C165.969 19.0161 166.414 19.1917 166.768 19.543C167.122 19.8943 167.298 20.2842 167.298 20.7086C167.298 20.8755 167.272 21.0812 167.214 21.3255C167.157 21.5655 167.091 21.7924 167.007 22.0024C166.927 22.2124 166.847 22.4267 166.768 22.6411Z" fill="url(#paint1_linear)"/>
<path fill-rule="evenodd" clip-rule="evenodd" d="M177 35.7972L177 21.3012C177 20.5469 176.819 19.9813 176.461 19.6C176.103 19.2187 175.648 19.03 175.096 19.03C174.522 19.03 174.053 19.2187 173.696 19.5956C173.338 19.9726 173.157 20.5382 173.157 21.3012L173.158 35.7972C173.158 36.5598 173.339 37.1254 173.696 37.4984C174.054 37.871 174.522 38.0554 175.097 38.0554C175.658 38.0554 176.117 37.8667 176.47 37.4897C176.823 37.1124 177 36.5511 177 35.7972Z" fill="url(#paint2_linear)"/>
<path fill-rule="evenodd" clip-rule="evenodd" d="M97.4979 23.367C100.497 24.1135 102.305 27.0776 101.536 29.9879C100.766 32.8981 97.7112 34.6519 94.7117 33.9054C91.7122 33.159 89.9047 30.1939 90.674 27.2845C91.4434 24.3743 94.4984 22.6201 97.4979 23.367ZM105.598 30.9991C106.944 25.912 103.784 20.7297 98.5401 19.4246C93.2971 18.1199 87.9564 21.1854 86.6112 26.2729C85.2656 31.3599 88.426 36.5422 93.6695 37.8469C98.9125 39.1521 104.253 36.0866 105.598 30.9991Z" fill="#44097C"/>
<defs>
<linearGradient id="paint0_linear" x1="19.7888" y1="35.1597" x2="38.6931" y2="16.8958" gradientUnits="userSpaceOnUse">
<stop offset="0.0105" stop-color="#E400E8"/>
<stop offset="1" stop-color="#44097C"/>
</linearGradient>
<linearGradient id="paint1_linear" x1="158.99" y1="19.3215" x2="158.99" y2="35.3858" gradientUnits="userSpaceOnUse">
<stop stop-color="#440A7C"/>
<stop offset="0.9986" stop-color="#A603BE"/>
</linearGradient>
<linearGradient id="paint2_linear" x1="175.079" y1="22.4449" x2="175.079" y2="30.9454" gradientUnits="userSpaceOnUse">
<stop stop-color="#440A7C"/>
<stop offset="0.9959" stop-color="#A603BE"/>
</linearGradient>
</defs>
</svg>
