<svg width="27" height="26" viewBox="0 0 27 26" fill="none" xmlns="http://www.w3.org/2000/svg">
<g clip-path="url(#clip0)">
<path d="M13.6665 0C6.48705 0 0.666504 5.82028 0.666504 13C0.666504 20.1797 6.48705 26 13.6665 26C20.846 26 26.6665 20.1797 26.6665 13C26.6665 5.82028 20.846 0 13.6665 0ZM20.2608 14.406C20.8667 14.9978 21.5077 15.5548 22.0517 16.2078C22.2927 16.4966 22.5198 16.7953 22.6927 17.1313C22.9395 17.6103 22.7166 18.1356 22.2879 18.1641L19.6246 18.1636C18.9367 18.2205 18.3893 17.9431 17.9278 17.4728C17.5595 17.098 17.2177 16.6977 16.8628 16.3102C16.7179 16.1511 16.5652 16.0014 16.3833 15.8835C16.0202 15.6473 15.7047 15.7197 15.4967 16.099C15.2848 16.4849 15.2363 16.9126 15.2161 17.3422C15.1871 17.9702 14.9978 18.1343 14.3676 18.1638C13.0212 18.2269 11.7437 18.0226 10.5563 17.3438C9.5089 16.7451 8.69818 15.9 7.99172 14.9433C6.61605 13.0782 5.56248 11.0312 4.61584 8.92538C4.40279 8.45113 4.55866 8.19738 5.08185 8.18754C5.95109 8.17078 6.82032 8.17291 7.68956 8.18674C8.04332 8.19233 8.27739 8.39474 8.41331 8.72855C8.88304 9.88426 9.45889 10.9838 10.1805 12.0036C10.3728 12.2752 10.5691 12.546 10.8487 12.7377C11.1572 12.9495 11.3923 12.8795 11.5378 12.5351C11.6309 12.3162 11.6711 12.0821 11.6913 11.8475C11.7605 11.0439 11.7687 10.2407 11.649 9.44033C11.5745 8.93948 11.2929 8.61604 10.7936 8.52135C10.5393 8.47321 10.5766 8.37905 10.7002 8.23382C10.9149 7.98273 11.116 7.8274 11.5179 7.8274L14.527 7.82686C15.0012 7.91996 15.1076 8.13275 15.172 8.61046L15.1746 11.9544C15.1691 12.1393 15.2675 12.6872 15.5994 12.8082C15.8654 12.896 16.0409 12.6827 16.2 12.5143C16.9216 11.7485 17.4358 10.8447 17.8962 9.90926C18.0994 9.49672 18.2747 9.06981 18.4449 8.64211C18.5715 8.32585 18.7684 8.17025 19.1253 8.17557L22.0229 8.17903C22.1083 8.17903 22.195 8.17983 22.2796 8.19446C22.768 8.27797 22.9018 8.4881 22.7507 8.96448C22.5129 9.71296 22.0509 10.3364 21.5992 10.9615C21.1151 11.6307 20.5989 12.2765 20.1196 12.9487C19.6791 13.5631 19.7139 13.8724 20.2608 14.406Z" fill="black"/>
</g>
<defs>
<clipPath id="clip0">
<rect width="26" height="26" fill="white" transform="translate(0.666504)"/>
</clipPath>
</defs>
</svg>
