<svg width="20" height="20" viewBox="0 0 20 20" fill="none" xmlns="http://www.w3.org/2000/svg">
<path d="M14.5862 0H5.41381C2.42858 0 0 2.42858 0 5.41381V14.5863C0 17.5714 2.42858 20 5.41381 20H14.5863C17.5714 20 20 17.5714 20 14.5863V5.41381C20 2.42858 17.5714 0 14.5862 0V0ZM18.8275 14.5863C18.8275 16.9249 16.9249 18.8275 14.5862 18.8275H5.41381C3.0751 18.8275 1.17248 16.9249 1.17248 14.5863V5.41381C1.17248 3.0751 3.0751 1.17248 5.41381 1.17248H14.5863C16.9249 1.17248 18.8275 3.0751 18.8275 5.41381V14.5863Z" fill="#6A6A6A"/>
<path d="M10 5C7.24295 5 5 7.24295 5 10C5 12.7571 7.24295 15 10 15C12.7571 15 15 12.7571 15 10C15 7.24295 12.7571 5 10 5ZM10 13.928C7.8342 13.928 6.07202 12.1659 6.07202 10C6.07202 7.8342 7.8342 6.07202 10 6.07202C12.1659 6.07202 13.928 7.8342 13.928 10C13.928 12.1659 12.1659 13.928 10 13.928Z" fill="#6A6A6A"/>
<path d="M15.5993 2.58984C14.7082 2.58984 13.9834 3.31479 13.9834 4.20575C13.9834 5.09686 14.7082 5.8218 15.5993 5.8218C16.4904 5.8218 17.2154 5.09686 17.2154 4.20575C17.2154 3.31463 16.4904 2.58984 15.5993 2.58984ZM15.5993 4.64917C15.3549 4.64917 15.1559 4.45019 15.1559 4.20575C15.1559 3.96115 15.3549 3.76233 15.5993 3.76233C15.8439 3.76233 16.0429 3.96115 16.0429 4.20575C16.0429 4.45019 15.8439 4.64917 15.5993 4.64917Z" fill="#6A6A6A"/>
</svg>
