<svg width="16" height="16" viewBox="0 0 16 16" fill="none" xmlns="http://www.w3.org/2000/svg">
<path d="M11.3335 3.99967H14.6668V5.33301H13.3335V13.9997C13.3335 14.1765 13.2633 14.3461 13.1382 14.4711C13.0132 14.5961 12.8436 14.6663 12.6668 14.6663H3.3335C3.15669 14.6663 2.98712 14.5961 2.86209 14.4711C2.73707 14.3461 2.66683 14.1765 2.66683 13.9997V5.33301H1.3335V3.99967H4.66683V1.99967C4.66683 1.82286 4.73707 1.65329 4.86209 1.52827C4.98712 1.40325 5.15669 1.33301 5.3335 1.33301H10.6668C10.8436 1.33301 11.0132 1.40325 11.1382 1.52827C11.2633 1.65329 11.3335 1.82286 11.3335 1.99967V3.99967ZM12.0002 5.33301H4.00016V13.333H12.0002V5.33301ZM6.00016 7.33301H7.3335V11.333H6.00016V7.33301ZM8.66683 7.33301H10.0002V11.333H8.66683V7.33301ZM6.00016 2.66634V3.99967H10.0002V2.66634H6.00016Z" fill="black"/>
</svg>
