<svg width="16" height="16" viewBox="0 0 16 16" fill="none" xmlns="http://www.w3.org/2000/svg">
<path d="M12.6667 5.33332H11.9048V3.8095C11.9048 1.70668 10.1981 0 8.09525 0C5.99239 0 4.28571 1.70668 4.28571 3.80954H5.73332C5.73332 2.50668 6.79236 1.44764 8.09521 1.44764C9.39807 1.44764 10.4571 2.50668 10.4571 3.80954V5.33336H5.73332V3.80954L4.29271 3.57693L4.28571 5.33336H3.52382C2.68193 5.33336 2 6.01525 2 6.85718V14.4762C2 15.3181 2.68193 16 3.52382 16H12.6667C13.5086 16 14.1905 15.3181 14.1905 14.4762V6.85714C14.1905 6.01525 13.5086 5.33332 12.6667 5.33332ZM12.6667 14.4762H3.52382V6.85714H12.6667V14.4762Z" fill="black"/>
<path d="M7.9994 12.1904C8.84129 12.1904 9.52322 11.5085 9.52322 10.6666C9.52322 9.82471 8.84129 9.14282 7.9994 9.14282C7.15751 9.14282 6.47559 9.82471 6.47559 10.6666C6.47559 11.5085 7.15751 12.1904 7.9994 12.1904Z" fill="black"/>
</svg>
