<svg width="16" height="16" viewBox="0 0 16 16" fill="none" xmlns="http://www.w3.org/2000/svg">
<g clip-path="url(#clip0)">
<path d="M15.7626 7.64959C15.7448 7.6234 15.5867 7.39037 15.5014 7.27912C15.1033 6.75981 14.171 5.54365 12.8857 4.47981C11.2761 3.14762 9.63231 2.47215 8 2.47215C6.36769 2.47215 4.72394 3.14765 3.11438 4.47984C1.82903 5.54365 0.896719 6.75981 0.498563 7.27918C0.413344 7.3904 0.255188 7.62337 0.237406 7.64959L0 7.99996L0.237344 8.35034C0.255094 8.37653 0.413281 8.60962 0.498563 8.7209C0.896688 9.24021 1.82903 10.4564 3.11434 11.5202C4.72391 12.8524 6.36769 13.5279 8 13.5279C9.63231 13.5279 11.2761 12.8524 12.8857 11.5202C14.171 10.4563 15.1033 9.24018 15.5014 8.72087C15.5867 8.60962 15.7449 8.37656 15.7627 8.35031L16 7.99993L15.7626 7.64959ZM8 12.2786C5.88644 12.2786 3.70641 10.839 1.52009 8C3.70644 5.1609 5.88644 3.72137 8 3.72137C10.1136 3.72137 12.2936 5.16093 14.4799 8C12.2936 10.8391 10.1136 12.2786 8 12.2786Z" fill="black" stroke="black" stroke-width="0.3"/>
<path d="M8 5.00006C6.3458 5.00006 5 6.34583 5 8.00006C5 9.65426 6.34577 11.0001 8 11.0001C9.65423 11.0001 11 9.65426 11 8.00006C11 6.34583 9.6542 5.00006 8 5.00006ZM8 9.94741C6.92621 9.94741 6.05265 9.07383 6.05265 8.00006C6.05265 6.9263 6.92621 6.05271 8 6.05271C9.07379 6.05271 9.94735 6.92627 9.94735 8.00006C9.94735 9.07383 9.07379 9.94741 8 9.94741Z" fill="black" stroke="black" stroke-width="0.3"/>
</g>
<defs>
<clipPath id="clip0">
<rect width="16" height="16" fill="white"/>
</clipPath>
</defs>
</svg>
