<svg width="187" height="41" viewBox="0 0 187 41" fill="none" xmlns="http://www.w3.org/2000/svg">
<path fill-rule="evenodd" clip-rule="evenodd" d="M28.5039 20.0982L28.058 19.2077C27.2545 17.6127 26.1739 16.2063 24.8891 15.0325C22.2482 12.6006 18.6748 11.1072 14.7434 11.1072C14.7245 11.1072 14.7061 11.1072 14.6872 11.1072C12.9593 11.1131 11.3008 11.408 9.76161 11.9445C6.36855 13.1261 3.55161 15.4811 1.8303 18.505C1.53823 19.0177 1.27777 19.5497 1.05081 20.0986C0.373233 21.7413 0.000471849 23.5341 0.000943698 25.412L0 27.8366L0.000471849 36.3409C0.000471849 38.2688 1.61136 39.8309 3.59785 39.8309C5.58481 39.8309 7.19476 38.2683 7.19476 36.3405V28.6007V27.0519C7.15371 26.1404 7.22873 24.6424 7.36037 24.0267C7.62886 22.7663 8.20404 21.6227 9.0109 20.6846C9.18832 20.4791 9.37611 20.2836 9.57429 20.0982C10.887 18.8754 12.6541 18.1241 14.65 18.1145C14.6627 18.114 14.675 18.114 14.6872 18.114C16.7049 18.114 18.639 18.8264 20.071 20.0977C20.2532 20.2598 20.4282 20.431 20.5934 20.6114L33.2602 29.5992L28.5039 20.0982Z" fill="#44097C"/>
<path fill-rule="evenodd" clip-rule="evenodd" d="M45.0379 11.0198C43.7157 11.0198 42.5578 11.7056 41.9218 12.7302L41.6372 13.2983L38.3593 20.0964L33.6465 29.8725L33.5238 30.1266L33.4851 30.0488L33.2596 29.5978L20.5928 20.6101C21.0467 21.104 21.4322 21.663 21.7323 22.282L29.4338 37.8147L29.5834 38.1159C30.1458 39.125 31.1948 39.8414 32.4253 39.9692C33.2284 39.9692 34.0056 39.9692 34.8086 39.9692C36.0897 39.8368 37.1735 39.0668 37.7166 37.9928C37.7247 37.9772 37.7322 37.9612 37.7398 37.9461C38.3725 36.6697 38.9977 35.3901 39.6177 34.1087C41.8732 29.4463 44.0611 24.7574 46.318 20.0955C46.9102 18.8713 47.508 17.6489 48.112 16.4298C48.2327 16.1853 48.3545 15.9404 48.4753 15.6963C48.6031 15.3351 48.673 14.9492 48.673 14.5463C48.6735 12.5992 47.0456 11.0198 45.0379 11.0198Z" fill="url(#paint0_linear)"/>
<path d="M50.0429 7.18768C52.0886 7.18768 53.7469 5.57866 53.7469 3.59384C53.7469 1.60902 52.0886 0 50.0429 0C47.9972 0 46.3389 1.60902 46.3389 3.59384C46.3389 5.57866 47.9972 7.18768 50.0429 7.18768Z" fill="#44097C"/>
<path fill-rule="evenodd" clip-rule="evenodd" d="M74.2008 22.3975L81.9768 33.8222L81.9764 22.289C81.9764 21.54 82.1439 20.9805 82.4737 20.606C82.804 20.2315 83.2504 20.042 83.8133 20.042C84.3899 20.042 84.8504 20.227 85.1854 20.6014C85.5199 20.9759 85.6875 21.54 85.6879 22.289L85.6884 37.5268C85.6884 39.2281 84.9632 40.0764 83.5118 40.0764C83.1489 40.0764 82.8233 40.0269 82.5303 39.923C82.242 39.8237 81.9674 39.6611 81.7164 39.4446C81.4606 39.2235 81.228 38.9662 81.0095 38.6686C80.7911 38.3751 80.5721 38.073 80.3537 37.7662L72.7682 26.4857L72.7687 37.8294C72.7687 38.5692 72.5918 39.1292 72.2383 39.5078C71.8802 39.8868 71.4244 40.0764 70.8709 40.0764C70.299 40.0764 69.8385 39.8868 69.4945 39.5032C69.1458 39.1195 68.9736 38.5601 68.9736 37.8294L68.9731 22.885C68.9731 22.2486 69.0477 21.7524 69.1916 21.3916C69.3638 20.9947 69.6521 20.6697 70.0518 20.4169C70.4519 20.1688 70.8841 20.0425 71.3447 20.0425C71.7122 20.0425 72.0237 20.1011 72.2794 20.2141C72.5399 20.3313 72.7678 20.4847 72.9631 20.6788C73.1584 20.8729 73.3585 21.1211 73.5628 21.4324C73.7685 21.7387 73.9823 22.0591 74.2008 22.3975Z" fill="#44097C"/>
<path fill-rule="evenodd" clip-rule="evenodd" d="M116.119 23.8572L120.872 36.4146C121.044 36.8976 121.216 37.3577 121.388 37.7862C121.561 38.2193 121.765 38.6029 121.993 38.9458C122.225 39.2842 122.528 39.5547 122.904 39.7626C123.281 39.97 123.741 40.0739 124.29 40.0739C124.834 40.0739 125.295 39.97 125.671 39.758C126.048 39.546 126.35 39.2755 126.573 38.9458C126.801 38.6116 127.001 38.2285 127.173 37.7949C127.345 37.3572 127.517 36.8971 127.694 36.4141L132.526 23.7528C132.605 23.5226 132.689 23.3014 132.772 23.0849C132.851 22.8684 132.921 22.6472 132.972 22.4261C133.028 22.2004 133.056 21.9884 133.056 21.7989C133.056 21.5146 132.972 21.2349 132.805 20.9597C132.637 20.68 132.405 20.4589 132.112 20.2918C131.814 20.1247 131.493 20.0391 131.149 20.0391C130.68 20.0391 130.307 20.1476 130.033 20.3641C129.763 20.5807 129.568 20.8196 129.447 21.0907C129.331 21.3566 129.154 21.8351 128.917 22.5254L124.383 35.6066L119.862 22.6161C119.565 21.7183 119.272 21.0641 118.983 20.6535C118.7 20.2428 118.211 20.04 117.523 20.04C116.961 20.04 116.491 20.2249 116.119 20.5948C115.746 20.9648 115.561 21.3754 115.561 21.8223C115.561 21.9981 115.588 22.2146 115.649 22.4719C115.709 22.7246 115.779 22.9636 115.867 23.1847C115.951 23.4063 116.035 23.6315 116.119 23.8572Z" fill="#44097C"/>
<path fill-rule="evenodd" clip-rule="evenodd" d="M142.349 23.6984L137.597 36.2562C137.513 36.4819 137.429 36.7076 137.346 36.9287C137.258 37.1498 137.188 37.3888 137.127 37.6415C137.067 37.8988 137.039 38.1154 137.039 38.2912C137.039 38.738 137.225 39.1487 137.597 39.5186C137.969 39.8885 138.439 40.0734 139.001 40.0734C139.69 40.0734 140.178 39.8706 140.462 39.46C140.75 39.0493 141.043 38.3951 141.341 37.4973L145.861 24.5064L150.396 37.5871C150.633 38.2774 150.81 38.7558 150.926 39.0218C151.047 39.2924 151.242 39.5318 151.512 39.7484C151.786 39.9649 152.159 40.0734 152.628 40.0734C152.972 40.0734 153.293 39.9878 153.591 39.8207C153.884 39.6536 154.116 39.4325 154.284 39.1528C154.451 38.8776 154.535 38.5979 154.535 38.3136C154.535 38.1241 154.507 37.9121 154.451 37.6864C154.4 37.4653 154.33 37.2442 154.251 37.0276C154.168 36.8111 154.084 36.5899 154.005 36.3597L149.173 23.6984C148.996 23.2154 148.824 22.7553 148.652 22.3176C148.48 21.8845 148.279 21.5009 148.052 21.1671C147.828 20.8379 147.526 20.5669 147.149 20.355C146.773 20.143 146.312 20.0391 145.768 20.0391C145.22 20.0391 144.759 20.143 144.382 20.3504C144.006 20.5578 143.703 20.8288 143.471 21.1671C143.243 21.51 143.038 21.8937 142.866 22.3268C142.694 22.7553 142.521 23.2154 142.349 23.6984Z" fill="#44097C"/>
<path fill-rule="evenodd" clip-rule="evenodd" d="M175.613 23.8426L170.859 36.4C170.687 36.883 170.515 37.3431 170.343 37.7716C170.171 38.2047 169.967 38.5883 169.739 38.9312C169.506 39.2696 169.204 39.5401 168.827 39.748C168.451 39.9554 167.99 40.0593 167.441 40.0593C166.897 40.0593 166.437 39.9554 166.06 39.7434C165.684 39.5314 165.381 39.2609 165.158 38.9312C164.93 38.597 164.73 38.2138 164.558 37.7803C164.386 37.3426 164.214 36.8825 164.037 36.3995L159.206 23.7382C159.126 23.508 159.043 23.2868 158.959 23.0703C158.88 22.8537 158.811 22.6326 158.759 22.4115C158.704 22.1858 158.676 21.9738 158.676 21.7843C158.676 21.5 158.759 21.2203 158.927 20.9451C159.094 20.6654 159.327 20.4443 159.62 20.2776C159.918 20.1105 160.239 20.0249 160.583 20.0249C161.052 20.0249 161.424 20.133 161.698 20.35C161.968 20.5665 162.164 20.8055 162.284 21.0765C162.401 21.3429 162.578 21.8209 162.814 22.5113L167.348 35.5924L171.869 22.6015C172.167 21.7037 172.46 21.0495 172.748 20.6388C173.032 20.2282 173.52 20.0254 174.209 20.0254C174.772 20.0254 175.241 20.2103 175.613 20.5802C175.986 20.9501 176.171 21.3608 176.171 21.8076C176.171 21.9834 176.144 22.2 176.083 22.4573C176.023 22.71 175.953 22.949 175.865 23.1701C175.78 23.3912 175.697 23.6169 175.613 23.8426Z" fill="url(#paint1_linear)"/>
<path fill-rule="evenodd" clip-rule="evenodd" d="M186.388 37.6956L186.387 22.4307C186.387 21.6364 186.197 21.0407 185.82 20.6392C185.443 20.2377 184.964 20.0391 184.383 20.0391C183.778 20.0391 183.285 20.2378 182.908 20.6347C182.532 21.0316 182.341 21.6272 182.341 22.4307L182.342 37.6956C182.342 38.4986 182.532 39.0942 182.909 39.487C183.286 39.8793 183.779 40.0734 184.383 40.0734C184.974 40.0734 185.458 39.8747 185.83 39.4778C186.202 39.0804 186.388 38.4894 186.388 37.6956Z" fill="url(#paint2_linear)"/>
<path fill-rule="evenodd" clip-rule="evenodd" d="M102.669 24.6056C105.828 25.3916 107.731 28.513 106.921 31.5776C106.111 34.6422 102.894 36.489 99.7354 35.7029C96.5768 34.9169 94.6734 31.7946 95.4836 28.7309C96.2937 25.6663 99.5108 23.819 102.669 24.6056ZM111.199 32.6425C112.616 27.2856 109.288 21.8284 103.767 20.4541C98.2458 19.0802 92.6218 22.3082 91.2053 27.6656C89.7884 33.0225 93.1163 38.4796 98.6379 39.8535C104.159 41.2278 109.782 37.9998 111.199 32.6425Z" fill="#44097C"/>
<defs>
<linearGradient id="paint0_linear" x1="20.8382" y1="37.024" x2="40.7452" y2="17.7914" gradientUnits="userSpaceOnUse">
<stop offset="0.0105" stop-color="#E400E8"/>
<stop offset="1" stop-color="#44097C"/>
</linearGradient>
<linearGradient id="paint1_linear" x1="167.423" y1="20.347" x2="167.423" y2="37.2633" gradientUnits="userSpaceOnUse">
<stop stop-color="#440A7C"/>
<stop offset="0.9986" stop-color="#A603BE"/>
</linearGradient>
<linearGradient id="paint2_linear" x1="184.365" y1="23.6351" x2="184.365" y2="32.5864" gradientUnits="userSpaceOnUse">
<stop stop-color="#440A7C"/>
<stop offset="0.9959" stop-color="#A603BE"/>
</linearGradient>
</defs>
</svg>
