<svg width="26" height="26" viewBox="0 0 26 26" fill="none" xmlns="http://www.w3.org/2000/svg">
<path d="M15.4883 13C15.4883 14.3743 14.3743 15.4883 13 15.4883C11.6257 15.4883 10.5117 14.3743 10.5117 13C10.5117 11.6257 11.6257 10.5117 13 10.5117C14.3743 10.5117 15.4883 11.6257 15.4883 13Z" fill="#44097C"/>
<path d="M18.8192 8.59749C18.6995 8.27336 18.5087 7.97998 18.2608 7.73917C18.0199 7.49121 17.7268 7.30038 17.4024 7.18077C17.1394 7.07861 16.7443 6.95702 16.0165 6.92389C15.2292 6.88799 14.9931 6.88025 12.9999 6.88025C11.0066 6.88025 10.7705 6.88779 9.98341 6.92369C9.25561 6.95702 8.86028 7.07861 8.59744 7.18077C8.27312 7.30038 7.97974 7.49121 7.73912 7.73917C7.49117 7.97998 7.30034 8.27316 7.18053 8.59749C7.07837 8.86052 6.95677 9.25586 6.92365 9.98366C6.88774 10.7708 6.88 11.0068 6.88 13.0002C6.88 14.9933 6.88774 15.2294 6.92365 16.0167C6.95677 16.7445 7.07837 17.1396 7.18053 17.4027C7.30034 17.727 7.49097 18.0202 7.73892 18.261C7.97974 18.509 8.27292 18.6998 8.59724 18.8194C8.86028 18.9218 9.25561 19.0434 9.98341 19.0765C10.7705 19.1124 11.0064 19.1199 12.9997 19.1199C14.9933 19.1199 15.2294 19.1124 16.0163 19.0765C16.7441 19.0434 17.1394 18.9218 17.4024 18.8194C18.0535 18.5683 18.568 18.0537 18.8192 17.4027C18.9213 17.1396 19.0429 16.7445 19.0762 16.0167C19.1121 15.2294 19.1197 14.9933 19.1197 13.0002C19.1197 11.0068 19.1121 10.7708 19.0762 9.98366C19.0431 9.25586 18.9215 8.86052 18.8192 8.59749ZM12.9999 16.8332C10.8828 16.8332 9.16655 15.1171 9.16655 13C9.16655 10.8828 10.8828 9.16679 12.9999 9.16679C15.1169 9.16679 16.8331 10.8828 16.8331 13C16.8331 15.1171 15.1169 16.8332 12.9999 16.8332ZM16.9847 9.91106C16.49 9.91106 16.0889 9.50996 16.0889 9.01524C16.0889 8.52052 16.49 8.11943 16.9847 8.11943C17.4794 8.11943 17.8805 8.52052 17.8805 9.01524C17.8803 9.50996 17.4794 9.91106 16.9847 9.91106Z" fill="#44097C"/>
<path d="M13 0C5.8214 0 0 5.8214 0 13C0 20.1786 5.8214 26 13 26C20.1786 26 26 20.1786 26 13C26 5.8214 20.1786 0 13 0ZM20.4198 16.0776C20.3837 16.8723 20.2574 17.4148 20.0729 17.8897C19.6851 18.8924 18.8924 19.6851 17.8897 20.0729C17.415 20.2574 16.8723 20.3835 16.0778 20.4198C15.2818 20.4561 15.0275 20.4648 13.0002 20.4648C10.9727 20.4648 10.7186 20.4561 9.92238 20.4198C9.12793 20.3835 8.58521 20.2574 8.11052 20.0729C7.61223 19.8854 7.16115 19.5916 6.78822 19.2118C6.40855 18.8391 6.11478 18.3878 5.92732 17.8897C5.74284 17.415 5.61649 16.8723 5.58038 16.0778C5.54369 15.2816 5.53516 15.0273 5.53516 13C5.53516 10.9727 5.54369 10.7184 5.58018 9.92238C5.61629 9.12773 5.74245 8.58521 5.92693 8.11032C6.11438 7.61223 6.40836 7.16095 6.78822 6.78822C7.16095 6.40836 7.61223 6.11458 8.11032 5.92712C8.58521 5.74265 9.12773 5.61649 9.92238 5.58018C10.7184 5.54388 10.9727 5.53516 13 5.53516C15.0273 5.53516 15.2816 5.54388 16.0776 5.58038C16.8723 5.61649 17.4148 5.74265 17.8897 5.92693C18.3878 6.11438 18.8391 6.40836 19.212 6.78822C19.5916 7.16115 19.8856 7.61223 20.0729 8.11032C20.2576 8.58521 20.3837 9.12773 20.42 9.92238C20.4563 10.7184 20.4648 10.9727 20.4648 13C20.4648 15.0273 20.4563 15.2816 20.4198 16.0776Z" fill="#44097C"/>
</svg>
