<svg width="27" height="26" viewBox="0 0 27 26" fill="none" xmlns="http://www.w3.org/2000/svg">
<g clip-path="url(#clip0)">
<path d="M13.6665 26C20.8479 26 26.6665 20.1814 26.6665 13C26.6665 5.81858 20.8479 0 13.6665 0C6.48509 0 0.666504 5.81858 0.666504 13C0.666504 20.1814 6.48509 26 13.6665 26ZM6.61509 12.7183L19.1493 7.88558C19.731 7.67542 20.2391 8.0275 20.0506 8.90717L20.0517 8.90608L17.9175 18.9605C17.7593 19.6733 17.3358 19.8467 16.7432 19.5108L13.4932 17.1156L11.9256 18.6258C11.7523 18.7991 11.606 18.9453 11.2702 18.9453L11.5009 15.6379L17.5243 10.1963C17.7864 9.96558 17.4658 9.83558 17.1202 10.0653L9.67659 14.7517L6.46775 13.7508C5.77117 13.5297 5.756 13.0542 6.61509 12.7183Z" fill="#44097C"/>
</g>
<defs>
<clipPath id="clip0">
<rect width="26" height="26" fill="white" transform="translate(0.666504)"/>
</clipPath>
</defs>
</svg>
