<svg width="26" height="26" viewBox="0 0 26 26" fill="none" xmlns="http://www.w3.org/2000/svg">
<path fill-rule="evenodd" clip-rule="evenodd" d="M13 26C20.1797 26 26 20.1797 26 13C26 5.8203 20.1797 0 13 0C5.8203 0 0 5.8203 0 13C0 20.1797 5.8203 26 13 26ZM18.8972 7.95407C19.5113 8.11947 19.9956 8.60369 20.1609 9.21794C20.468 10.3399 20.4562 12.6784 20.4562 12.6784C20.4562 12.6784 20.4562 15.005 20.161 16.1271C19.9956 16.7412 19.5114 17.2254 18.8972 17.3908C17.7752 17.6861 13.2872 17.6861 13.2872 17.6861C13.2872 17.6861 8.81088 17.6861 7.67714 17.379C7.06288 17.2136 6.57875 16.7294 6.41335 16.1152C6.11808 15.005 6.11808 12.6666 6.11808 12.6666C6.11808 12.6666 6.11808 10.3399 6.41335 9.21794C6.57858 8.60377 7.07469 8.10766 7.67705 7.94243C8.79906 7.64707 13.287 7.64707 13.287 7.64707C13.287 7.64707 17.7752 7.64707 18.8972 7.95407ZM11.8581 10.5171V14.8161L15.5902 12.6666L11.8581 10.5171Z" fill="#44097C"/>
</svg>
