<svg width="10" height="10" viewBox="0 0 10 10" fill="none" xmlns="http://www.w3.org/2000/svg">
<g clip-path="url(#clip0)">
<path d="M6.21298 2.49564C6.03708 2.31974 6.03708 2.0428 6.21298 1.86689C6.38889 1.69693 6.66583 1.69693 6.84173 1.86689L9.47678 4.50154C9.55839 4.58316 9.60871 4.69646 9.60871 4.82206C9.60871 4.94765 9.55839 5.06096 9.47678 5.14297L6.84173 7.77762C6.66583 7.95352 6.38889 7.95352 6.21298 7.77762C6.03708 7.60171 6.03708 7.32477 6.21298 7.14887L8.09963 5.26856L1.40208 5.26856C1.15684 5.26896 0.961914 5.06769 0.961914 4.82245C0.961914 4.57721 1.15684 4.38229 1.40208 4.38229L8.09923 4.38229L6.21298 2.49564Z" fill="url(#paint0_linear)"/>
</g>
<defs>
<linearGradient id="paint0_linear" x1="9.11203" y1="7.90955" x2="7.18404" y2="2.44333" gradientUnits="userSpaceOnUse">
<stop offset="0.0105" stop-color="#A603BE"/>
<stop offset="1" stop-color="#44097C"/>
</linearGradient>
<clipPath id="clip0">
<rect width="8.64679" height="8.64679" fill="white" transform="translate(0.96167 9.14771) rotate(-90)"/>
</clipPath>
</defs>
</svg>
