<svg width="25" height="25" viewBox="0 0 25 25" fill="none" xmlns="http://www.w3.org/2000/svg">
<path d="M21.1543 5H3.8457C2.82925 5 2 5.77677 2 6.73077V18.2692C2 19.22 2.82556 20 3.8457 20H21.1543C22.1682 20 23 19.2258 23 18.2692V6.73077C23 5.78 22.1744 5 21.1543 5ZM20.8994 6.15385L12.5391 13.9936L4.10652 6.15385H20.8994ZM3.23047 18.0303V6.96419L9.15637 12.4734L3.23047 18.0303ZM4.10053 18.8462L10.0302 13.2858L12.1079 15.2174C12.3484 15.441 12.7365 15.4403 12.9761 15.2156L15.002 13.3159L20.8995 18.8462H4.10053ZM21.7695 18.0303L15.872 12.5L21.7695 6.96969V18.0303Z" fill="#A603BE"/>
</svg>
