<svg width="16" height="16" viewBox="0 0 16 16" fill="none" xmlns="http://www.w3.org/2000/svg">
<path d="M10.3333 12H9.66669C9.48259 12 9.33334 12.1493 9.33334 12.3333V14.6667H1.33334V1.33334H9.33334V3.66669C9.33334 3.85078 9.48259 4.00003 9.66669 4.00003H10.3333C10.5174 4.00003 10.6667 3.85078 10.6667 3.66669V1.33334C10.6667 0.596969 10.0697 0 9.33334 0H1.33334C0.596969 0 0 0.596969 0 1.33334V14.6667C0 15.4031 0.596969 16 1.33334 16H9.33334C10.0697 16 10.6667 15.4031 10.6667 14.6667V12.3333C10.6667 12.1492 10.5174 12 10.3333 12Z" fill="black"/>
<path d="M15.8919 7.75442L11.8919 4.08776C11.7943 3.99889 11.6527 3.97448 11.5326 4.02851C11.4115 4.08158 11.3333 4.20136 11.3333 4.33351V5.0002C11.3333 5.09461 11.3734 5.18476 11.4437 5.24792L13.7609 7.33354H4.33334C4.14909 7.33354 4 7.48264 4 7.66689V8.33354C4 8.51779 4.14909 8.66688 4.33334 8.66688H13.7609L11.4437 10.7525C11.3734 10.8157 11.3333 10.9058 11.3333 11.0002V11.6669C11.3333 11.799 11.4115 11.9189 11.5326 11.9719C11.5755 11.9911 11.6214 12.0002 11.6667 12.0002C11.7484 12.0002 11.8291 11.9699 11.8919 11.9126L15.8919 8.24598C15.9609 8.18282 16 8.09364 16 8.0002C16 7.90676 15.9609 7.81757 15.8919 7.75442Z" fill="black"/>
</svg>
