<svg width="28" height="28" viewBox="0 0 28 28" fill="none" xmlns="http://www.w3.org/2000/svg">
<path d="M17.2103 7H10.7897C8.70001 7 7 8.70001 7 10.7897V17.2104C7 19.3 8.70001 21 10.7897 21H17.2104C19.3 21 21 19.3 21 17.2104V10.7897C21 8.70001 19.3 7 17.2103 7V7ZM14 17.828C11.8892 17.828 10.172 16.1108 10.172 14C10.172 11.8892 11.8892 10.172 14 10.172C16.1108 10.172 17.828 11.8892 17.828 14C17.828 16.1108 16.1108 17.828 14 17.828ZM17.9195 11.0747C17.2958 11.0747 16.7884 10.5674 16.7884 9.94361C16.7884 9.31983 17.2958 8.81237 17.9195 8.81237C18.5433 8.81237 19.0508 9.31983 19.0508 9.94361C19.0508 10.5674 18.5433 11.0747 17.9195 11.0747Z" fill="#A603BE"/>
<path d="M13.9999 10.9922C12.3418 10.9922 10.9927 12.3412 10.9927 13.9995C10.9927 15.6576 12.3418 17.0067 13.9999 17.0067C15.6582 17.0067 17.0072 15.6576 17.0072 13.9995C17.0072 12.3412 15.6582 10.9922 13.9999 10.9922Z" fill="#A603BE"/>
<path d="M17.9198 9.63281C17.7487 9.63281 17.6094 9.77209 17.6094 9.94321C17.6094 10.1143 17.7487 10.2536 17.9198 10.2536C18.091 10.2536 18.2303 10.1144 18.2303 9.94321C18.2303 9.77199 18.091 9.63281 17.9198 9.63281Z" fill="#A603BE"/>
<circle cx="14" cy="14" r="13.5" stroke="#A603BE"/>
</svg>
