<svg width="145" height="34" viewBox="0 0 145 34" fill="none" xmlns="http://www.w3.org/2000/svg">
<path d="M144.378 16.7091C144.378 7.76026 137.128 0.5 128.178 0.5H16.6996C7.74989 0.5 0.5 7.76026 0.5 16.7091C0.5 25.6584 7.75029 32.9087 16.6996 32.9087H128.178C137.128 32.9087 144.378 25.6584 144.378 16.7091Z" fill="white" stroke="url(#paint0_linear)"/>
<path fill-rule="evenodd" clip-rule="evenodd" d="M128.178 1C136.852 1 143.878 8.036 143.878 16.7091C143.878 25.3823 136.852 32.4087 128.178 32.4087H16.6996C8.02643 32.4087 1 25.3823 1 16.7091C1 8.036 8.02643 1 16.6996 1H128.178Z" fill="white"/>
<path d="M128.178 28.0111C134.421 28.0111 139.481 22.9508 139.481 16.7087C139.481 10.4665 134.421 5.40625 128.178 5.40625C121.936 5.40625 116.876 10.4665 116.876 16.7087C116.876 22.9508 121.936 28.0111 128.178 28.0111Z" fill="#1C1C1C"/>
<path d="M32.0344 10.4693H23.249V22.9411H25.981V17.8324H31.2485V15.6523H25.981V12.7708H32.0344V10.4693ZM39.276 10.1699C35.543 10.1699 33.0916 12.7708 33.0916 16.7286C33.0916 20.63 35.5614 23.2405 39.2572 23.2405C42.9153 23.2405 45.3855 20.6115 45.3855 16.7286C45.3858 12.8177 42.9156 10.1699 39.276 10.1699ZM39.2387 12.4154C41.325 12.4154 42.6163 14.0432 42.6163 16.6725C42.6163 19.3391 41.3346 20.9858 39.276 20.9858C37.152 20.967 35.8516 19.3484 35.8516 16.6725C35.8519 14.0805 37.1708 12.4154 39.2387 12.4154ZM47.36 10.4693V22.9411H50.0827V18.0572H52.5153C54.3022 18.0572 54.8264 18.6655 55.0039 20.3868C55.0693 21.0697 55.0693 22.314 55.3875 22.9411H58.2224C57.7359 22.4919 57.6986 20.7706 57.6237 19.9847C57.5207 18.7592 57.1745 17.3558 55.7898 17.0749C57.0342 16.6072 57.764 15.4655 57.764 14.0059C57.764 11.5077 55.8552 10.4693 53.5629 10.4693H47.36ZM50.0827 12.6306H52.7958C53.9467 12.6306 55.0881 12.8738 55.0881 14.3053C55.0881 15.849 53.9467 16.0735 52.6743 16.0735H50.0827V12.6306ZM70.9936 10.4693H67.5411L62.6384 15.6526V10.4693H59.9437V22.9411H62.6384V18.9176L64.2289 17.3363L68.0181 22.9408H71.4425L66.1001 15.3902L70.9936 10.4693ZM75.2974 10.4693H72.5466V22.9411H75.2974V10.4693ZM77.7207 22.9408H80.3592V14.5671L85.5333 22.9408H88.2653V10.4693H85.6363V18.8242L80.4995 10.4693H77.7207V22.9408ZM101.804 16.1953H96.5641V18.2351H99.3522C99.2773 19.9098 98.089 21.0512 96.3674 21.0512C94.1969 21.0512 92.9337 19.4794 92.9337 16.7567C92.9337 14.0997 94.1969 12.4995 96.2832 12.4995C97.7335 12.4995 98.7346 13.2574 98.9964 14.5674H101.644C101.307 11.9477 99.1555 10.2075 96.3205 10.2075C92.709 10.2075 90.1922 12.9114 90.1922 16.757C90.1922 20.5931 92.5875 23.2408 96.0585 23.2408C97.6679 23.2408 98.8373 22.6982 99.8011 21.5288L100.063 22.9415H101.803V16.1953H101.804Z" fill="#1C1C1C"/>
<path d="M127.364 10.5615C127.364 10.1122 127.729 9.73828 128.178 9.73828C128.627 9.73828 129.001 10.1126 129.001 10.5615V22.8554C129.001 23.3046 128.627 23.6693 128.178 23.6693C127.729 23.6693 127.364 23.3043 127.364 22.8554V10.5615Z" fill="#FEFEFE"/>
<defs>
<linearGradient id="paint0_linear" x1="144" y1="17" x2="1" y2="32" gradientUnits="userSpaceOnUse">
<stop stop-color="#E6D38F"/>
<stop offset="1" stop-color="#D5B25C"/>
</linearGradient>
</defs>
</svg>
