<svg width="28" height="28" viewBox="0 0 28 28" fill="none" xmlns="http://www.w3.org/2000/svg">
<g clip-path="url(#clip0)">
<path d="M12.104 18.2734V20.9789C12.104 21.1679 12.2253 21.3353 12.405 21.3948C12.4499 21.4094 12.496 21.4164 12.5415 21.4164C12.678 21.4164 12.8098 21.3523 12.8938 21.2379L14.4764 19.0843L12.104 18.2734Z" fill="#A603BE"/>
<path d="M20.8163 8.08114C20.6821 7.98605 20.5059 7.97322 20.3601 8.04964L7.23511 14.9038C7.07994 14.9849 6.98836 15.1506 7.00119 15.325C7.01461 15.5 7.13069 15.6493 7.29578 15.7059L10.9445 16.9531L18.7151 10.3089L12.7021 17.5533L18.8172 19.6434C18.8627 19.6586 18.9105 19.6667 18.9584 19.6667C19.0377 19.6667 19.1164 19.6451 19.1859 19.6031C19.2967 19.5355 19.3719 19.4217 19.3912 19.294L20.9954 8.5023C21.0193 8.33897 20.9504 8.1768 20.8163 8.08114Z" fill="#A603BE"/>
</g>
<circle cx="14" cy="14" r="13.5" stroke="#A603BE"/>
<defs>
<clipPath id="clip0">
<rect x="7" y="8" width="14" height="14" fill="white"/>
</clipPath>
</defs>
</svg>
