<svg width="28" height="28" viewBox="0 0 28 28" fill="none" xmlns="http://www.w3.org/2000/svg">
<circle cx="14" cy="14" r="13.5" stroke="#A603BE"/>
<g clip-path="url(#clip0)">
<path d="M20.8752 17.1327C20.8376 17.0697 20.6048 16.5639 19.4847 15.5243C18.3121 14.4357 18.4696 14.6125 19.882 12.7302C20.7422 11.5839 21.0861 10.8838 20.9784 10.5846C20.8761 10.2993 20.2434 10.3745 20.2434 10.3745L18.1397 10.3868C18.1397 10.3868 17.984 10.3658 17.8676 10.4349C17.7547 10.5032 17.6821 10.6607 17.6821 10.6607C17.6821 10.6607 17.3487 11.548 16.9042 12.3023C15.967 13.8941 15.5916 13.9781 15.4384 13.8792C15.0823 13.649 15.1715 12.9534 15.1715 12.4598C15.1715 10.9171 15.4052 10.2739 14.7156 10.1076C14.4864 10.0525 14.3183 10.0158 13.7329 10.0096C12.9821 10.0018 12.346 10.0123 11.9863 10.1882C11.7465 10.3054 11.5619 10.5671 11.6748 10.5819C11.8139 10.6003 12.1289 10.6668 12.2961 10.8943C12.5122 11.1875 12.5043 11.8473 12.5043 11.8473C12.5043 11.8473 12.6286 13.663 12.2147 13.8888C11.9303 14.0437 11.5409 13.7278 10.7052 12.2831C10.2773 11.5436 9.95353 10.7254 9.95353 10.7254C9.95353 10.7254 9.8914 10.5732 9.78027 10.4918C9.64551 10.3929 9.4565 10.3614 9.4565 10.3614L7.4561 10.3737C7.4561 10.3737 7.15596 10.3824 7.0457 10.5128C6.94769 10.6292 7.03782 10.869 7.03782 10.869C7.03782 10.869 8.60418 14.5328 10.3771 16.3801C12.0038 18.0734 13.8502 17.9622 13.8502 17.9622H14.6867C14.6867 17.9622 14.9396 17.9342 15.0683 17.7951C15.1873 17.6673 15.1829 17.4276 15.1829 17.4276C15.1829 17.4276 15.1663 16.3049 15.6878 16.1395C16.2015 15.9767 16.8613 17.2245 17.5604 17.705C18.089 18.0681 18.4906 17.9885 18.4906 17.9885L20.3606 17.9622C20.3606 17.9622 21.339 17.9018 20.8752 17.1327Z" fill="#A603BE"/>
</g>
<defs>
<clipPath id="clip0">
<rect x="7" y="7" width="14" height="14" fill="white"/>
</clipPath>
</defs>
</svg>
