<svg width="29" height="28" viewBox="0 0 29 28" fill="none" xmlns="http://www.w3.org/2000/svg">
<circle cx="14.4287" cy="14" r="13.5" stroke="#A603BE"/>
<g clip-path="url(#clip0)">
<path d="M21.8566 10.3548C21.6885 9.73004 21.1959 9.23755 20.5713 9.06933C19.4301 8.75708 14.8652 8.75708 14.8652 8.75708C14.8652 8.75708 10.3005 8.75708 9.15935 9.05749C8.54669 9.22554 8.0421 9.73013 7.87405 10.3548C7.57373 11.4959 7.57373 13.8624 7.57373 13.8624C7.57373 13.8624 7.57373 16.2408 7.87405 17.37C8.04228 17.9947 8.53468 18.4872 9.15944 18.6554C10.3126 18.9677 14.8654 18.9677 14.8654 18.9677C14.8654 18.9677 19.4301 18.9677 20.5713 18.6673C21.196 18.4992 21.6885 18.0067 21.8567 17.382C22.157 16.2408 22.157 13.8744 22.157 13.8744C22.157 13.8744 22.169 11.4959 21.8566 10.3548V10.3548ZM13.4119 16.0487V11.6762L17.2078 13.8624L13.4119 16.0487Z" fill="#A603BE"/>
</g>
<defs>
<clipPath id="clip0">
<rect x="7.09521" y="6.22205" width="15.5556" height="15.5556" fill="white"/>
</clipPath>
</defs>
</svg>
