<svg width="117" height="27" viewBox="0 0 117 27" fill="none" xmlns="http://www.w3.org/2000/svg">
<path fill-rule="evenodd" clip-rule="evenodd" d="M17.8903 13.5564L17.6105 12.9804C17.1061 11.9486 16.4279 11.0388 15.6215 10.2795C13.9639 8.70629 11.7212 7.74023 9.25361 7.74023C9.24177 7.74023 9.23022 7.74023 9.21837 7.74023C8.13385 7.74408 7.09288 7.93481 6.12682 8.2819C3.99718 9.04627 2.22915 10.5697 1.14878 12.5258C0.96546 12.8575 0.801984 13.2016 0.659534 13.5567C0.234257 14.6193 0.000296153 15.779 0.000592307 16.9938L0 18.5623L0.000296153 24.0636C0.000296153 25.3107 1.01136 26.3212 2.25817 26.3212C3.50527 26.3212 4.51575 25.3104 4.51575 24.0633V19.0566V18.0547C4.48998 17.465 4.53707 16.496 4.6197 16.0977C4.78821 15.2824 5.14922 14.5426 5.65564 13.9358C5.767 13.8028 5.88487 13.6763 6.00925 13.5564C6.83315 12.7654 7.94224 12.2794 9.19497 12.2732C9.20297 12.2729 9.21067 12.2729 9.21837 12.2729C10.4847 12.2729 11.6987 12.7337 12.5975 13.5561C12.7118 13.6609 12.8217 13.7717 12.9253 13.8884L20.8756 19.7025L17.8903 13.5564Z" fill="#44097C"/>
<path fill-rule="evenodd" clip-rule="evenodd" d="M28.2676 7.68359C27.4378 7.68359 26.711 8.12723 26.3118 8.79002L26.1332 9.15755L24.0759 13.5551L21.1179 19.8792L21.0409 20.0436L21.0166 19.9932L20.875 19.7015L12.9248 13.8874C13.2097 14.207 13.4517 14.5686 13.64 14.969L18.4738 25.0169L18.5677 25.2117C18.9207 25.8645 19.5791 26.3279 20.3514 26.4106C20.8555 26.4106 21.3433 26.4106 21.8473 26.4106C22.6514 26.325 23.3316 25.8268 23.6725 25.1321C23.6775 25.122 23.6823 25.1116 23.687 25.1019C24.0842 24.2762 24.4766 23.4484 24.8657 22.6195C26.2813 19.6035 27.6546 16.5703 29.0711 13.5545C29.4428 12.7626 29.818 11.9719 30.1971 11.1832C30.2729 11.0251 30.3493 10.8667 30.4251 10.7088C30.5054 10.4751 30.5492 10.2255 30.5492 9.96486C30.5495 8.70532 29.5278 7.68359 28.2676 7.68359Z" fill="url(#paint0_linear)"/>
<path d="M31.4098 5.2043C32.6937 5.2043 33.7346 4.16345 33.7346 2.87949C33.7346 1.59554 32.6937 0.554688 31.4098 0.554688C30.1258 0.554688 29.085 1.59554 29.085 2.87949C29.085 4.16345 30.1258 5.2043 31.4098 5.2043Z" fill="#44097C"/>
<path fill-rule="evenodd" clip-rule="evenodd" d="M46.5721 15.0432L51.4527 22.4338L51.4524 14.9731C51.4524 14.4886 51.5575 14.1266 51.7646 13.8844C51.9719 13.6421 52.252 13.5195 52.6053 13.5195C52.9672 13.5195 53.2563 13.6392 53.4665 13.8814C53.6765 14.1237 53.7817 14.4886 53.782 14.9731L53.7823 24.8302C53.7823 25.9307 53.3271 26.4795 52.4161 26.4795C52.1884 26.4795 51.984 26.4475 51.8001 26.3803C51.6191 26.316 51.4468 26.2109 51.2892 26.0708C51.1287 25.9278 50.9827 25.7613 50.8456 25.5688C50.7085 25.379 50.5711 25.1835 50.4339 24.9851L45.673 17.6879L45.6733 25.026C45.6733 25.5046 45.5622 25.8668 45.3404 26.1117C45.1156 26.3569 44.8295 26.4795 44.4821 26.4795C44.1232 26.4795 43.8342 26.3569 43.6183 26.1087C43.3994 25.8605 43.2913 25.4986 43.2913 25.026L43.291 15.3586C43.291 14.947 43.3378 14.626 43.4281 14.3926C43.5362 14.1358 43.7172 13.9256 43.968 13.7621C44.2192 13.6016 44.4904 13.5198 44.7795 13.5198C45.0102 13.5198 45.2056 13.5577 45.3662 13.6309C45.5296 13.7067 45.6727 13.8059 45.7953 13.9315C45.9179 14.0571 46.0435 14.2176 46.1717 14.419C46.3008 14.6171 46.435 14.8244 46.5721 15.0432Z" fill="#44097C"/>
<path fill-rule="evenodd" clip-rule="evenodd" d="M72.8806 15.9894L75.8641 24.1126C75.9722 24.4251 76.08 24.7227 76.1881 24.9999C76.2962 25.2801 76.4244 25.5283 76.5674 25.7501C76.7134 25.9689 76.9033 26.144 77.1396 26.2784C77.3762 26.4126 77.665 26.4798 78.0094 26.4798C78.3509 26.4798 78.6399 26.4126 78.8762 26.2755C79.1126 26.1383 79.3024 25.9633 79.4425 25.7501C79.5855 25.5339 79.7111 25.286 79.8189 25.0055C79.9267 24.7224 80.0348 24.4248 80.1459 24.1123L83.1785 15.9219C83.2282 15.773 83.2806 15.6299 83.3331 15.4898C83.3828 15.3498 83.4263 15.2067 83.4586 15.0637C83.4936 14.9177 83.511 14.7806 83.511 14.6579C83.511 14.474 83.4586 14.2931 83.3535 14.1151C83.2484 13.9342 83.1024 13.7911 82.9184 13.683C82.7316 13.5749 82.5302 13.5195 82.3143 13.5195C82.0196 13.5195 81.786 13.5897 81.6139 13.7298C81.4445 13.8699 81.3219 14.0245 81.2461 14.1998C81.1732 14.3719 81.0622 14.6813 80.9135 15.1279L78.0677 23.5899L75.2303 15.1866C75.0434 14.6058 74.8595 14.1826 74.6786 13.917C74.5006 13.6513 74.1941 13.5201 73.762 13.5201C73.409 13.5201 73.114 13.6398 72.8806 13.8791C72.647 14.1184 72.5303 14.384 72.5303 14.6731C72.5303 14.7868 72.5477 14.9269 72.5857 15.0933C72.6236 15.2568 72.6674 15.4114 72.7228 15.5544C72.7755 15.6977 72.8282 15.8434 72.8806 15.9894Z" fill="#44097C"/>
<path fill-rule="evenodd" clip-rule="evenodd" d="M89.3437 15.8867L86.3608 24.0102C86.3081 24.1562 86.2557 24.3022 86.2032 24.4452C86.1479 24.5883 86.104 24.7429 86.0661 24.9063C86.0282 25.0728 86.0107 25.2129 86.0107 25.3266C86.0107 25.6156 86.1274 25.8813 86.3611 26.1206C86.5945 26.3599 86.8894 26.4795 87.2424 26.4795C87.6745 26.4795 87.9811 26.3483 88.159 26.0827C88.34 25.817 88.5239 25.3938 88.7108 24.813L91.5476 16.4094L94.394 24.8711C94.5426 25.3177 94.6537 25.6272 94.7268 25.7992C94.8026 25.9743 94.9253 26.1292 95.0947 26.2692C95.2667 26.4093 95.5004 26.4795 95.7951 26.4795C96.011 26.4795 96.2123 26.4241 96.3992 26.316C96.5831 26.2079 96.7291 26.0649 96.8343 25.8839C96.9394 25.706 96.9918 25.525 96.9918 25.3411C96.9918 25.2185 96.9743 25.0814 96.9394 24.9354C96.9071 24.7923 96.8636 24.6493 96.8138 24.5092C96.7614 24.3691 96.7087 24.2261 96.6592 24.0771L93.6263 15.8867C93.5153 15.5742 93.4075 15.2766 93.2994 14.9935C93.1913 14.7133 93.0657 14.4651 92.9227 14.2493C92.7826 14.0363 92.5928 13.861 92.3564 13.7239C92.1201 13.5868 91.831 13.5195 91.4896 13.5195C91.1452 13.5195 90.8561 13.5868 90.6198 13.7209C90.3834 13.8551 90.1936 14.0304 90.0476 14.2493C89.9046 14.4711 89.776 14.7193 89.6682 14.9994C89.5598 15.2766 89.4517 15.5742 89.3437 15.8867Z" fill="#44097C"/>
<path fill-rule="evenodd" clip-rule="evenodd" d="M110.222 15.9774L107.239 24.1006C107.131 24.4131 107.023 24.7107 106.915 24.9879C106.807 25.2681 106.678 25.5162 106.535 25.7381C106.389 25.9569 106.2 26.1319 105.963 26.2664C105.727 26.4006 105.438 26.4678 105.093 26.4678C104.752 26.4678 104.463 26.4006 104.227 26.2634C103.99 26.1263 103.8 25.9513 103.66 25.7381C103.517 25.5219 103.392 25.274 103.284 24.9935C103.176 24.7104 103.068 24.4128 102.957 24.1003L99.9244 15.9099C99.8746 15.761 99.8222 15.6179 99.7698 15.4778C99.72 15.3377 99.6765 15.1947 99.6442 15.0517C99.6093 14.9057 99.5918 14.7685 99.5918 14.6459C99.5918 14.462 99.6442 14.2811 99.7493 14.1031C99.8545 13.9221 100 13.7791 100.184 13.6713C100.371 13.5632 100.573 13.5078 100.789 13.5078C101.083 13.5078 101.317 13.5777 101.489 13.7181C101.658 13.8582 101.781 14.0128 101.857 14.1881C101.93 14.3604 102.041 14.6696 102.189 15.1162L105.035 23.5782L107.873 15.1746C108.059 14.5938 108.243 14.1706 108.424 13.905C108.602 13.6393 108.909 13.5081 109.341 13.5081C109.694 13.5081 109.989 13.6278 110.223 13.8671C110.456 14.1063 110.573 14.372 110.573 14.661C110.573 14.7748 110.555 14.9148 110.517 15.0813C110.48 15.2448 110.436 15.3993 110.38 15.5424C110.327 15.6854 110.275 15.8314 110.222 15.9774Z" fill="url(#paint1_linear)"/>
<path fill-rule="evenodd" clip-rule="evenodd" d="M116.985 24.9393L116.985 15.0647C116.985 14.5509 116.865 14.1656 116.629 13.9058C116.392 13.6461 116.091 13.5176 115.726 13.5176C115.347 13.5176 115.038 13.6461 114.801 13.9029C114.565 14.1596 114.445 14.5449 114.445 15.0647L114.446 24.9393C114.446 25.4588 114.565 25.8441 114.802 26.0982C115.038 26.352 115.347 26.4775 115.727 26.4775C116.098 26.4775 116.401 26.349 116.635 26.0923C116.868 25.8352 116.985 25.4529 116.985 24.9393Z" fill="url(#paint2_linear)"/>
<path fill-rule="evenodd" clip-rule="evenodd" d="M64.4403 16.4703C66.4227 16.9788 67.6174 18.9979 67.1089 20.9804C66.6004 22.9628 64.5812 24.1575 62.5988 23.649C60.6163 23.1405 59.4216 21.1208 59.9301 19.1389C60.4386 17.1565 62.4578 15.9615 64.4403 16.4703ZM69.7941 21.6692C70.6835 18.204 68.5947 14.6738 65.1291 13.7847C61.6638 12.896 58.134 14.9842 57.2449 18.4498C56.3556 21.9151 58.4443 25.4452 61.9099 26.334C65.3752 27.223 68.9048 25.1348 69.7941 21.6692Z" fill="#44097C"/>
<defs>
<linearGradient id="paint0_linear" x1="13.0789" y1="24.5054" x2="25.9372" y2="12.4522" gradientUnits="userSpaceOnUse">
<stop offset="0.0105" stop-color="#E400E8"/>
<stop offset="1" stop-color="#44097C"/>
</linearGradient>
<linearGradient id="paint1_linear" x1="105.082" y1="13.7162" x2="105.082" y2="24.6591" gradientUnits="userSpaceOnUse">
<stop stop-color="#440A7C"/>
<stop offset="0.9986" stop-color="#A603BE"/>
</linearGradient>
<linearGradient id="paint2_linear" x1="115.715" y1="15.8438" x2="115.715" y2="21.6343" gradientUnits="userSpaceOnUse">
<stop stop-color="#440A7C"/>
<stop offset="0.9959" stop-color="#A603BE"/>
</linearGradient>
</defs>
</svg>
